<?xml version="1.0" standalone="no"?>
<!DOCTYPE svg PUBLIC "-//W3C//DTD SVG 1.1//EN" "http://www.w3.org/Graphics/SVG/1.1/DTD/svg11.dtd" >
<svg xmlns="http://www.w3.org/2000/svg" xmlns:xlink="http://www.w3.org/1999/xlink" version="1.1">
<metadata>
Created by FontForge 20201107 at Thu Feb 13 17:24:00 2025
 By 
Permit Crashing
</metadata>
<defs>
<font id="CalSans-Regular" horiz-adv-x="600" >
  <font-face 
    font-family="Cal Sans"
    font-weight="400"
    font-stretch="normal"
    units-per-em="1000"
    panose-1="0 0 0 0 0 0 0 0 0 0"
    ascent="800"
    descent="-200"
    x-height="520"
    cap-height="700"
    bbox="-202 -221 1147 1139"
    underline-thickness="50"
    underline-position="-125"
    unicode-range="U+000D-FB02"
  />
<missing-glyph 
d="M65 0v700h470v-700h-470zM100 35h400v630h-400v-630z" />
    <glyph glyph-name="fi" unicode="fi" horiz-adv-x="539" 
d="M78 0v405h-73v115h73v35q0 79 47 127t126 48h56v-115h-35q-59 0 -59 -62v-33h106v-115h-106v-405h-135zM431 563q-34 0 -57.5 23.5t-23.5 56.5q0 32 23.5 55.5t57.5 23.5q35 0 58 -23.5t23 -55.5q0 -34 -23 -57t-58 -23zM364 0v520h135v-520h-135z" />
    <glyph glyph-name="fl" unicode="fl" horiz-adv-x="539" 
d="M78 0v405h-73v115h73v35q0 79 47 127t126 48h56v-115h-35q-59 0 -59 -62v-33h106v-115h-106v-405h-135zM364 0v730h135v-730h-135z" />
    <glyph glyph-name=".notdef" 
d="M65 0v700h470v-700h-470zM100 35h400v630h-400v-630z" />
    <glyph glyph-name=".null" horiz-adv-x="0" 
 />
    <glyph glyph-name="nonmarkingreturn" horiz-adv-x="333" 
 />
    <glyph glyph-name="CR" unicode="&#xd;" 
 />
    <glyph glyph-name="space" unicode=" " horiz-adv-x="164" 
 />
    <glyph glyph-name="exclam" unicode="!" horiz-adv-x="243" 
d="M77 193l-23 384v123h140v-123l-23 -384h-94zM122 -13q-39 0 -64.5 26t-25.5 62q0 35 25.5 61t64.5 26t64 -26t25 -61q0 -36 -25 -62t-64 -26z" />
    <glyph glyph-name="quotedbl" unicode="&#x22;" horiz-adv-x="358" 
d="M60 463l-40 176q-11 50 9.5 77t61.5 27q43 0 61.5 -32t8.5 -73l-40 -175h-61zM237 463l-40 176q-11 50 9.5 77t61.5 27q43 0 61.5 -32t8.5 -73l-40 -175h-61z" />
    <glyph glyph-name="numbersign" unicode="#" horiz-adv-x="683" 
d="M61 0l47 191h-80v107h109l37 150h-131v107h156l44 175h120l-44 -175h131l43 175h120l-44 -175h86v-107h-115l-38 -150h138v-107h-163l-48 -191h-118l48 191h-132l-48 -191h-118zM249 298h141l38 150h-141z" />
    <glyph glyph-name="dollar" unicode="$" horiz-adv-x="556" 
d="M245 -84v72q-73 6 -133.5 42t-101.5 108l121 77q27 -54 68 -78.5t87 -24.5q49 0 77 22t28 58q0 35 -22 56t-58.5 34t-79.5 24q-81 21 -129 69.5t-48 127.5q0 82 52 136.5t139 68.5v102h110v-102q59 -11 102 -43t75 -83l-120 -74q-25 41 -52 60t-66 19q-42 0 -69.5 -21
t-27.5 -56q0 -39 32.5 -56.5t78.5 -31.5q31 -10 69.5 -23.5t74.5 -37t59 -62.5t23 -99q0 -79 -47 -133.5t-132 -71.5v-79h-110z" />
    <glyph glyph-name="percent" unicode="%" horiz-adv-x="681" 
d="M170 401q-46 0 -80.5 20.5t-54.5 55t-20 76.5q0 43 20 78t54.5 56t80.5 21t81 -21.5t55 -56.5t20 -77t-20 -76.5t-55 -55t-81 -20.5zM37 0l498 700h109l-497 -700h-110zM170 493q27 0 43 17.5t15 42.5q0 26 -16 44t-42 18q-25 0 -41.5 -18t-16.5 -44q0 -25 16.5 -42.5
t41.5 -17.5zM510 -8q-45 0 -80 20.5t-55 55t-20 76.5q0 43 20 78t55 56t80 21q46 0 81 -21t55 -56t20 -78q0 -42 -20 -76.5t-55 -55t-81 -20.5zM510 84q26 -1 42.5 17t15.5 43q0 26 -16 44t-42 18q-25 0 -41.5 -18t-16.5 -44q0 -25 16.5 -42.5t41.5 -17.5z" />
    <glyph glyph-name="ampersand" unicode="&#x26;" horiz-adv-x="630" 
d="M255 -13q-72 0 -122.5 28.5t-76.5 76t-26 102.5q0 68 34.5 115.5t81.5 75.5l15 9l-14 17q-27 32 -40.5 62t-13.5 71q0 51 26 89t69.5 59t95.5 21q49 0 92 -21t70 -59t27 -89q0 -41 -15.5 -76.5t-71.5 -72.5l-40 -27l112 -138l94 77l73 -93l-93 -74l113 -140h-154l-47 65
l-25 -22q-13 -11 -38.5 -24.5t-58 -22.5t-67.5 -9zM251 485l22 -27l11 7q37 21 49.5 39t12.5 41q0 26 -17 42t-41 16q-27 0 -45 -16t-18 -42q0 -14 5 -27t21 -33zM167 201q0 -34 23 -62.5t63 -28.5q30 0 51 9t49 30l6 5l-119 145l-24 -16q-22 -15 -35.5 -35t-13.5 -47z" />
    <glyph glyph-name="quotesingle" unicode="'" horiz-adv-x="181" 
d="M60 463l-40 176q-11 50 9.5 77t61.5 27q43 0 61.5 -32t8.5 -73l-40 -175h-61z" />
    <glyph glyph-name="parenleft" unicode="(" horiz-adv-x="312" 
d="M180 -214q-56 84 -89.5 181.5t-44.5 201t0 206t44.5 196.5t89.5 171l118 -63q-124 -188 -121.5 -399.5t121.5 -430.5z" />
    <glyph glyph-name="parenright" unicode=")" horiz-adv-x="312" 
d="M132 -214l-118 63q119 219 121.5 430.5t-121.5 399.5l118 63q56 -77 89.5 -171t44.5 -196.5t0 -206t-44.5 -201t-89.5 -181.5z" />
    <glyph glyph-name="asterisk" unicode="*" horiz-adv-x="352" 
d="M306 452l-74 -54l-57 95l-57 -94l-75 54l75 85l-108 26l28 88l102 -44l-9 109h92l-10 -109l100 42l29 -88l-109 -24z" />
    <glyph glyph-name="plus" unicode="+" horiz-adv-x="542" 
d="M213 84v177h-168v110h168v175h116v-175h168v-110h-168v-177h-116z" />
    <glyph glyph-name="comma" unicode="," horiz-adv-x="232" 
d="M60 -139l-27 67l28 10q31 11 47 23t23 32q-12 -3 -23 -3q-30 0 -54 23.5t-24 56.5q0 32 24.5 55.5t57.5 23.5q45 0 72.5 -31t27.5 -85q0 -58 -34 -100t-90 -62z" />
    <glyph glyph-name="hyphen" unicode="-" horiz-adv-x="326" 
d="M20 210v131h286v-131h-286z" />
    <glyph glyph-name="period" unicode="." horiz-adv-x="223" 
d="M112 -13q-39 0 -64.5 26t-25.5 62q0 35 25.5 61t64.5 26t64 -26t25 -61q0 -36 -25 -62t-64 -26z" />
    <glyph glyph-name="slash" unicode="/" horiz-adv-x="682" 
d="M25 0l482 730h150l-484 -730h-148z" />
    <glyph glyph-name="zero" unicode="0" horiz-adv-x="614" 
d="M307 -13q-80 0 -141.5 37t-96 98.5t-34.5 136.5v180q0 75 34.5 136.5t96 98.5t141.5 37q81 0 142 -37t95.5 -98.5t34.5 -136.5v-180q0 -75 -34.5 -136.5t-95.5 -98.5t-142 -37zM307 117q65 0 96 45t31 113v147q0 76 -31 117.5t-96 41.5q-64 0 -95.5 -41.5t-31.5 -117.5
v-147q0 -68 31.5 -113t95.5 -45z" />
    <glyph glyph-name="one" unicode="1" horiz-adv-x="293" 
d="M100 0v544h-121v15l121 141h140v-700h-140z" />
    <glyph glyph-name="two" unicode="2" horiz-adv-x="551" 
d="M17 0v16l280 330q32 37 51 70.5t19 65.5q0 45 -27 73t-76 28t-75.5 -29.5t-26.5 -83.5h-145q0 72 32.5 127t88.5 85.5t128 30.5q73 0 128 -30t86.5 -80.5t31.5 -112.5q0 -42 -13 -79.5t-48 -81.5l-109 -142q-13 -17 -28.5 -34t-33.5 -30h236v-123h-499z" />
    <glyph glyph-name="three" unicode="3" horiz-adv-x="522" 
d="M257 -13q-112 0 -179.5 57t-67.5 165h140q0 -53 28.5 -77t78.5 -24t74 26t24 61q0 53 -32.5 80t-84.5 27h-71v114h71q51 0 81.5 22.5t30.5 66.5q0 36 -22.5 61.5t-70.5 25.5q-47 0 -75 -22.5t-28 -69.5h-135q0 101 65 157t173 56q73 0 123.5 -27t77.5 -72.5t27 -102.5
q0 -49 -19.5 -87t-63.5 -60q44 -24 68 -67.5t24 -108.5q0 -56 -28 -102t-80.5 -72.5t-128.5 -26.5z" />
    <glyph glyph-name="four" unicode="4" horiz-adv-x="573" 
d="M348 0v179h-338v45l359 476h119v-409h80v-112h-80v-179h-140zM349 385q0 19 0.5 54t3.5 63q-10 -17 -20.5 -33t-21.5 -30l-114 -148h152v94z" />
    <glyph glyph-name="five" unicode="5" horiz-adv-x="530" 
d="M235 -13q-58 0 -110 11t-110 43l51 122q33 -19 73 -32.5t86 -13.5q69 0 102.5 30t33.5 80t-33 82.5t-113 32.5q-43 0 -82.5 -11.5t-79.5 -32.5l65 402h332v-123h-223l-19 -124q15 5 29.5 6t29.5 1q84 0 136.5 -33t77.5 -86t25 -114q0 -69 -34 -123.5t-95 -85.5t-142 -31z
" />
    <glyph glyph-name="six" unicode="6" horiz-adv-x="548" 
d="M276 -13q-75 0 -133 31t-90.5 85.5t-32.5 123.5q0 38 9.5 77t46.5 94l199 302h163l-162 -246q78 7 136 -20t90 -81t32 -126q0 -69 -33 -123.5t-91 -85.5t-134 -31zM276 117q54 0 83.5 32.5t29.5 77.5q0 30 -13 57t-38 44t-61 17q-35 0 -60.5 -17t-38.5 -44t-13 -57
q0 -45 29.5 -77.5t81.5 -32.5z" />
    <glyph glyph-name="seven" unicode="7" horiz-adv-x="501" 
d="M37 0l258 545q7 15 20 32h-325v123h525l2 -15l-330 -685h-150z" />
    <glyph glyph-name="eight" unicode="8" horiz-adv-x="532" 
d="M266 -13q-75 0 -129.5 26.5t-83.5 72.5t-29 102q0 66 29 109.5t73 66.5q-39 23 -60.5 61t-21.5 89q0 57 25.5 102t75 71t121.5 26q73 0 122 -26t74.5 -71t25.5 -102q0 -102 -82 -150q44 -24 73 -67t29 -109q0 -56 -29 -102t-83 -72.5t-130 -26.5zM266 418q39 0 63.5 25.5
t25.5 64.5q1 36 -23.5 60.5t-65.5 24.5q-39 0 -63.5 -24.5t-24.5 -60.5q0 -39 24.5 -64.5t63.5 -25.5zM266 107q45 0 74.5 29.5t29.5 69.5q0 44 -29.5 72.5t-74.5 28.5t-74.5 -28.5t-29.5 -72.5q0 -40 29.5 -69.5t74.5 -29.5z" />
    <glyph glyph-name="nine" unicode="9" horiz-adv-x="549" 
d="M110 0l163 246q-79 -7 -137 20t-89.5 81t-31.5 126q0 70 33 124t91.5 85t133.5 31q76 0 133.5 -31t90 -85t32.5 -124q0 -38 -9.5 -76.5t-46.5 -94.5l-200 -302h-163zM272 355q36 0 61 17t38 44t13 57q0 45 -29 77.5t-82 32.5q-54 0 -83.5 -32.5t-29.5 -77.5q0 -30 13 -57
t38.5 -44t60.5 -17z" />
    <glyph glyph-name="colon" unicode=":" horiz-adv-x="223" 
d="M112 373q-39 0 -64.5 26t-25.5 62q0 35 25.5 61t64.5 26t64 -26t25 -61q0 -36 -25 -62t-64 -26zM112 -13q-39 0 -64.5 26t-25.5 62q0 35 25.5 61t64.5 26t64 -26t25 -61q0 -36 -25 -62t-64 -26z" />
    <glyph glyph-name="semicolon" unicode=";" horiz-adv-x="227" 
d="M60 -139l-27 67l28 10q31 11 47 23t23 32q-12 -3 -23 -3q-30 0 -54 23.5t-24 56.5q0 32 24.5 55.5t57.5 23.5q45 0 72.5 -31t27.5 -85q0 -58 -34 -100t-90 -62zM112 373q-39 0 -64.5 26t-25.5 62q0 35 25.5 61t64.5 26t64 -26t25 -61q0 -36 -25 -62t-64 -26z" />
    <glyph glyph-name="less" unicode="&#x3c;" horiz-adv-x="542" 
d="M313 70l-263 240l263 240h169l-260 -236l260 -244h-169z" />
    <glyph glyph-name="equal" unicode="=" horiz-adv-x="542" 
d="M45 367v110h452v-110h-452zM45 154v110h452v-110h-452z" />
    <glyph glyph-name="greater" unicode="&#x3e;" horiz-adv-x="542" 
d="M229 70h-169l260 244l-260 236h169l263 -240z" />
    <glyph glyph-name="question" unicode="?" horiz-adv-x="520" 
d="M199 193l-20 210q18 -9 50 -9q58 0 87 31t29 75q0 36 -22 64t-66 28q-47 0 -72.5 -22.5t-25.5 -69.5h-135q0 101 62.5 157t170.5 56q73 0 122.5 -28t75 -75t25.5 -104q0 -39 -15.5 -81.5t-54 -76.5t-107.5 -45l-10 -110h-94zM244 -13q-39 0 -64.5 26t-25.5 62
q0 35 25.5 61t64.5 26t64 -26t25 -61q0 -36 -25 -62t-64 -26z" />
    <glyph glyph-name="at" unicode="@" horiz-adv-x="815" 
d="M420 -124q-85 0 -157.5 30t-127 84t-84.5 126t-30 155t30 154.5t84.5 125.5t127 84.5t157.5 30.5q84 0 153.5 -29.5t120 -79.5t78 -113.5t27.5 -131.5q0 -70 -26 -120.5t-70.5 -77t-98.5 -26.5q-25 0 -50.5 7t-45.5 22t-27 41q-12 -27 -38.5 -50.5t-70.5 -23.5
q-47 0 -83.5 21t-57 58t-20.5 85q0 52 25.5 97t68 73t94.5 28q37 0 60.5 -14t36.5 -36l5 42h112l-22 -173q-1 -10 -2.5 -22t-1.5 -21q0 -34 29 -34q14 0 31 11.5t29 40t12 77.5q0 42 -18 84.5t-53 79t-85 58.5t-114 22q-84 0 -148.5 -39.5t-101 -105t-36.5 -145.5t36.5 -146
t101.5 -105t150 -39q25 0 49 4t45 11l37 -99q-61 -21 -131 -21zM402 186q37 0 61 27t24 62q0 29 -17.5 49t-51.5 20q-36 0 -60.5 -27t-24.5 -63q0 -28 18 -48t51 -20z" />
    <glyph glyph-name="A" unicode="A" horiz-adv-x="654" 
d="M-19 0l286 700h121l285 -700h-152l-48 133h-292l-48 -133h-152zM302 445l-75 -191h200l-75 191q-15 40 -25 80q-10 -43 -25 -80z" />
    <glyph glyph-name="B" unicode="B" horiz-adv-x="574" 
d="M50 0v700h236q114 0 174 -51t60 -133q0 -50 -24.5 -86.5t-88.5 -60.5q86 -20 119 -65.5t33 -110.5q0 -88 -67 -140.5t-181 -52.5h-261zM190 411h83q57 0 81 20.5t24 62.5q0 36 -24 58.5t-81 22.5h-83v-164zM190 126h108q57 0 88 21.5t31 67.5q0 38 -31 60t-88 22h-108
v-171z" />
    <glyph glyph-name="C" unicode="C" horiz-adv-x="662" 
d="M390 -13q-78 0 -144.5 28t-116 78t-77 115.5t-27.5 140.5t26.5 141t75 116t115.5 78.5t148 28.5q86 0 147.5 -27t108.5 -83l-99 -86q-63 66 -157 66q-67 0 -116.5 -32t-76.5 -85t-27 -117t27 -116.5t77 -84t119 -31.5q51 0 90 17t70 51l102 -87q-40 -48 -106.5 -79.5
t-158.5 -31.5z" />
    <glyph glyph-name="D" unicode="D" horiz-adv-x="684" 
d="M50 0v700h250q121 0 200.5 -46t119 -125t39.5 -180q0 -100 -39.5 -179t-119 -124.5t-200.5 -45.5h-250zM283 574h-93v-448h93q83 0 134 29.5t74 80t23 113.5q0 64 -23 114.5t-74 80.5t-134 30z" />
    <glyph glyph-name="E" unicode="E" horiz-adv-x="501" 
d="M50 0v700h410v-126h-270v-157h265v-122h-265v-169h272v-126h-412z" />
    <glyph glyph-name="F" unicode="F" horiz-adv-x="496" 
d="M50 0v700h411v-126h-271v-164h266v-124h-266v-286h-140z" />
    <glyph glyph-name="G" unicode="G" horiz-adv-x="752" 
d="M390 -13q-78 0 -144.5 28t-116 78t-77 115.5t-27.5 140.5t27.5 141t77 116t116 78.5t144.5 28.5q89 0 151.5 -28.5t105.5 -81.5l-100 -86q-28 31 -68 48.5t-89 17.5q-67 0 -116.5 -32t-76.5 -85t-27 -117t27 -117t76.5 -85t116.5 -32q83 0 134 39.5t63 121.5l-230 -2v126
h365q2 -16 3.5 -38.5t1.5 -39.5q0 -97 -40.5 -172.5t-116 -119t-180.5 -43.5z" />
    <glyph glyph-name="H" unicode="H" horiz-adv-x="670" 
d="M50 0v700h140v-282h290v282h140v-700h-140v292h-290v-292h-140z" />
    <glyph glyph-name="I" unicode="I" horiz-adv-x="240" 
d="M50 0v700h140v-700h-140z" />
    <glyph glyph-name="J" unicode="J" horiz-adv-x="386" 
d="M138 -11q-41 0 -78 7t-58 20l53 115q22 -16 64 -16q35 0 58.5 17.5t23.5 58.5v509h140v-514q0 -68 -26.5 -111.5t-72 -64.5t-104.5 -21z" />
    <glyph glyph-name="K" unicode="K" horiz-adv-x="588" 
d="M50 0v700h140v-289l218 289h183l-271 -328l291 -372h-179l-242 309v-309h-140z" />
    <glyph glyph-name="L" unicode="L" horiz-adv-x="476" 
d="M50 0v700h140v-574h261v-126h-401z" />
    <glyph glyph-name="M" unicode="M" horiz-adv-x="888" 
d="M50 0v700h174l145 -309q25 -54 40.5 -89t24 -58t13.5 -40q5 17 13 40t23.5 58t40.5 89l146 309h168v-700h-137v283q0 48 1 82t3 62.5t6 58.5l-233 -486h-68l-233 486q4 -30 6 -58.5t3 -62.5t1 -82v-283h-137z" />
    <glyph glyph-name="N" unicode="N" horiz-adv-x="716" 
d="M50 0v700h106l341 -405q12 -14 23.5 -28.5t22.5 -29.5q-3 22 -4 52.5t-1 61.5v349h128v-700h-91l-354 421q-12 14 -23.5 28.5t-22.5 29.5q3 -22 4 -52.5t1 -61.5v-365h-130z" />
    <glyph glyph-name="O" unicode="O" horiz-adv-x="778" 
d="M390 -13q-78 0 -144.5 28t-116 78t-77 115.5t-27.5 140.5t27.5 141t77 116t116 78.5t144.5 28.5t144 -28.5t115 -78.5t76.5 -116t27.5 -141t-27.5 -140.5t-76.5 -115.5t-115 -78t-144 -28zM390 117q68 0 116.5 31.5t75 84.5t26.5 116q0 64 -26.5 117t-75 85t-116.5 32
t-117.5 -32t-76 -85t-26.5 -117q0 -63 26.5 -116t76 -84.5t117.5 -31.5z" />
    <glyph glyph-name="P" unicode="P" horiz-adv-x="549" 
d="M50 0v700h236q118 0 185.5 -55.5t67.5 -165.5q0 -111 -67.5 -168t-185.5 -57h-96v-254h-140zM190 380h88q57 0 88 24t31 74t-31 73.5t-88 23.5h-88v-195z" />
    <glyph glyph-name="Q" unicode="Q" horiz-adv-x="778" 
d="M390 -13q-78 0 -144.5 28t-116 78t-77 115.5t-27.5 140.5t27.5 141t77 116t116 78.5t144.5 28.5t144 -28.5t115 -78.5t76.5 -116t27.5 -141q0 -77 -29 -144.5t-80 -116.5l96 -145h-152l-50 74q-34 -14 -71 -22t-77 -8zM390 117q44 0 81 14l-84 127h152l31 -46
q38 59 38 137q0 64 -26.5 117t-75 85t-116.5 32t-117.5 -32t-76 -85t-26.5 -117q0 -63 26.5 -116t76 -84.5t117.5 -31.5z" />
    <glyph glyph-name="R" unicode="R" horiz-adv-x="551" 
d="M50 0v700h226q118 0 185.5 -54.5t67.5 -157.5q0 -83 -44.5 -134t-123.5 -68l196 -286h-165l-149 222q-14 21 -27 51h-26v-273h-140zM190 399h78q57 0 88 22.5t31 65.5q0 42 -31 64.5t-88 22.5h-78v-175z" />
    <glyph glyph-name="S" unicode="S" horiz-adv-x="556" 
d="M278 -13q-83 0 -152.5 35.5t-115.5 115.5l121 77q27 -54 68 -78.5t87 -24.5q49 0 77 22t28 58q0 35 -22 56t-58.5 34t-79.5 24q-81 21 -129 69.5t-48 127.5q0 63 31 110t86.5 73t129.5 26q82 0 137 -34t94 -96l-120 -74q-25 41 -52 60t-66 19q-42 0 -69.5 -21t-27.5 -56
q0 -39 32.5 -56.5t78.5 -31.5q31 -10 69.5 -23.5t74.5 -37t59 -62.5t23 -99q0 -63 -31 -111t-88 -75t-137 -27z" />
    <glyph glyph-name="T" unicode="T" horiz-adv-x="570" 
d="M215 0v574h-200v126h540v-126h-200v-574h-140z" />
    <glyph glyph-name="U" unicode="U" horiz-adv-x="646" 
d="M323 -13q-85 0 -149 34.5t-99 96t-35 141.5v441h140v-426q0 -74 35.5 -116.5t107.5 -42.5t107.5 42.5t35.5 116.5v426h140v-441q0 -80 -35 -141.5t-98.5 -96t-149.5 -34.5z" />
    <glyph glyph-name="V" unicode="V" horiz-adv-x="657" 
d="M262 0l-279 700h162l160 -445q16 -44 25 -88q5 22 11 44.5t14 43.5l160 445h159l-277 -700h-135z" />
    <glyph glyph-name="W" unicode="W" horiz-adv-x="1044" 
d="M225 0l-234 700h160l112 -396q9 -30 16.5 -60.5t11.5 -59.5q4 29 11 60t18 60l139 396h126l139 -396q22 -61 31 -120q4 29 10.5 59.5t15.5 60.5l112 396h160l-234 -700h-126l-142 395q-20 55 -29 115q-5 -29 -12 -58t-17 -57l-142 -395h-126z" />
    <glyph glyph-name="X" unicode="X" horiz-adv-x="608" 
d="M-10 0l230 351l-219 349h167l138 -232l141 232h163l-219 -352l230 -348h-169l-146 233l-150 -233h-166z" />
    <glyph glyph-name="Y" unicode="Y" horiz-adv-x="566" 
d="M211 0v281l-237 419h154l110 -201q13 -24 26.5 -50t20.5 -52q7 26 19.5 51.5t25.5 50.5l105 201h153l-237 -422v-278h-140z" />
    <glyph glyph-name="Z" unicode="Z" horiz-adv-x="588" 
d="M10 0v15l318 530q10 17 23 32h-322v123h545v-15l-318 -530q-10 -17 -23 -32h341v-123h-564z" />
    <glyph glyph-name="bracketleft" unicode="[" horiz-adv-x="278" 
d="M45 -200v930h213v-107h-85v-716h85v-107h-213z" />
    <glyph glyph-name="backslash" unicode="\" horiz-adv-x="732" 
d="M707 0h-148l-484 730h150z" />
    <glyph glyph-name="bracketright" unicode="]" horiz-adv-x="278" 
d="M233 -200h-213v107h85v716h-85v107h213v-930z" />
    <glyph glyph-name="asciicircum" unicode="^" horiz-adv-x="542" 
d="M79 428l126 272h132l126 -272h-129l-55 131q-6 16 -9 32q-3 -16 -9 -32l-55 -131h-127z" />
    <glyph glyph-name="underscore" unicode="_" horiz-adv-x="546" 
d="M50 -115v115h446v-115h-446z" />
    <glyph glyph-name="grave" unicode="`" horiz-adv-x="530" 
d="M210 566l-99 174h159l34 -174h-94z" />
    <glyph glyph-name="a" unicode="a" horiz-adv-x="616" 
d="M277 -13q-71 0 -129.5 36.5t-93 98t-34.5 136.5q0 56 20 105.5t55 87t81.5 59t100.5 21.5q68 0 106 -25.5t59 -67.5v82h134v-520h-131v85q-21 -44 -59.5 -71t-108.5 -27zM299 109q45 0 77.5 20.5t50.5 54.5t18 74q0 41 -18 75t-50.5 55t-77.5 21q-43 0 -75.5 -20.5
t-50.5 -54.5t-18 -75q0 -39 18 -73.5t50.5 -55.5t75.5 -21z" />
    <glyph glyph-name="b" unicode="b" horiz-adv-x="616" 
d="M339 -13q-70 0 -108.5 27t-59.5 71v-85h-131v730h135v-290q21 41 59 66t105 25q54 0 100.5 -21.5t81.5 -59t55 -87t20 -105.5q0 -75 -34.5 -136.5t-92.5 -98t-130 -36.5zM317 109q43 0 75.5 21t50.5 55.5t18 73.5q0 41 -18 75t-50.5 54.5t-75.5 20.5q-44 0 -77 -21
t-51 -55t-18 -75q0 -40 18 -74t51 -54.5t77 -20.5z" />
    <glyph glyph-name="c" unicode="c" horiz-adv-x="524" 
d="M288 -13q-56 0 -104.5 21t-85.5 58.5t-57.5 87t-20.5 106.5q0 76 35.5 137.5t98 98.5t141.5 37q71 1 127 -25t89 -72l-104 -85q-18 27 -46.5 43t-63.5 16q-43 0 -75 -20.5t-49.5 -54.5t-17.5 -75q0 -40 18.5 -74.5t51 -55t75.5 -20.5q39 0 66 17.5t47 44.5l98 -85
q-37 -47 -91.5 -73.5t-131.5 -26.5z" />
    <glyph glyph-name="d" unicode="d" horiz-adv-x="616" 
d="M277 -13q-71 0 -129.5 36.5t-93 98t-34.5 136.5q0 56 20 105.5t55 87t81.5 59t100.5 21.5q67 0 105 -25t59 -66v290h135v-730h-131v85q-21 -44 -59.5 -71t-108.5 -27zM299 109q45 0 77.5 20.5t50.5 54.5t18 74q0 41 -18 75t-50.5 55t-77.5 21q-43 0 -75.5 -20.5
t-50.5 -54.5t-18 -75q0 -39 18 -73.5t50.5 -55.5t75.5 -21z" />
    <glyph glyph-name="e" unicode="e" horiz-adv-x="572" 
d="M289 -13q-80 0 -141 37t-94.5 98.5t-33.5 136.5t35 137.5t95.5 99.5t138.5 37t137.5 -37t93 -99.5t33.5 -137.5q0 -11 -1 -23t-3 -25h-389q11 -46 44.5 -75t84.5 -29q44 0 76.5 20t50.5 50l105 -79q-31 -49 -93 -80t-139 -31zM287 417q-48 0 -82 -29t-45 -76h257
q-11 43 -45.5 74t-84.5 31z" />
    <glyph glyph-name="f" unicode="f" horiz-adv-x="324" 
d="M78 0v405h-73v115h73v35q0 79 47 127t126 48h56v-115h-35q-59 0 -59 -62v-33h106v-115h-106v-405h-135z" />
    <glyph glyph-name="g" unicode="g" horiz-adv-x="604" 
d="M293 -213q-79 0 -140.5 21.5t-108.5 76.5l84 99q37 -42 77 -57t89 -15q36 0 67 18t49.5 50.5t18.5 73.5v23q-21 -36 -57.5 -58t-99.5 -22q-71 0 -128.5 36t-90.5 96.5t-33 135.5t33 136t90.5 96.5t128.5 35.5q65 0 101.5 -23t57.5 -61v71h133v-474q0 -80 -34.5 -138
t-95.5 -89.5t-141 -31.5zM294 120q67 0 104 42t37 103t-37 103t-104 42q-66 0 -102.5 -42t-36.5 -103q0 -39 16.5 -72t47.5 -53t75 -20z" />
    <glyph glyph-name="h" unicode="h" horiz-adv-x="565" 
d="M40 0v730h135v-282q42 84 157 84q56 0 101 -26t71 -74t26 -114v-318h-135v285q0 68 -31 98.5t-81 30.5q-43 0 -75.5 -30.5t-32.5 -98.5v-285h-135z" />
    <glyph glyph-name="i" unicode="i" horiz-adv-x="215" 
d="M107 563q-34 0 -57.5 23.5t-23.5 56.5q0 32 23.5 55.5t57.5 23.5q35 0 58 -23.5t23 -55.5q0 -34 -23 -57t-58 -23zM40 0v520h135v-520h-135z" />
    <glyph glyph-name="j" unicode="j" horiz-adv-x="215" 
d="M108 563q-34 0 -57.5 23.5t-23.5 56.5q0 32 23.5 55.5t57.5 23.5q35 0 58 -23.5t23 -55.5q0 -34 -23 -57t-58 -23zM-28 -200v120h26q42 0 42 48v552h135v-559q0 -85 -41 -123t-118 -38h-44z" />
    <glyph glyph-name="k" unicode="k" horiz-adv-x="558" 
d="M40 0v730h135v-420l195 210h192l-245 -242l246 -278h-179l-209 247v-247h-135z" />
    <glyph glyph-name="l" unicode="l" horiz-adv-x="215" 
d="M40 0v730h135v-730h-135z" />
    <glyph glyph-name="m" unicode="m" horiz-adv-x="910" 
d="M40 0v520h133v-76q41 88 159 88q55 0 99 -25.5t70 -72.5q26 47 66.5 72.5t109.5 25.5q56 0 101 -26t71 -74t26 -114v-318h-135v285q0 68 -29 98.5t-75 30.5q-47 0 -76.5 -27t-29.5 -102v-285h-135v285q0 68 -31 98.5t-81 30.5q-43 0 -75.5 -30.5t-32.5 -98.5v-285h-135z
" />
    <glyph glyph-name="n" unicode="n" horiz-adv-x="565" 
d="M40 0v520h133v-76q41 88 159 88q56 0 101 -26t71 -74t26 -114v-318h-135v285q0 68 -31 98.5t-81 30.5q-43 0 -75.5 -30.5t-32.5 -98.5v-285h-135z" />
    <glyph glyph-name="o" unicode="o" horiz-adv-x="594" 
d="M297 -13q-80 0 -143 37t-98.5 98.5t-35.5 136.5t35.5 137t98.5 99t143 37q81 0 143.5 -37t98 -99t35.5 -137t-35.5 -136.5t-98 -98.5t-143.5 -37zM297 110q43 0 75 20.5t49.5 54.5t17.5 74q0 41 -17.5 75t-49.5 54.5t-75 20.5t-75 -20.5t-49.5 -54.5t-17.5 -75
q0 -40 17.5 -74t49.5 -54.5t75 -20.5z" />
    <glyph glyph-name="p" unicode="p" horiz-adv-x="616" 
d="M40 -200v720h133v-84q21 43 59.5 69t106.5 26q54 0 100.5 -21.5t81.5 -59t55 -87t20 -105.5q0 -75 -34.5 -136.5t-92.5 -98t-130 -36.5q-67 0 -105 24.5t-59 65.5v-277h-135zM317 109q43 0 75.5 21t50.5 55.5t18 73.5q0 41 -18 75t-50.5 54.5t-75.5 20.5q-44 0 -77 -21
t-51 -55t-18 -75q0 -40 18 -74t51 -54.5t77 -20.5z" />
    <glyph glyph-name="q" unicode="q" horiz-adv-x="616" 
d="M441 -200v277q-21 -41 -59 -65.5t-105 -24.5q-71 0 -129.5 36.5t-93 98t-34.5 136.5q0 56 20 105.5t55 87t81.5 59t100.5 21.5q68 0 106.5 -26t59.5 -69v84h133v-720h-135zM299 109q45 0 77.5 20.5t50.5 54.5t18 74q0 41 -18 75t-50.5 55t-77.5 21q-43 0 -75.5 -20.5
t-50.5 -54.5t-18 -75q0 -39 18 -73.5t50.5 -55.5t75.5 -21z" />
    <glyph glyph-name="r" unicode="r" horiz-adv-x="337" 
d="M40 0v520h131v-99q13 56 53 85.5t108 25.5v-127h-19q-58 0 -98 -37t-40 -102v-266h-135z" />
    <glyph glyph-name="s" unicode="s" horiz-adv-x="433" 
d="M218 -13q-131 0 -216 91l91 83q57 -64 122 -64q35 0 53.5 15.5t18.5 38.5q0 14 -6.5 24t-27 19t-61.5 18q-70 17 -104 42t-45 56t-11 64q0 68 51.5 113.5t142.5 45.5q63 0 108 -19t85 -71l-98 -75q-19 30 -42.5 43t-49.5 13q-28 0 -46.5 -11t-18.5 -35q0 -13 12 -25.5
t58 -24.5q76 -19 116 -44.5t55 -57.5t15 -71q0 -48 -26.5 -86t-72 -60t-103.5 -22z" />
    <glyph glyph-name="t" unicode="t" horiz-adv-x="328" 
d="M237 0q-77 0 -118 38t-41 123v244h-73v115h73v105l135 14v-119h110v-115h-110v-237q0 -48 42 -48h56v-120h-74z" />
    <glyph glyph-name="u" unicode="u" horiz-adv-x="557" 
d="M233 -12q-56 0 -101 26t-71 74.5t-26 113.5v318h135v-285q0 -67 27 -98t77 -31q43 0 75.5 31t32.5 98v285h135v-520h-131v78q-19 -45 -55.5 -67.5t-97.5 -22.5z" />
    <glyph glyph-name="v" unicode="v" horiz-adv-x="539" 
d="M202 0l-217 520h160l104 -297q14 -40 22 -83q8 43 22 83l104 297h157l-216 -520h-136z" />
    <glyph glyph-name="w" unicode="w" horiz-adv-x="796" 
d="M149 0l-162 520h158l67 -295q4 -19 8.5 -39.5t7.5 -39.5q6 40 17 80l76 294h155l81 -294q11 -40 17 -80q3 19 7.5 39.5t8.5 39.5l72 295h147l-162 -520h-146l-85 296q-12 39 -18 78q-3 -19 -7 -39t-9 -39l-78 -296h-155z" />
    <glyph glyph-name="x" unicode="x" horiz-adv-x="535" 
d="M-10 0l195 260l-185 260h161l106 -165l110 165h158l-185 -262l195 -258h-164l-113 166l-117 -166h-161z" />
    <glyph glyph-name="y" unicode="y" horiz-adv-x="539" 
d="M93 -209q-20 0 -45 2t-45 8l20 129q28 -7 61 -7q39 0 64 22.5t36 56.5l7 22l-206 496h163l101 -297q14 -40 22 -83q8 43 22 83l101 297h160l-230 -553q-33 -79 -86 -127.5t-145 -48.5z" />
    <glyph glyph-name="z" unicode="z" horiz-adv-x="491" 
d="M14 0v15l228 361q9 15 24 32h-241v112h448v-15l-230 -367q-8 -12 -19 -26h244v-112h-454z" />
    <glyph glyph-name="braceleft" unicode="{" horiz-adv-x="365" 
d="M270 -200q-66 0 -102 43.5t-36 113.5v155q0 35 -10.5 53t-34 25t-62.5 10v130q60 5 83.5 21t23.5 67v155q0 70 36 113.5t102 43.5h75v-107h-19q-31 0 -48 -16.5t-17 -41.5v-151q0 -67 -33.5 -102t-82.5 -46q49 -12 82.5 -47t33.5 -102v-152q0 -25 17 -41.5t48 -16.5h19
v-107h-75z" />
    <glyph glyph-name="bar" unicode="|" horiz-adv-x="228" 
d="M50 -200v930h128v-930h-128z" />
    <glyph glyph-name="braceright" unicode="}" horiz-adv-x="365" 
d="M95 -200h-75v107h19q32 0 48.5 16.5t16.5 41.5v152q0 67 33.5 102t82.5 46q-49 12 -82.5 47t-33.5 102v151q0 25 -16.5 41.5t-48.5 16.5h-19v107h75q66 0 102 -43.5t36 -113.5v-155q0 -51 23.5 -67t83.5 -21v-130q-38 -3 -62 -10t-34.5 -25t-10.5 -53v-155
q0 -70 -36 -113.5t-102 -43.5z" />
    <glyph glyph-name="asciitilde" unicode="~" horiz-adv-x="542" 
d="M369 229q-45 0 -74.5 11t-53 22t-51.5 11q-40 0 -62 -43l-93 49q20 38 55 63.5t93 25.5q47 0 75.5 -11t49 -22t44.5 -11q41 0 62 43l93 -49q-20 -37 -54 -63t-84 -26z" />
    <glyph glyph-name="uni00A0" unicode="&#xa0;" horiz-adv-x="164" 
 />
    <glyph glyph-name="exclamdown" unicode="&#xa1;" horiz-adv-x="243" 
d="M121 534q39 0 64.5 -26t25.5 -62q0 -35 -25.5 -61t-64.5 -26t-64 26t-25 61q0 36 25 62t64 26zM166 328l23 -384v-123h-140v123l23 384h94z" />
    <glyph glyph-name="cent" unicode="&#xa2;" horiz-adv-x="488" 
d="M219 0v104q-58 14 -100.5 48.5t-66 83t-23.5 104.5t23.5 104.5t66 83t100.5 48.5v124h110v-121q45 -7 81.5 -29t65.5 -54l-92 -75q-18 20 -42 33.5t-58 13.5q-61 0 -94.5 -35.5t-33.5 -92.5t33.5 -92.5t94.5 -35.5q37 0 63 15t45 38l88 -76q-29 -34 -66.5 -57.5
t-84.5 -30.5v-101h-110z" />
    <glyph glyph-name="sterling" unicode="&#xa3;" 
d="M110 -10l-84 75l40 44q35 39 59 72.5t24 65.5q0 15 -3 28h-111v100h61q-21 27 -31 58.5t-10 65.5q0 52 27 101t80.5 81t130.5 32q125 0 192 -66.5t67 -176.5h-145q0 47 -28 80t-78 33q-46 0 -73.5 -29t-27.5 -68q0 -24 8 -51.5t27 -59.5h176v-100h-135q1 -11 1 -23
q0 -50 -27 -94q24 -2 50.5 -9.5t52.5 -14.5t47 -7q29 0 50 14.5t36 35.5l92 -98q-35 -48 -81.5 -66.5t-80.5 -18.5q-36 0 -61 7t-45 15.5t-41 15.5t-49 7q-34 0 -62.5 -11.5t-47.5 -37.5z" />
    <glyph glyph-name="currency" unicode="&#xa4;" 
d="M135 54l-88 81l65 70q-34 52 -34 117t34 118l-65 70l88 81l67 -74q45 21 98 21t98 -21l67 74l88 -81l-65 -70q34 -53 34 -118t-34 -117l65 -70l-88 -81l-67 73q-45 -20 -98 -20t-98 20zM300 221q45 0 72.5 29t27.5 72t-27.5 72.5t-72.5 29.5t-72.5 -29.5t-27.5 -72.5
t27.5 -72t72.5 -29z" />
    <glyph glyph-name="yen" unicode="&#xa5;" horiz-adv-x="585" 
d="M76 84v94h144v53h-144v97h123l-215 371h153l96 -180q16 -31 34.5 -66.5t27.5 -69.5q9 34 25.5 68.5t32.5 67.5l91 180h153l-214 -371h136v-97h-159v-53h159v-94h-159v-84h-140v84h-144z" />
    <glyph glyph-name="brokenbar" unicode="&#xa6;" horiz-adv-x="228" 
d="M50 337v393h128v-393h-128zM50 -200v437h127v-437h-127z" />
    <glyph glyph-name="section" unicode="&#xa7;" horiz-adv-x="473" 
d="M239 -109q-65 0 -119.5 28t-89.5 90l94 60q21 -42 53.5 -61t67.5 -19q38 0 60 17.5t22 45.5q0 27 -17.5 43t-45.5 26t-62 18q-63 17 -101.5 53.5t-38.5 100.5q0 44 20 78t56 52q-34 19 -53.5 47t-19.5 69q0 80 53.5 120.5t137.5 40.5q67 0 110.5 -27t73.5 -75l-93 -58
q-20 32 -41.5 47t-55.5 15q-29 0 -50 -15.5t-21 -39.5q0 -33 25.5 -47t60.5 -25q24 -8 54.5 -18.5t58.5 -28.5t46.5 -48.5t18.5 -78.5q0 -43 -18 -72.5t-50 -47.5q28 -16 46.5 -45.5t18.5 -76.5q0 -81 -56 -124.5t-145 -43.5zM270 239q28 0 44 15t16 40q0 28 -23 47t-56 19
q-34 0 -54.5 -16t-20.5 -42q0 -27 27 -45t67 -18z" />
    <glyph glyph-name="dieresis" unicode="&#xa8;" horiz-adv-x="530" 
d="M371 563q-34 0 -57.5 23.5t-23.5 56.5q0 32 23.5 55.5t57.5 23.5q35 0 58 -23.5t23 -55.5q0 -34 -23 -57t-58 -23zM159 563q-34 0 -57.5 23.5t-23.5 56.5q0 32 23.5 55.5t57.5 23.5q35 0 58 -23.5t23 -55.5q0 -34 -23 -57t-58 -23z" />
    <glyph glyph-name="copyright" unicode="&#xa9;" horiz-adv-x="841" 
d="M420 -75q-83 0 -156.5 31t-129.5 86.5t-87.5 128t-31.5 156.5q0 83 31.5 156t87.5 128t129.5 86t156.5 31q84 0 157.5 -31t129.5 -86t87.5 -128t31.5 -156q0 -84 -32 -156.5t-88 -128t-129.5 -86.5t-156.5 -31zM420 2q67 0 125 25.5t102.5 70t69.5 103.5t25 126
t-25 125.5t-69 103t-102.5 70t-125.5 25.5t-125 -25.5t-102 -70t-69 -103t-25 -125.5t25 -126t69 -103.5t102 -70t125 -25.5zM422 89q-76 0 -129.5 32.5t-81.5 87t-28 120.5t29 120.5t83.5 87t129.5 32.5q63 0 110 -21.5t78 -61.5l-92 -77q-16 24 -40 37.5t-54 13.5
q-57 0 -91 -39t-34 -92q0 -36 16 -66t45 -48t67 -18q35 0 58.5 16.5t41.5 40.5l89 -80q-35 -40 -83.5 -62.5t-113.5 -22.5z" />
    <glyph glyph-name="ordfeminine" unicode="&#xaa;" horiz-adv-x="454" 
d="M211 311q-53 0 -97 26.5t-69.5 72t-25.5 101.5t25.5 101.5t69.5 73t97 27.5q39 0 65.5 -14.5t44.5 -38.5v45h111v-385h-109v45q-17 -25 -44.5 -39.5t-67.5 -14.5zM236 414q42 0 68 28.5t26 68.5t-26 69t-68 29q-43 0 -68.5 -29t-25.5 -68t25.5 -68.5t68.5 -29.5zM37 157
v99h396v-99h-396z" />
    <glyph glyph-name="guillemotleft" unicode="&#xab;" horiz-adv-x="544" 
d="M383 48l-128 215l126 214h143l-132 -208l132 -221h-141zM158 48l-128 215l126 214h143l-132 -208l132 -221h-141z" />
    <glyph glyph-name="logicalnot" unicode="&#xac;" horiz-adv-x="542" 
d="M358 148v102h-293v110h413v-212h-120z" />
    <glyph glyph-name="registered" unicode="&#xae;" horiz-adv-x="535" 
d="M267 230q-68 0 -125 33.5t-91 90t-34 125.5t34 125.5t91 89.5t125 33q69 0 126 -33t91 -89.5t34 -125.5t-34 -125.5t-91 -90t-126 -33.5zM267 297q50 0 91 24.5t65 66t24 91.5t-24 91t-65 65.5t-91 24.5q-49 0 -90 -24.5t-65 -65.5t-24 -91t24 -91.5t65 -66t90 -24.5z
M171 350v259h104q44 0 69 -20t25 -58q0 -31 -16.5 -50t-45.5 -26l72 -105h-64l-56 82q-4 5 -5.5 10.5t-3.5 8.5h-24v-101h-55zM226 499h42q43 0 43 31t-43 31h-42v-62z" />
    <glyph glyph-name="macron" unicode="&#xaf;" 
d="M148 598v90h306v-90h-306z" />
    <glyph glyph-name="degree" unicode="&#xb0;" horiz-adv-x="363" 
d="M181 387q-48 0 -84.5 21.5t-57.5 57.5t-21 80q0 45 21 82t57.5 59t84.5 22t85 -22.5t58 -59.5t21 -81t-21 -80t-58 -57.5t-85 -21.5zM181 480q29 0 47 19t17 47q0 29 -17.5 49t-46.5 20q-28 0 -46 -20t-18 -49q0 -27 18 -46.5t46 -19.5z" />
    <glyph glyph-name="plusminus" unicode="&#xb1;" horiz-adv-x="542" 
d="M213 234v133h-168v110h168v133h116v-133h168v-110h-168v-133h-116zM45 81v110h452v-110h-452z" />
    <glyph glyph-name="acute" unicode="&#xb4;" horiz-adv-x="530" 
d="M228 566l44 174h138l-88 -174h-94z" />
    <glyph glyph-name="uni00B5" unicode="&#xb5;" horiz-adv-x="562" 
d="M40 -200v720h135v-285q0 -67 26.5 -98t76.5 -31q41 0 75 32t34 97v285h135v-520h-135v70q-20 -41 -56 -61.5t-93 -20.5q-18 0 -34 4.5t-29 14.5v-207h-135z" />
    <glyph glyph-name="paragraph" unicode="&#xb6;" horiz-adv-x="525" 
d="M255 0v318h-30q-100 0 -158 49t-58 143q0 95 58 142.5t158 47.5h250v-700h-75v600h-70v-600h-75z" />
    <glyph glyph-name="periodcentered" unicode="&#xb7;" horiz-adv-x="223" 
d="M112 257q-39 0 -64.5 26t-25.5 62q0 35 25.5 61t64.5 26t64 -26t25 -61q0 -36 -25 -62t-64 -26z" />
    <glyph glyph-name="cedilla" unicode="&#xb8;" 
d="M209 -213q-28 0 -46.5 5.5t-47.5 26.5l46 58q8 -7 18 -12t21 -5t21 6t10 22q0 11 -8 17t-17 6q-13 0 -22 -3l-4 3l42 95l60 4l-25 -53q27 -8 40 -30t13 -47q0 -47 -31.5 -70t-69.5 -23z" />
    <glyph glyph-name="ordmasculine" unicode="&#xba;" horiz-adv-x="450" 
d="M225 312q-60 0 -106.5 27t-73 72.5t-26.5 100.5q0 56 26.5 101.5t73 72.5t106.5 27t106.5 -27t73 -72.5t26.5 -101.5q0 -55 -26.5 -100.5t-73 -72.5t-106.5 -27zM225 416q41 0 66 28.5t25 67.5t-25 68t-66 29q-42 0 -67 -29t-25 -68t25 -67.5t67 -28.5zM37 157v99h376
v-99h-376z" />
    <glyph glyph-name="guillemotright" unicode="&#xbb;" horiz-adv-x="542" 
d="M161 477l128 -215l-126 -214h-143l132 208l-132 221h141zM384 477l128 -215l-126 -214h-143l132 208l-132 221h141z" />
    <glyph glyph-name="onequarter" unicode="&#xbc;" horiz-adv-x="723" 
d="M96 300v308h-73v23l73 69h108v-400h-108zM-12 0l617 700h130l-617 -700h-130zM577 0v97h-199v47l204 276h103v-235h38v-88h-38v-97h-108zM577 238q0 17 1 39.5t9 50.5l-106 -146h96v56z" />
    <glyph glyph-name="onehalf" unicode="&#xbd;" horiz-adv-x="745" 
d="M95 300v308h-73v23l73 69h108v-400h-108zM-12 0l617 700h130l-617 -700h-130zM447 -5v10l170 211q13 17 17 30t4 27q0 17 -10 28t-28 11q-44 0 -44 -48h-110q0 41 20.5 72t55.5 48.5t76 17.5t75 -17t54 -46t20 -64q0 -22 -7 -42.5t-25 -47.5l-28 -42q-9 -14 -23 -29
t-33 -30h126v-89h-310z" />
    <glyph glyph-name="threequarters" unicode="&#xbe;" horiz-adv-x="728" 
d="M150 294q-64 0 -108 33t-44 98h101q0 -26 14 -37.5t36 -11.5t34.5 12.5t12.5 29.5q0 26 -16 39.5t-39 13.5h-31v69h31q23 0 38 11t15 33q0 18 -12 31t-33 13q-20 0 -34 -11.5t-14 -34.5h-98q0 61 43 93.5t104 32.5q62 0 102 -33t40 -82q0 -34 -14 -53t-46 -28
q30 -12 47.5 -37t17.5 -67q0 -48 -41 -81t-106 -33zM-7 0l617 700h130l-617 -700h-130zM568 0v87h-199v47l204 266h103v-225h38v-88h-38v-87h-108zM568 209q0 18 1 41t10 52l-95 -130h84v37z" />
    <glyph glyph-name="questiondown" unicode="&#xbf;" horiz-adv-x="520" 
d="M276 535q39 0 64.5 -26t25.5 -62q0 -35 -25.5 -61t-64.5 -26t-64 26t-25 61q0 36 25 62t64 26zM321 329l20 -210q-18 9 -50 9q-58 0 -87 -31t-29 -75q0 -36 22 -64t66 -28q47 0 72.5 23t25.5 69h135q0 -100 -62.5 -156.5t-170.5 -56.5q-72 0 -122 28t-75.5 75t-25.5 104
q0 39 15.5 81.5t54 76.5t107.5 45l10 110h94z" />
    <glyph glyph-name="Agrave" unicode="&#xc0;" horiz-adv-x="654" 
d="M-19 0l286 700h121l285 -700h-152l-48 133h-292l-48 -133h-152zM302 445l-75 -191h200l-75 191q-15 40 -25 80q-10 -43 -25 -80zM284 746l-99 174h159l34 -174h-94z" />
    <glyph glyph-name="Aacute" unicode="&#xc1;" horiz-adv-x="654" 
d="M-19 0l286 700h121l285 -700h-152l-48 133h-292l-48 -133h-152zM302 445l-75 -191h200l-75 191q-15 40 -25 80q-10 -43 -25 -80zM278 746l44 174h138l-88 -174h-94z" />
    <glyph glyph-name="Acircumflex" unicode="&#xc2;" horiz-adv-x="654" 
d="M-19 0l286 700h121l285 -700h-152l-48 133h-292l-48 -133h-152zM302 445l-75 -191h200l-75 191q-15 40 -25 80q-10 -43 -25 -80zM172 746l101 174h109l98 -174h-117l-36 80l-36 -80h-119z" />
    <glyph glyph-name="Atilde" unicode="&#xc3;" horiz-adv-x="654" 
d="M-19 0l286 700h121l285 -700h-152l-48 133h-292l-48 -133h-152zM302 445l-75 -191h200l-75 191q-15 40 -25 80q-10 -43 -25 -80zM408 737q-30 0 -50.5 9.5t-35.5 22.5t-30 22.5t-35 9.5q-27 0 -36.5 -17t-9.5 -33h-86q0 47 19.5 78t50 46.5t63.5 15.5q30 0 51.5 -9.5
t38 -21.5t30.5 -21.5t29 -9.5q23 0 29 18.5t6 32.5h87q0 -64 -30 -103.5t-91 -39.5z" />
    <glyph glyph-name="Adieresis" unicode="&#xc4;" horiz-adv-x="654" 
d="M-19 0l286 700h121l285 -700h-152l-48 133h-292l-48 -133h-152zM302 445l-75 -191h200l-75 191q-15 40 -25 80q-10 -43 -25 -80zM433 743q-34 0 -57.5 23.5t-23.5 56.5q0 32 23.5 55.5t57.5 23.5q35 0 58 -23.5t23 -55.5q0 -34 -23 -57t-58 -23zM221 743
q-34 0 -57.5 23.5t-23.5 56.5q0 32 23.5 55.5t57.5 23.5q35 0 58 -23.5t23 -55.5q0 -34 -23 -57t-58 -23z" />
    <glyph glyph-name="Aring" unicode="&#xc5;" horiz-adv-x="654" 
d="M-19 0l286 700h121l285 -700h-152l-48 133h-292l-48 -133h-152zM302 445l-75 -191h200l-75 191q-15 40 -25 80q-10 -43 -25 -80zM327 737q-43 0 -75 31t-32 74q0 44 32 74.5t75 30.5q44 0 75.5 -30.5t31.5 -74.5q0 -43 -31.5 -74t-75.5 -31zM327 804q15 0 25.5 11.5
t10.5 26.5t-10.5 26t-25.5 11t-26.5 -11t-11.5 -26t11.5 -26.5t26.5 -11.5z" />
    <glyph glyph-name="AE" unicode="&#xc6;" horiz-adv-x="971" 
d="M-30 0l472 700h488v-126h-270v-157h265v-122h-265v-169h272v-126h-412v139h-301l-87 -139h-162zM416 445l-132 -196h236v323h-24q-15 -32 -38 -65t-42 -62z" />
    <glyph glyph-name="Ccedilla" unicode="&#xc7;" horiz-adv-x="662" 
d="M390 -13q-78 0 -144.5 28t-116 78t-77 115.5t-27.5 140.5t26.5 141t75 116t115.5 78.5t148 28.5q86 0 147.5 -27t108.5 -83l-99 -86q-63 66 -157 66q-67 0 -116.5 -32t-76.5 -85t-27 -117t27 -116.5t77 -84t119 -31.5q51 0 90 17t70 51l102 -87q-40 -48 -106.5 -79.5
t-158.5 -31.5zM370 -213q-28 0 -46.5 5.5t-47.5 26.5l46 58q8 -7 18 -12t21 -5t21 6t10 22q0 11 -8 17t-17 6q-13 0 -22 -3l-4 3l42 95l60 4l-25 -53q27 -8 40 -30t13 -47q0 -47 -31.5 -70t-69.5 -23z" />
    <glyph glyph-name="Egrave" unicode="&#xc8;" horiz-adv-x="501" 
d="M50 0v700h410v-126h-270v-157h265v-122h-265v-169h272v-126h-412zM217 746l-99 174h159l34 -174h-94z" />
    <glyph glyph-name="Eacute" unicode="&#xc9;" horiz-adv-x="501" 
d="M50 0v700h410v-126h-270v-157h265v-122h-265v-169h272v-126h-412zM211 746l44 174h138l-88 -174h-94z" />
    <glyph glyph-name="Ecircumflex" unicode="&#xca;" horiz-adv-x="501" 
d="M50 0v700h410v-126h-270v-157h265v-122h-265v-169h272v-126h-412zM105 746l101 174h109l98 -174h-117l-36 80l-36 -80h-119z" />
    <glyph glyph-name="Edieresis" unicode="&#xcb;" horiz-adv-x="501" 
d="M50 0v700h410v-126h-270v-157h265v-122h-265v-169h272v-126h-412zM366 743q-34 0 -57.5 23.5t-23.5 56.5q0 32 23.5 55.5t57.5 23.5q35 0 58 -23.5t23 -55.5q0 -34 -23 -57t-58 -23zM154 743q-34 0 -57.5 23.5t-23.5 56.5q0 32 23.5 55.5t57.5 23.5q35 0 58 -23.5
t23 -55.5q0 -34 -23 -57t-58 -23z" />
    <glyph glyph-name="Igrave" unicode="&#xcc;" horiz-adv-x="240" 
d="M50 0v700h140v-700h-140zM77 746l-99 174h159l34 -174h-94z" />
    <glyph glyph-name="Iacute" unicode="&#xcd;" horiz-adv-x="240" 
d="M50 0v700h140v-700h-140zM71 746l44 174h138l-88 -174h-94z" />
    <glyph glyph-name="Icircumflex" unicode="&#xce;" horiz-adv-x="240" 
d="M50 0v700h140v-700h-140zM-35 746l101 174h109l98 -174h-117l-36 80l-36 -80h-119z" />
    <glyph glyph-name="Idieresis" unicode="&#xcf;" horiz-adv-x="240" 
d="M50 0v700h140v-700h-140zM226 743q-34 0 -57.5 23.5t-23.5 56.5q0 32 23.5 55.5t57.5 23.5q35 0 58 -23.5t23 -55.5q0 -34 -23 -57t-58 -23zM14 743q-34 0 -57.5 23.5t-23.5 56.5q0 32 23.5 55.5t57.5 23.5q35 0 58 -23.5t23 -55.5q0 -34 -23 -57t-58 -23z" />
    <glyph glyph-name="Eth" unicode="&#xd0;" horiz-adv-x="732" 
d="M98 0v700h250q121 0 200.5 -46t119 -125t39.5 -180q0 -100 -39.5 -179t-119 -124.5t-200.5 -45.5h-250zM331 574h-93v-448h93q83 0 134 29.5t74 80t23 113.5q0 64 -23 114.5t-74 80.5t-134 30zM4 291v118h379v-118h-379z" />
    <glyph glyph-name="Ntilde" unicode="&#xd1;" horiz-adv-x="716" 
d="M50 0v700h106l341 -405q12 -14 23.5 -28.5t22.5 -29.5q-3 22 -4 52.5t-1 61.5v349h128v-700h-91l-354 421q-12 14 -23.5 28.5t-22.5 29.5q3 -22 4 -52.5t1 -61.5v-365h-130zM457 737q-30 0 -50.5 9.5t-35.5 22.5t-30 22.5t-35 9.5q-27 0 -36.5 -17t-9.5 -33h-86
q0 47 19.5 78t50 46.5t63.5 15.5q30 0 51.5 -9.5t38 -21.5t30.5 -21.5t29 -9.5q23 0 29 18.5t6 32.5h87q0 -64 -30 -103.5t-91 -39.5z" />
    <glyph glyph-name="Ograve" unicode="&#xd2;" horiz-adv-x="778" 
d="M390 -13q-78 0 -144.5 28t-116 78t-77 115.5t-27.5 140.5t27.5 141t77 116t116 78.5t144.5 28.5t144 -28.5t115 -78.5t76.5 -116t27.5 -141t-27.5 -140.5t-76.5 -115.5t-115 -78t-144 -28zM390 117q68 0 116.5 31.5t75 84.5t26.5 116q0 64 -26.5 117t-75 85t-116.5 32
t-117.5 -32t-76 -85t-26.5 -117q0 -63 26.5 -116t76 -84.5t117.5 -31.5zM347 746l-99 174h159l34 -174h-94z" />
    <glyph glyph-name="Oacute" unicode="&#xd3;" horiz-adv-x="778" 
d="M390 -13q-78 0 -144.5 28t-116 78t-77 115.5t-27.5 140.5t27.5 141t77 116t116 78.5t144.5 28.5t144 -28.5t115 -78.5t76.5 -116t27.5 -141t-27.5 -140.5t-76.5 -115.5t-115 -78t-144 -28zM390 117q68 0 116.5 31.5t75 84.5t26.5 116q0 64 -26.5 117t-75 85t-116.5 32
t-117.5 -32t-76 -85t-26.5 -117q0 -63 26.5 -116t76 -84.5t117.5 -31.5zM341 746l44 174h138l-88 -174h-94z" />
    <glyph glyph-name="Ocircumflex" unicode="&#xd4;" horiz-adv-x="778" 
d="M390 -13q-78 0 -144.5 28t-116 78t-77 115.5t-27.5 140.5t27.5 141t77 116t116 78.5t144.5 28.5t144 -28.5t115 -78.5t76.5 -116t27.5 -141t-27.5 -140.5t-76.5 -115.5t-115 -78t-144 -28zM390 117q68 0 116.5 31.5t75 84.5t26.5 116q0 64 -26.5 117t-75 85t-116.5 32
t-117.5 -32t-76 -85t-26.5 -117q0 -63 26.5 -116t76 -84.5t117.5 -31.5zM235 746l101 174h109l98 -174h-117l-36 80l-36 -80h-119z" />
    <glyph glyph-name="Otilde" unicode="&#xd5;" horiz-adv-x="778" 
d="M390 -13q-78 0 -144.5 28t-116 78t-77 115.5t-27.5 140.5t27.5 141t77 116t116 78.5t144.5 28.5t144 -28.5t115 -78.5t76.5 -116t27.5 -141t-27.5 -140.5t-76.5 -115.5t-115 -78t-144 -28zM390 117q68 0 116.5 31.5t75 84.5t26.5 116q0 64 -26.5 117t-75 85t-116.5 32
t-117.5 -32t-76 -85t-26.5 -117q0 -63 26.5 -116t76 -84.5t117.5 -31.5zM471 737q-30 0 -50.5 9.5t-35.5 22.5t-30 22.5t-35 9.5q-27 0 -36.5 -17t-9.5 -33h-86q0 47 19.5 78t50 46.5t63.5 15.5q30 0 51.5 -9.5t38 -21.5t30.5 -21.5t29 -9.5q23 0 29 18.5t6 32.5h87
q0 -64 -30 -103.5t-91 -39.5z" />
    <glyph glyph-name="Odieresis" unicode="&#xd6;" horiz-adv-x="778" 
d="M390 -13q-78 0 -144.5 28t-116 78t-77 115.5t-27.5 140.5t27.5 141t77 116t116 78.5t144.5 28.5t144 -28.5t115 -78.5t76.5 -116t27.5 -141t-27.5 -140.5t-76.5 -115.5t-115 -78t-144 -28zM390 117q68 0 116.5 31.5t75 84.5t26.5 116q0 64 -26.5 117t-75 85t-116.5 32
t-117.5 -32t-76 -85t-26.5 -117q0 -63 26.5 -116t76 -84.5t117.5 -31.5zM496 743q-34 0 -57.5 23.5t-23.5 56.5q0 32 23.5 55.5t57.5 23.5q35 0 58 -23.5t23 -55.5q0 -34 -23 -57t-58 -23zM284 743q-34 0 -57.5 23.5t-23.5 56.5q0 32 23.5 55.5t57.5 23.5q35 0 58 -23.5
t23 -55.5q0 -34 -23 -57t-58 -23z" />
    <glyph glyph-name="multiply" unicode="&#xd7;" horiz-adv-x="542" 
d="M140 72l-75 77l130 131l-131 130l77 76l130 -130l130 131l75 -77l-129 -130l131 -131l-77 -75l-130 130z" />
    <glyph glyph-name="Oslash" unicode="&#xd8;" horiz-adv-x="778" 
d="M390 -13q-78 0 -144.5 28t-116 78t-77 115.5t-27.5 140.5t27.5 141t77 116t116 78.5t144.5 28.5t144 -28.5t115 -78.5t76.5 -116t27.5 -141t-27.5 -140.5t-76.5 -115.5t-115 -78t-144 -28zM390 117q68 0 116.5 31.5t75 84.5t26.5 116q0 64 -26.5 117t-75 85t-116.5 32
t-117.5 -32t-76 -85t-26.5 -117q0 -63 26.5 -116t76 -84.5t117.5 -31.5zM39 -40l611 788h82l-611 -788h-82z" />
    <glyph glyph-name="Ugrave" unicode="&#xd9;" horiz-adv-x="646" 
d="M323 -13q-85 0 -149 34.5t-99 96t-35 141.5v441h140v-426q0 -74 35.5 -116.5t107.5 -42.5t107.5 42.5t35.5 116.5v426h140v-441q0 -80 -35 -141.5t-98.5 -96t-149.5 -34.5zM280 730l-99 174h159l34 -174h-94z" />
    <glyph glyph-name="Uacute" unicode="&#xda;" horiz-adv-x="646" 
d="M323 -13q-85 0 -149 34.5t-99 96t-35 141.5v441h140v-426q0 -74 35.5 -116.5t107.5 -42.5t107.5 42.5t35.5 116.5v426h140v-441q0 -80 -35 -141.5t-98.5 -96t-149.5 -34.5zM274 730l44 174h138l-88 -174h-94z" />
    <glyph glyph-name="Ucircumflex" unicode="&#xdb;" horiz-adv-x="646" 
d="M323 -13q-85 0 -149 34.5t-99 96t-35 141.5v441h140v-426q0 -74 35.5 -116.5t107.5 -42.5t107.5 42.5t35.5 116.5v426h140v-441q0 -80 -35 -141.5t-98.5 -96t-149.5 -34.5zM168 730l101 174h109l98 -174h-117l-36 80l-36 -80h-119z" />
    <glyph glyph-name="Udieresis" unicode="&#xdc;" horiz-adv-x="646" 
d="M323 -13q-85 0 -149 34.5t-99 96t-35 141.5v441h140v-426q0 -74 35.5 -116.5t107.5 -42.5t107.5 42.5t35.5 116.5v426h140v-441q0 -80 -35 -141.5t-98.5 -96t-149.5 -34.5zM429 727q-34 0 -57.5 23.5t-23.5 56.5q0 32 23.5 55.5t57.5 23.5q35 0 58 -23.5t23 -55.5
q0 -34 -23 -57t-58 -23zM217 727q-34 0 -57.5 23.5t-23.5 56.5q0 32 23.5 55.5t57.5 23.5q35 0 58 -23.5t23 -55.5q0 -34 -23 -57t-58 -23z" />
    <glyph glyph-name="Yacute" unicode="&#xdd;" horiz-adv-x="566" 
d="M211 0v281l-237 419h154l110 -201q13 -24 26.5 -50t20.5 -52q7 26 19.5 51.5t25.5 50.5l105 201h153l-237 -422v-278h-140zM234 746l44 174h138l-88 -174h-94z" />
    <glyph glyph-name="Thorn" unicode="&#xde;" horiz-adv-x="553" 
d="M50 0v700h138v-118h99q118 0 185.5 -60t67.5 -170q0 -111 -67.5 -172t-185.5 -61h-97v-119h-140zM190 245h89q57 0 88 26t31 80q0 53 -31 79t-88 26h-89v-211z" />
    <glyph glyph-name="germandbls" unicode="&#xdf;" horiz-adv-x="568" 
d="M317 -13q-43 0 -74 7t-54 20l51 116q14 -9 32.5 -15.5t40.5 -6.5q23 0 46.5 11t39 35t15.5 61q0 33 -17 62t-54.5 44.5t-100.5 5.5v108q45 0 78 22t33 77q0 36 -25 61t-64 25q-40 0 -67 -26.5t-27 -79.5v-514h-135v514q0 64 28.5 115.5t81 82.5t123.5 31q67 0 116 -27.5
t76 -72t27 -94.5q0 -34 -16 -74.5t-59 -70.5q48 -19 78.5 -50.5t44 -68.5t13.5 -73q0 -56 -26.5 -107.5t-78 -84.5t-126.5 -33z" />
    <glyph glyph-name="agrave" unicode="&#xe0;" horiz-adv-x="616" 
d="M277 -13q-71 0 -129.5 36.5t-93 98t-34.5 136.5q0 56 20 105.5t55 87t81.5 59t100.5 21.5q68 0 106 -25.5t59 -67.5v82h134v-520h-131v85q-21 -44 -59.5 -71t-108.5 -27zM299 109q45 0 77.5 20.5t50.5 54.5t18 74q0 41 -18 75t-50.5 55t-77.5 21q-43 0 -75.5 -20.5
t-50.5 -54.5t-18 -75q0 -39 18 -73.5t50.5 -55.5t75.5 -21zM263 566l-99 174h159l34 -174h-94z" />
    <glyph glyph-name="aacute" unicode="&#xe1;" horiz-adv-x="616" 
d="M277 -13q-71 0 -129.5 36.5t-93 98t-34.5 136.5q0 56 20 105.5t55 87t81.5 59t100.5 21.5q68 0 106 -25.5t59 -67.5v82h134v-520h-131v85q-21 -44 -59.5 -71t-108.5 -27zM299 109q45 0 77.5 20.5t50.5 54.5t18 74q0 41 -18 75t-50.5 55t-77.5 21q-43 0 -75.5 -20.5
t-50.5 -54.5t-18 -75q0 -39 18 -73.5t50.5 -55.5t75.5 -21zM257 566l44 174h138l-88 -174h-94z" />
    <glyph glyph-name="acircumflex" unicode="&#xe2;" horiz-adv-x="616" 
d="M277 -13q-71 0 -129.5 36.5t-93 98t-34.5 136.5q0 56 20 105.5t55 87t81.5 59t100.5 21.5q68 0 106 -25.5t59 -67.5v82h134v-520h-131v85q-21 -44 -59.5 -71t-108.5 -27zM299 109q45 0 77.5 20.5t50.5 54.5t18 74q0 41 -18 75t-50.5 55t-77.5 21q-43 0 -75.5 -20.5
t-50.5 -54.5t-18 -75q0 -39 18 -73.5t50.5 -55.5t75.5 -21zM151 566l101 174h109l98 -174h-117l-36 80l-36 -80h-119z" />
    <glyph glyph-name="atilde" unicode="&#xe3;" horiz-adv-x="616" 
d="M277 -13q-71 0 -129.5 36.5t-93 98t-34.5 136.5q0 56 20 105.5t55 87t81.5 59t100.5 21.5q68 0 106 -25.5t59 -67.5v82h134v-520h-131v85q-21 -44 -59.5 -71t-108.5 -27zM299 109q45 0 77.5 20.5t50.5 54.5t18 74q0 41 -18 75t-50.5 55t-77.5 21q-43 0 -75.5 -20.5
t-50.5 -54.5t-18 -75q0 -39 18 -73.5t50.5 -55.5t75.5 -21zM387 557q-30 0 -50.5 9.5t-35.5 22.5t-30 22.5t-35 9.5q-27 0 -36.5 -17t-9.5 -33h-86q0 47 19.5 78t50 46.5t63.5 15.5q30 0 51.5 -9.5t38 -21.5t30.5 -21.5t29 -9.5q23 0 29 18.5t6 32.5h87q0 -64 -30 -103.5
t-91 -39.5z" />
    <glyph glyph-name="adieresis" unicode="&#xe4;" horiz-adv-x="616" 
d="M277 -13q-71 0 -129.5 36.5t-93 98t-34.5 136.5q0 56 20 105.5t55 87t81.5 59t100.5 21.5q68 0 106 -25.5t59 -67.5v82h134v-520h-131v85q-21 -44 -59.5 -71t-108.5 -27zM299 109q45 0 77.5 20.5t50.5 54.5t18 74q0 41 -18 75t-50.5 55t-77.5 21q-43 0 -75.5 -20.5
t-50.5 -54.5t-18 -75q0 -39 18 -73.5t50.5 -55.5t75.5 -21zM412 563q-34 0 -57.5 23.5t-23.5 56.5q0 32 23.5 55.5t57.5 23.5q35 0 58 -23.5t23 -55.5q0 -34 -23 -57t-58 -23zM200 563q-34 0 -57.5 23.5t-23.5 56.5q0 32 23.5 55.5t57.5 23.5q35 0 58 -23.5t23 -55.5
q0 -34 -23 -57t-58 -23z" />
    <glyph glyph-name="aring" unicode="&#xe5;" horiz-adv-x="616" 
d="M277 -13q-71 0 -129.5 36.5t-93 98t-34.5 136.5q0 56 20 105.5t55 87t81.5 59t100.5 21.5q68 0 106 -25.5t59 -67.5v82h134v-520h-131v85q-21 -44 -59.5 -71t-108.5 -27zM299 109q45 0 77.5 20.5t50.5 54.5t18 74q0 41 -18 75t-50.5 55t-77.5 21q-43 0 -75.5 -20.5
t-50.5 -54.5t-18 -75q0 -39 18 -73.5t50.5 -55.5t75.5 -21zM306 557q-43 0 -75 31t-32 74q0 44 32 74.5t75 30.5q44 0 75.5 -30.5t31.5 -74.5q0 -43 -31.5 -74t-75.5 -31zM306 624q15 0 25.5 11.5t10.5 26.5t-10.5 26t-25.5 11t-26.5 -11t-11.5 -26t11.5 -26.5t26.5 -11.5z
" />
    <glyph glyph-name="ae" unicode="&#xe6;" horiz-adv-x="1031" 
d="M277 -13q-71 0 -129.5 36.5t-93 98t-34.5 136.5q0 56 20 105.5t55 87t81.5 59t100.5 21.5q55 0 96.5 -17.5t67.5 -47.5v54h135v-59q27 32 71.5 51.5t105.5 19.5q76 0 134 -37t91.5 -99t33.5 -137q0 -11 -1 -23.5t-3 -25.5h-396q11 -45 43.5 -72.5t87.5 -27.5
q47 0 80.5 18.5t49.5 48.5l107 -79q-31 -49 -92 -79.5t-135 -30.5q-61 0 -105.5 19t-71.5 51v-58h-131v56q-26 -32 -68.5 -50.5t-99.5 -18.5zM741 417q-49 0 -83.5 -26.5t-47.5 -70.5h264q-13 40 -48 68.5t-85 28.5zM299 109q45 0 77.5 20.5t50.5 54.5t18 74q0 41 -18 75
t-50.5 55t-77.5 21q-43 0 -75 -20.5t-49.5 -54.5t-17.5 -75q0 -39 17.5 -73.5t49.5 -55.5t75 -21z" />
    <glyph glyph-name="ccedilla" unicode="&#xe7;" horiz-adv-x="524" 
d="M288 -13q-56 0 -104.5 21t-85.5 58.5t-57.5 87t-20.5 106.5q0 76 35.5 137.5t98 98.5t141.5 37q71 1 127 -25t89 -72l-104 -85q-18 27 -46.5 43t-63.5 16q-43 0 -75 -20.5t-49.5 -54.5t-17.5 -75q0 -40 18.5 -74.5t51 -55t75.5 -20.5q39 0 66 17.5t47 44.5l98 -85
q-37 -47 -91.5 -73.5t-131.5 -26.5zM279 -213q-28 0 -46.5 5.5t-47.5 26.5l46 58q8 -7 18 -12t21 -5t21 6t10 22q0 11 -8 17t-17 6q-13 0 -22 -3l-4 3l42 95l60 4l-25 -53q27 -8 40 -30t13 -47q0 -47 -31.5 -70t-69.5 -23z" />
    <glyph glyph-name="egrave" unicode="&#xe8;" horiz-adv-x="572" 
d="M289 -13q-80 0 -141 37t-94.5 98.5t-33.5 136.5t35 137.5t95.5 99.5t138.5 37t137.5 -37t93 -99.5t33.5 -137.5q0 -11 -1 -23t-3 -25h-389q11 -46 44.5 -75t84.5 -29q44 0 76.5 20t50.5 50l105 -79q-31 -49 -93 -80t-139 -31zM287 417q-48 0 -82 -29t-45 -76h257
q-11 43 -45.5 74t-84.5 31zM243 566l-99 174h159l34 -174h-94z" />
    <glyph glyph-name="eacute" unicode="&#xe9;" horiz-adv-x="572" 
d="M289 -13q-80 0 -141 37t-94.5 98.5t-33.5 136.5t35 137.5t95.5 99.5t138.5 37t137.5 -37t93 -99.5t33.5 -137.5q0 -11 -1 -23t-3 -25h-389q11 -46 44.5 -75t84.5 -29q44 0 76.5 20t50.5 50l105 -79q-31 -49 -93 -80t-139 -31zM287 417q-48 0 -82 -29t-45 -76h257
q-11 43 -45.5 74t-84.5 31zM237 566l44 174h138l-88 -174h-94z" />
    <glyph glyph-name="ecircumflex" unicode="&#xea;" horiz-adv-x="572" 
d="M289 -13q-80 0 -141 37t-94.5 98.5t-33.5 136.5t35 137.5t95.5 99.5t138.5 37t137.5 -37t93 -99.5t33.5 -137.5q0 -11 -1 -23t-3 -25h-389q11 -46 44.5 -75t84.5 -29q44 0 76.5 20t50.5 50l105 -79q-31 -49 -93 -80t-139 -31zM287 417q-48 0 -82 -29t-45 -76h257
q-11 43 -45.5 74t-84.5 31zM131 566l101 174h109l98 -174h-117l-36 80l-36 -80h-119z" />
    <glyph glyph-name="edieresis" unicode="&#xeb;" horiz-adv-x="572" 
d="M289 -13q-80 0 -141 37t-94.5 98.5t-33.5 136.5t35 137.5t95.5 99.5t138.5 37t137.5 -37t93 -99.5t33.5 -137.5q0 -11 -1 -23t-3 -25h-389q11 -46 44.5 -75t84.5 -29q44 0 76.5 20t50.5 50l105 -79q-31 -49 -93 -80t-139 -31zM287 417q-48 0 -82 -29t-45 -76h257
q-11 43 -45.5 74t-84.5 31zM392 563q-34 0 -57.5 23.5t-23.5 56.5q0 32 23.5 55.5t57.5 23.5q35 0 58 -23.5t23 -55.5q0 -34 -23 -57t-58 -23zM180 563q-34 0 -57.5 23.5t-23.5 56.5q0 32 23.5 55.5t57.5 23.5q35 0 58 -23.5t23 -55.5q0 -34 -23 -57t-58 -23z" />
    <glyph glyph-name="igrave" unicode="&#xec;" horiz-adv-x="215" 
d="M40 0v520h135v-520h-135zM63 566l-99 174h159l34 -174h-94z" />
    <glyph glyph-name="iacute" unicode="&#xed;" horiz-adv-x="215" 
d="M40 0v520h135v-520h-135zM57 566l44 174h138l-88 -174h-94z" />
    <glyph glyph-name="icircumflex" unicode="&#xee;" horiz-adv-x="215" 
d="M40 0v520h135v-520h-135zM-49 566l101 174h109l98 -174h-117l-36 80l-36 -80h-119z" />
    <glyph glyph-name="idieresis" unicode="&#xef;" horiz-adv-x="215" 
d="M197 563q-34 0 -57.5 23.5t-23.5 56.5q0 32 23.5 55.5t57.5 23.5q35 0 58 -23.5t23 -55.5q0 -34 -23 -57t-58 -23zM15 563q-34 0 -57.5 23.5t-23.5 56.5q0 32 23.5 55.5t57.5 23.5q35 0 58 -23.5t23 -55.5q0 -34 -23 -57t-58 -23zM40 0v520h135v-520h-135z" />
    <glyph glyph-name="eth" unicode="&#xf0;" horiz-adv-x="560" 
d="M283 -13q-77 0 -136.5 34.5t-93 92t-33.5 127.5q0 57 20.5 101.5t53.5 74.5t72.5 46t77.5 16q32 0 55.5 -8t40.5 -22q-14 17 -29 30.5t-31 29.5l-45 45l-47 -41l-58 65l44 38l-41 41l111 86l33 -37l46 40l57 -65l-47 -41l83 -95q49 -56 86.5 -126.5t37.5 -155.5
q0 -87 -33 -149t-91 -94.5t-133 -32.5zM283 114q59 0 92.5 37.5t33.5 89.5q0 53 -34 90.5t-92 37.5t-92 -37.5t-34 -90.5q0 -34 15.5 -63t43.5 -46.5t67 -17.5z" />
    <glyph glyph-name="ntilde" unicode="&#xf1;" horiz-adv-x="565" 
d="M40 0v520h133v-76q41 88 159 88q56 0 101 -26t71 -74t26 -114v-318h-135v285q0 68 -31 98.5t-81 30.5q-43 0 -75.5 -30.5t-32.5 -98.5v-285h-135zM377 562q-30 0 -50.5 9.5t-35.5 22.5t-30 22.5t-35 9.5q-27 0 -36.5 -17t-9.5 -33h-86q0 47 19.5 78t50 46.5t63.5 15.5
q30 0 51.5 -9.5t38 -21.5t30.5 -21.5t29 -9.5q23 0 29 18.5t6 32.5h87q0 -64 -30 -103.5t-91 -39.5z" />
    <glyph glyph-name="ograve" unicode="&#xf2;" horiz-adv-x="594" 
d="M297 -13q-80 0 -143 37t-98.5 98.5t-35.5 136.5t35.5 137t98.5 99t143 37q81 0 143.5 -37t98 -99t35.5 -137t-35.5 -136.5t-98 -98.5t-143.5 -37zM297 110q43 0 75 20.5t49.5 54.5t17.5 74q0 41 -17.5 75t-49.5 54.5t-75 20.5t-75 -20.5t-49.5 -54.5t-17.5 -75
q0 -40 17.5 -74t49.5 -54.5t75 -20.5zM254 566l-99 174h159l34 -174h-94z" />
    <glyph glyph-name="oacute" unicode="&#xf3;" horiz-adv-x="594" 
d="M297 -13q-80 0 -143 37t-98.5 98.5t-35.5 136.5t35.5 137t98.5 99t143 37q81 0 143.5 -37t98 -99t35.5 -137t-35.5 -136.5t-98 -98.5t-143.5 -37zM297 110q43 0 75 20.5t49.5 54.5t17.5 74q0 41 -17.5 75t-49.5 54.5t-75 20.5t-75 -20.5t-49.5 -54.5t-17.5 -75
q0 -40 17.5 -74t49.5 -54.5t75 -20.5zM248 566l44 174h138l-88 -174h-94z" />
    <glyph glyph-name="ocircumflex" unicode="&#xf4;" horiz-adv-x="594" 
d="M297 -13q-80 0 -143 37t-98.5 98.5t-35.5 136.5t35.5 137t98.5 99t143 37q81 0 143.5 -37t98 -99t35.5 -137t-35.5 -136.5t-98 -98.5t-143.5 -37zM297 110q43 0 75 20.5t49.5 54.5t17.5 74q0 41 -17.5 75t-49.5 54.5t-75 20.5t-75 -20.5t-49.5 -54.5t-17.5 -75
q0 -40 17.5 -74t49.5 -54.5t75 -20.5zM142 566l101 174h109l98 -174h-117l-36 80l-36 -80h-119z" />
    <glyph glyph-name="otilde" unicode="&#xf5;" horiz-adv-x="594" 
d="M297 -13q-80 0 -143 37t-98.5 98.5t-35.5 136.5t35.5 137t98.5 99t143 37q81 0 143.5 -37t98 -99t35.5 -137t-35.5 -136.5t-98 -98.5t-143.5 -37zM297 110q43 0 75 20.5t49.5 54.5t17.5 74q0 41 -17.5 75t-49.5 54.5t-75 20.5t-75 -20.5t-49.5 -54.5t-17.5 -75
q0 -40 17.5 -74t49.5 -54.5t75 -20.5zM378 557q-30 0 -50.5 9.5t-35.5 22.5t-30 22.5t-35 9.5q-27 0 -36.5 -17t-9.5 -33h-86q0 47 19.5 78t50 46.5t63.5 15.5q30 0 51.5 -9.5t38 -21.5t30.5 -21.5t29 -9.5q23 0 29 18.5t6 32.5h87q0 -64 -30 -103.5t-91 -39.5z" />
    <glyph glyph-name="odieresis" unicode="&#xf6;" horiz-adv-x="594" 
d="M297 -13q-80 0 -143 37t-98.5 98.5t-35.5 136.5t35.5 137t98.5 99t143 37q81 0 143.5 -37t98 -99t35.5 -137t-35.5 -136.5t-98 -98.5t-143.5 -37zM297 110q43 0 75 20.5t49.5 54.5t17.5 74q0 41 -17.5 75t-49.5 54.5t-75 20.5t-75 -20.5t-49.5 -54.5t-17.5 -75
q0 -40 17.5 -74t49.5 -54.5t75 -20.5zM403 563q-34 0 -57.5 23.5t-23.5 56.5q0 32 23.5 55.5t57.5 23.5q35 0 58 -23.5t23 -55.5q0 -34 -23 -57t-58 -23zM191 563q-34 0 -57.5 23.5t-23.5 56.5q0 32 23.5 55.5t57.5 23.5q35 0 58 -23.5t23 -55.5q0 -34 -23 -57t-58 -23z" />
    <glyph glyph-name="divide" unicode="&#xf7;" horiz-adv-x="542" 
d="M272 383q-33 0 -55 22.5t-22 53.5q0 30 22 52.5t55 22.5t55 -22.5t22 -52.5q0 -32 -22 -54t-55 -22zM45 221v110h453v-110h-453zM270 16q-33 0 -55 22t-22 54q0 30 22 52.5t55 22.5t55 -22.5t22 -52.5q0 -32 -22 -54t-55 -22z" />
    <glyph glyph-name="oslash" unicode="&#xf8;" horiz-adv-x="594" 
d="M297 -13q-80 0 -143 37t-98.5 98.5t-35.5 136.5t35.5 137t98.5 99t143 37q81 0 143.5 -37t98 -99t35.5 -137t-35.5 -136.5t-98 -98.5t-143.5 -37zM297 110q43 0 75 20.5t49.5 54.5t17.5 74q0 41 -17.5 75t-49.5 54.5t-75 20.5t-75 -20.5t-49.5 -54.5t-17.5 -75
q0 -40 17.5 -74t49.5 -54.5t75 -20.5zM25 -39l463 600h69l-463 -600h-69z" />
    <glyph glyph-name="ugrave" unicode="&#xf9;" horiz-adv-x="557" 
d="M233 -12q-56 0 -101 26t-71 74.5t-26 113.5v318h135v-285q0 -67 27 -98t77 -31q43 0 75.5 31t32.5 98v285h135v-520h-131v78q-19 -45 -55.5 -67.5t-97.5 -22.5zM230 566l-99 174h159l34 -174h-94z" />
    <glyph glyph-name="uacute" unicode="&#xfa;" horiz-adv-x="557" 
d="M233 -12q-56 0 -101 26t-71 74.5t-26 113.5v318h135v-285q0 -67 27 -98t77 -31q43 0 75.5 31t32.5 98v285h135v-520h-131v78q-19 -45 -55.5 -67.5t-97.5 -22.5zM224 566l44 174h138l-88 -174h-94z" />
    <glyph glyph-name="ucircumflex" unicode="&#xfb;" horiz-adv-x="557" 
d="M233 -12q-56 0 -101 26t-71 74.5t-26 113.5v318h135v-285q0 -67 27 -98t77 -31q43 0 75.5 31t32.5 98v285h135v-520h-131v78q-19 -45 -55.5 -67.5t-97.5 -22.5zM118 566l101 174h109l98 -174h-117l-36 80l-36 -80h-119z" />
    <glyph glyph-name="udieresis" unicode="&#xfc;" horiz-adv-x="557" 
d="M233 -12q-56 0 -101 26t-71 74.5t-26 113.5v318h135v-285q0 -67 27 -98t77 -31q43 0 75.5 31t32.5 98v285h135v-520h-131v78q-19 -45 -55.5 -67.5t-97.5 -22.5zM379 563q-34 0 -57.5 23.5t-23.5 56.5q0 32 23.5 55.5t57.5 23.5q35 0 58 -23.5t23 -55.5q0 -34 -23 -57
t-58 -23zM167 563q-34 0 -57.5 23.5t-23.5 56.5q0 32 23.5 55.5t57.5 23.5q35 0 58 -23.5t23 -55.5q0 -34 -23 -57t-58 -23z" />
    <glyph glyph-name="yacute" unicode="&#xfd;" horiz-adv-x="539" 
d="M93 -209q-20 0 -45 2t-45 8l20 129q28 -7 61 -7q39 0 64 22.5t36 56.5l7 22l-206 496h163l101 -297q14 -40 22 -83q8 43 22 83l101 297h160l-230 -553q-33 -79 -86 -127.5t-145 -48.5zM218 566l44 174h138l-88 -174h-94z" />
    <glyph glyph-name="thorn" unicode="&#xfe;" horiz-adv-x="616" 
d="M40 -200v930h135v-290q21 41 59 66t105 25q54 0 100.5 -21.5t81.5 -59t55 -87t20 -105.5q0 -75 -34.5 -136.5t-92.5 -98t-130 -36.5q-67 0 -105 24.5t-59 65.5v-277h-135zM317 109q43 0 75.5 21t50.5 55.5t18 73.5q0 41 -18 75t-50.5 54.5t-75.5 20.5q-44 0 -77 -21
t-51 -55t-18 -75q0 -40 18 -74t51 -54.5t77 -20.5z" />
    <glyph glyph-name="ydieresis" unicode="&#xff;" horiz-adv-x="539" 
d="M93 -209q-20 0 -45 2t-45 8l20 129q28 -7 61 -7q39 0 64 22.5t36 56.5l7 22l-206 496h163l101 -297q14 -40 22 -83q8 43 22 83l101 297h160l-230 -553q-33 -79 -86 -127.5t-145 -48.5zM373 563q-34 0 -57.5 23.5t-23.5 56.5q0 32 23.5 55.5t57.5 23.5q35 0 58 -23.5
t23 -55.5q0 -34 -23 -57t-58 -23zM161 563q-34 0 -57.5 23.5t-23.5 56.5q0 32 23.5 55.5t57.5 23.5q35 0 58 -23.5t23 -55.5q0 -34 -23 -57t-58 -23z" />
    <glyph glyph-name="Amacron" unicode="&#x100;" horiz-adv-x="654" 
d="M-19 0l286 700h121l285 -700h-152l-48 133h-292l-48 -133h-152zM302 445l-75 -191h200l-75 191q-15 40 -25 80q-10 -43 -25 -80zM175 778v90h306v-90h-306z" />
    <glyph glyph-name="amacron" unicode="&#x101;" horiz-adv-x="616" 
d="M277 -13q-71 0 -129.5 36.5t-93 98t-34.5 136.5q0 56 20 105.5t55 87t81.5 59t100.5 21.5q68 0 106 -25.5t59 -67.5v82h134v-520h-131v85q-21 -44 -59.5 -71t-108.5 -27zM299 109q45 0 77.5 20.5t50.5 54.5t18 74q0 41 -18 75t-50.5 55t-77.5 21q-43 0 -75.5 -20.5
t-50.5 -54.5t-18 -75q0 -39 18 -73.5t50.5 -55.5t75.5 -21zM154 598v90h306v-90h-306z" />
    <glyph glyph-name="Abreve" unicode="&#x102;" horiz-adv-x="654" 
d="M-19 0l286 700h121l285 -700h-152l-48 133h-292l-48 -133h-152zM302 445l-75 -191h200l-75 191q-15 40 -25 80q-10 -43 -25 -80zM327 737q-73 0 -116.5 39t-43.5 100h107q-1 -21 12.5 -38.5t40.5 -17.5q29 0 41.5 17.5t11.5 38.5h107q0 -61 -43 -100t-117 -39z" />
    <glyph glyph-name="abreve" unicode="&#x103;" horiz-adv-x="616" 
d="M277 -13q-71 0 -129.5 36.5t-93 98t-34.5 136.5q0 56 20 105.5t55 87t81.5 59t100.5 21.5q68 0 106 -25.5t59 -67.5v82h134v-520h-131v85q-21 -44 -59.5 -71t-108.5 -27zM299 109q45 0 77.5 20.5t50.5 54.5t18 74q0 41 -18 75t-50.5 55t-77.5 21q-43 0 -75.5 -20.5
t-50.5 -54.5t-18 -75q0 -39 18 -73.5t50.5 -55.5t75.5 -21zM306 557q-73 0 -116.5 39t-43.5 100h107q-1 -21 12.5 -38.5t40.5 -17.5q29 0 41.5 17.5t11.5 38.5h107q0 -61 -43 -100t-117 -39z" />
    <glyph glyph-name="Aogonek" unicode="&#x104;" horiz-adv-x="654" 
d="M-19 0l286 700h121l285 -700h-152l-48 133h-292l-48 -133h-152zM302 445l-75 -191h200l-75 191q-15 40 -25 80q-10 -43 -25 -80zM570 -213q-57 0 -88.5 28.5t-31.5 74.5q0 32 15.5 56.5t55.5 53.5l23 17l79 -17l-51 -37q-16 -11 -22 -22.5t-6 -23.5q0 -19 16 -27.5
t35 -8.5q9 0 15 1.5t11 2.5l24 -87q-21 -6 -39.5 -8.5t-35.5 -2.5z" />
    <glyph glyph-name="aogonek" unicode="&#x105;" horiz-adv-x="616" 
d="M277 -13q-71 0 -129.5 36.5t-93 98t-34.5 136.5q0 56 20 105.5t55 87t81.5 59t100.5 21.5q68 0 106 -25.5t59 -67.5v82h134v-520h-131v85q-21 -44 -59.5 -71t-108.5 -27zM299 109q45 0 77.5 20.5t50.5 54.5t18 74q0 41 -18 75t-50.5 55t-77.5 21q-43 0 -75.5 -20.5
t-50.5 -54.5t-18 -75q0 -39 18 -73.5t50.5 -55.5t75.5 -21zM494 -213q-57 0 -88.5 28.5t-31.5 74.5q0 32 15.5 56.5t55.5 53.5l23 17l79 -17l-51 -37q-16 -11 -22 -22.5t-6 -23.5q0 -19 16 -27.5t35 -8.5q9 0 15 1.5t11 2.5l24 -87q-21 -6 -39.5 -8.5t-35.5 -2.5z" />
    <glyph glyph-name="Cacute" unicode="&#x106;" horiz-adv-x="662" 
d="M390 -13q-78 0 -144.5 28t-116 78t-77 115.5t-27.5 140.5t26.5 141t75 116t115.5 78.5t148 28.5q86 0 147.5 -27t108.5 -83l-99 -86q-63 66 -157 66q-67 0 -116.5 -32t-76.5 -85t-27 -117t27 -116.5t77 -84t119 -31.5q51 0 90 17t70 51l102 -87q-40 -48 -106.5 -79.5
t-158.5 -31.5zM341 746l44 174h138l-88 -174h-94z" />
    <glyph glyph-name="cacute" unicode="&#x107;" horiz-adv-x="524" 
d="M288 -13q-56 0 -104.5 21t-85.5 58.5t-57.5 87t-20.5 106.5q0 76 35.5 137.5t98 98.5t141.5 37q71 1 127 -25t89 -72l-104 -85q-18 27 -46.5 43t-63.5 16q-43 0 -75 -20.5t-49.5 -54.5t-17.5 -75q0 -40 18.5 -74.5t51 -55t75.5 -20.5q39 0 66 17.5t47 44.5l98 -85
q-37 -47 -91.5 -73.5t-131.5 -26.5zM250 566l44 174h138l-88 -174h-94z" />
    <glyph glyph-name="Ccircumflex" unicode="&#x108;" horiz-adv-x="662" 
d="M390 -13q-78 0 -144.5 28t-116 78t-77 115.5t-27.5 140.5t26.5 141t75 116t115.5 78.5t148 28.5q86 0 147.5 -27t108.5 -83l-99 -86q-63 66 -157 66q-67 0 -116.5 -32t-76.5 -85t-27 -117t27 -116.5t77 -84t119 -31.5q51 0 90 17t70 51l102 -87q-40 -48 -106.5 -79.5
t-158.5 -31.5zM235 746l101 174h109l98 -174h-117l-36 80l-36 -80h-119z" />
    <glyph glyph-name="ccircumflex" unicode="&#x109;" horiz-adv-x="524" 
d="M288 -13q-56 0 -104.5 21t-85.5 58.5t-57.5 87t-20.5 106.5q0 76 35.5 137.5t98 98.5t141.5 37q71 1 127 -25t89 -72l-104 -85q-18 27 -46.5 43t-63.5 16q-43 0 -75 -20.5t-49.5 -54.5t-17.5 -75q0 -40 18.5 -74.5t51 -55t75.5 -20.5q39 0 66 17.5t47 44.5l98 -85
q-37 -47 -91.5 -73.5t-131.5 -26.5zM144 566l101 174h109l98 -174h-117l-36 80l-36 -80h-119z" />
    <glyph glyph-name="Cdotaccent" unicode="&#x10a;" horiz-adv-x="662" 
d="M390 -13q-78 0 -144.5 28t-116 78t-77 115.5t-27.5 140.5t26.5 141t75 116t115.5 78.5t148 28.5q86 0 147.5 -27t108.5 -83l-99 -86q-63 66 -157 66q-67 0 -116.5 -32t-76.5 -85t-27 -117t27 -116.5t77 -84t119 -31.5q51 0 90 17t70 51l102 -87q-40 -48 -106.5 -79.5
t-158.5 -31.5zM390 743q-34 0 -57.5 23.5t-23.5 56.5q0 32 23.5 55.5t57.5 23.5q35 0 58 -23.5t23 -55.5q0 -34 -23 -57t-58 -23z" />
    <glyph glyph-name="cdotaccent" unicode="&#x10b;" horiz-adv-x="524" 
d="M288 -13q-56 0 -104.5 21t-85.5 58.5t-57.5 87t-20.5 106.5q0 76 35.5 137.5t98 98.5t141.5 37q71 1 127 -25t89 -72l-104 -85q-18 27 -46.5 43t-63.5 16q-43 0 -75 -20.5t-49.5 -54.5t-17.5 -75q0 -40 18.5 -74.5t51 -55t75.5 -20.5q39 0 66 17.5t47 44.5l98 -85
q-37 -47 -91.5 -73.5t-131.5 -26.5zM299 563q-34 0 -57.5 23.5t-23.5 56.5q0 32 23.5 55.5t57.5 23.5q35 0 58 -23.5t23 -55.5q0 -34 -23 -57t-58 -23z" />
    <glyph glyph-name="Ccaron" unicode="&#x10c;" horiz-adv-x="662" 
d="M390 -13q-78 0 -144.5 28t-116 78t-77 115.5t-27.5 140.5t26.5 141t75 116t115.5 78.5t148 28.5q86 0 147.5 -27t108.5 -83l-99 -86q-63 66 -157 66q-67 0 -116.5 -32t-76.5 -85t-27 -117t27 -116.5t77 -84t119 -31.5q51 0 90 17t70 51l102 -87q-40 -48 -106.5 -79.5
t-158.5 -31.5zM235 920h119l36 -80l36 80h117l-98 -174h-109z" />
    <glyph glyph-name="ccaron" unicode="&#x10d;" horiz-adv-x="524" 
d="M288 -13q-56 0 -104.5 21t-85.5 58.5t-57.5 87t-20.5 106.5q0 76 35.5 137.5t98 98.5t141.5 37q71 1 127 -25t89 -72l-104 -85q-18 27 -46.5 43t-63.5 16q-43 0 -75 -20.5t-49.5 -54.5t-17.5 -75q0 -40 18.5 -74.5t51 -55t75.5 -20.5q39 0 66 17.5t47 44.5l98 -85
q-37 -47 -91.5 -73.5t-131.5 -26.5zM144 740h119l36 -80l36 80h117l-98 -174h-109z" />
    <glyph glyph-name="Dcaron" unicode="&#x10e;" horiz-adv-x="684" 
d="M50 0v700h250q121 0 200.5 -46t119 -125t39.5 -180q0 -100 -39.5 -179t-119 -124.5t-200.5 -45.5h-250zM283 574h-93v-448h93q83 0 134 29.5t74 80t23 113.5q0 64 -23 114.5t-74 80.5t-134 30zM172 920h119l36 -80l36 80h117l-98 -174h-109z" />
    <glyph glyph-name="dcaron" unicode="&#x10f;" horiz-adv-x="626" 
d="M277 -13q-71 0 -129.5 36.5t-93 98t-34.5 136.5q0 56 20 105.5t55 87t81.5 59t100.5 21.5q67 0 105 -25t59 -66v290h135v-730h-131v85q-21 -44 -59.5 -71t-108.5 -27zM299 109q45 0 77.5 20.5t50.5 54.5t18 74q0 41 -18 75t-50.5 55t-77.5 21q-43 0 -75.5 -20.5
t-50.5 -54.5t-18 -75q0 -39 18 -73.5t50.5 -55.5t75.5 -21zM597 526l50 204h142l-98 -204h-94z" />
    <glyph glyph-name="Dcroat" unicode="&#x110;" horiz-adv-x="732" 
d="M98 0v700h250q121 0 200.5 -46t119 -125t39.5 -180q0 -100 -39.5 -179t-119 -124.5t-200.5 -45.5h-250zM331 574h-93v-448h93q83 0 134 29.5t74 80t23 113.5q0 64 -23 114.5t-74 80.5t-134 30zM4 291v118h379v-118h-379z" />
    <glyph glyph-name="dcroat" unicode="&#x111;" horiz-adv-x="616" 
d="M277 -13q-71 0 -129.5 36.5t-93 98t-34.5 136.5q0 56 20 105.5t55 87t81.5 59t100.5 21.5q67 0 105 -25t59 -66v131h-141v100h141v59h135v-59h65v-100h-65v-571h-131v85q-21 -44 -59.5 -71t-108.5 -27zM299 109q45 0 77.5 20.5t50.5 54.5t18 74q0 41 -18 75t-50.5 55
t-77.5 21q-43 0 -75.5 -20.5t-50.5 -54.5t-18 -75q0 -39 18 -73.5t50.5 -55.5t75.5 -21z" />
    <glyph glyph-name="Emacron" unicode="&#x112;" horiz-adv-x="501" 
d="M50 0v700h410v-126h-270v-157h265v-122h-265v-169h272v-126h-412zM108 778v90h306v-90h-306z" />
    <glyph glyph-name="emacron" unicode="&#x113;" horiz-adv-x="572" 
d="M289 -13q-80 0 -141 37t-94.5 98.5t-33.5 136.5t35 137.5t95.5 99.5t138.5 37t137.5 -37t93 -99.5t33.5 -137.5q0 -11 -1 -23t-3 -25h-389q11 -46 44.5 -75t84.5 -29q44 0 76.5 20t50.5 50l105 -79q-31 -49 -93 -80t-139 -31zM287 417q-48 0 -82 -29t-45 -76h257
q-11 43 -45.5 74t-84.5 31zM134 598v90h306v-90h-306z" />
    <glyph glyph-name="Edotaccent" unicode="&#x116;" horiz-adv-x="501" 
d="M50 0v700h410v-126h-270v-157h265v-122h-265v-169h272v-126h-412zM260 743q-34 0 -57.5 23.5t-23.5 56.5q0 32 23.5 55.5t57.5 23.5q35 0 58 -23.5t23 -55.5q0 -34 -23 -57t-58 -23z" />
    <glyph glyph-name="edotaccent" unicode="&#x117;" horiz-adv-x="572" 
d="M289 -13q-80 0 -141 37t-94.5 98.5t-33.5 136.5t35 137.5t95.5 99.5t138.5 37t137.5 -37t93 -99.5t33.5 -137.5q0 -11 -1 -23t-3 -25h-389q11 -46 44.5 -75t84.5 -29q44 0 76.5 20t50.5 50l105 -79q-31 -49 -93 -80t-139 -31zM287 417q-48 0 -82 -29t-45 -76h257
q-11 43 -45.5 74t-84.5 31zM286 563q-34 0 -57.5 23.5t-23.5 56.5q0 32 23.5 55.5t57.5 23.5q35 0 58 -23.5t23 -55.5q0 -34 -23 -57t-58 -23z" />
    <glyph glyph-name="Eogonek" unicode="&#x118;" horiz-adv-x="501" 
d="M50 0v700h410v-126h-270v-157h265v-122h-265v-169h272v-126h-412zM408 -213q-57 0 -88.5 28.5t-31.5 74.5q0 32 15.5 56.5t55.5 53.5l23 17l79 -17l-51 -37q-16 -11 -22 -22.5t-6 -23.5q0 -19 16 -27.5t35 -8.5q9 0 15 1.5t11 2.5l24 -87q-21 -6 -39.5 -8.5t-35.5 -2.5z
" />
    <glyph glyph-name="eogonek" unicode="&#x119;" horiz-adv-x="572" 
d="M289 -13q-80 0 -141 37t-94.5 98.5t-33.5 136.5t35 137.5t95.5 99.5t138.5 37t137.5 -37t93 -99.5t33.5 -137.5q0 -11 -1 -23t-3 -25h-389q11 -46 44.5 -75t84.5 -29q44 0 76.5 20t50.5 50l105 -79q-29 -44 -81 -73l-49 -40q-16 -12 -22 -24.5t-6 -25.5q0 -21 16 -30.5
t35 -9.5q9 0 15 1.5t11 3.5l24 -96q-21 -7 -39.5 -9.5t-35.5 -2.5q-57 0 -88.5 31t-31.5 82q0 24 7 43.5t23 38.5h-10zM287 417q-48 0 -82 -29t-45 -76h257q-11 43 -45.5 74t-84.5 31z" />
    <glyph glyph-name="Ecaron" unicode="&#x11a;" horiz-adv-x="501" 
d="M50 0v700h410v-126h-270v-157h265v-122h-265v-169h272v-126h-412zM105 920h119l36 -80l36 80h117l-98 -174h-109z" />
    <glyph glyph-name="ecaron" unicode="&#x11b;" horiz-adv-x="572" 
d="M289 -13q-80 0 -141 37t-94.5 98.5t-33.5 136.5t35 137.5t95.5 99.5t138.5 37t137.5 -37t93 -99.5t33.5 -137.5q0 -11 -1 -23t-3 -25h-389q11 -46 44.5 -75t84.5 -29q44 0 76.5 20t50.5 50l105 -79q-31 -49 -93 -80t-139 -31zM287 417q-48 0 -82 -29t-45 -76h257
q-11 43 -45.5 74t-84.5 31zM131 740h119l36 -80l36 80h117l-98 -174h-109z" />
    <glyph glyph-name="Gcircumflex" unicode="&#x11c;" horiz-adv-x="752" 
d="M390 -13q-78 0 -144.5 28t-116 78t-77 115.5t-27.5 140.5t27.5 141t77 116t116 78.5t144.5 28.5q89 0 151.5 -28.5t105.5 -81.5l-100 -86q-28 31 -68 48.5t-89 17.5q-67 0 -116.5 -32t-76.5 -85t-27 -117t27 -117t76.5 -85t116.5 -32q83 0 134 39.5t63 121.5l-230 -2v126
h365q2 -16 3.5 -38.5t1.5 -39.5q0 -97 -40.5 -172.5t-116 -119t-180.5 -43.5zM235 746l101 174h109l98 -174h-117l-36 80l-36 -80h-119z" />
    <glyph glyph-name="gcircumflex" unicode="&#x11d;" horiz-adv-x="604" 
d="M293 -213q-79 0 -140.5 21.5t-108.5 76.5l84 99q37 -42 77 -57t89 -15q36 0 67 18t49.5 50.5t18.5 73.5v23q-21 -36 -57.5 -58t-99.5 -22q-71 0 -128.5 36t-90.5 96.5t-33 135.5t33 136t90.5 96.5t128.5 35.5q65 0 101.5 -23t57.5 -61v71h133v-474q0 -80 -34.5 -138
t-95.5 -89.5t-141 -31.5zM294 120q67 0 104 42t37 103t-37 103t-104 42q-66 0 -102.5 -42t-36.5 -103q0 -39 16.5 -72t47.5 -53t75 -20zM133 566l101 174h109l98 -174h-117l-36 80l-36 -80h-119z" />
    <glyph glyph-name="Gbreve" unicode="&#x11e;" horiz-adv-x="752" 
d="M390 -13q-78 0 -144.5 28t-116 78t-77 115.5t-27.5 140.5t27.5 141t77 116t116 78.5t144.5 28.5q89 0 151.5 -28.5t105.5 -81.5l-100 -86q-28 31 -68 48.5t-89 17.5q-67 0 -116.5 -32t-76.5 -85t-27 -117t27 -117t76.5 -85t116.5 -32q83 0 134 39.5t63 121.5l-230 -2v126
h365q2 -16 3.5 -38.5t1.5 -39.5q0 -97 -40.5 -172.5t-116 -119t-180.5 -43.5zM390 737q-73 0 -116.5 39t-43.5 100h107q-1 -21 12.5 -38.5t40.5 -17.5q29 0 41.5 17.5t11.5 38.5h107q0 -61 -43 -100t-117 -39z" />
    <glyph glyph-name="gbreve" unicode="&#x11f;" horiz-adv-x="604" 
d="M293 -213q-79 0 -140.5 21.5t-108.5 76.5l84 99q37 -42 77 -57t89 -15q36 0 67 18t49.5 50.5t18.5 73.5v23q-21 -36 -57.5 -58t-99.5 -22q-71 0 -128.5 36t-90.5 96.5t-33 135.5t33 136t90.5 96.5t128.5 35.5q65 0 101.5 -23t57.5 -61v71h133v-474q0 -80 -34.5 -138
t-95.5 -89.5t-141 -31.5zM294 120q67 0 104 42t37 103t-37 103t-104 42q-66 0 -102.5 -42t-36.5 -103q0 -39 16.5 -72t47.5 -53t75 -20zM288 557q-73 0 -116.5 39t-43.5 100h107q-1 -21 12.5 -38.5t40.5 -17.5q29 0 41.5 17.5t11.5 38.5h107q0 -61 -43 -100t-117 -39z" />
    <glyph glyph-name="Gdotaccent" unicode="&#x120;" horiz-adv-x="752" 
d="M390 -13q-78 0 -144.5 28t-116 78t-77 115.5t-27.5 140.5t27.5 141t77 116t116 78.5t144.5 28.5q89 0 151.5 -28.5t105.5 -81.5l-100 -86q-28 31 -68 48.5t-89 17.5q-67 0 -116.5 -32t-76.5 -85t-27 -117t27 -117t76.5 -85t116.5 -32q83 0 134 39.5t63 121.5l-230 -2v126
h365q2 -16 3.5 -38.5t1.5 -39.5q0 -97 -40.5 -172.5t-116 -119t-180.5 -43.5zM390 743q-34 0 -57.5 23.5t-23.5 56.5q0 32 23.5 55.5t57.5 23.5q35 0 58 -23.5t23 -55.5q0 -34 -23 -57t-58 -23z" />
    <glyph glyph-name="gdotaccent" unicode="&#x121;" horiz-adv-x="604" 
d="M293 -213q-79 0 -140.5 21.5t-108.5 76.5l84 99q37 -42 77 -57t89 -15q36 0 67 18t49.5 50.5t18.5 73.5v23q-21 -36 -57.5 -58t-99.5 -22q-71 0 -128.5 36t-90.5 96.5t-33 135.5t33 136t90.5 96.5t128.5 35.5q65 0 101.5 -23t57.5 -61v71h133v-474q0 -80 -34.5 -138
t-95.5 -89.5t-141 -31.5zM294 120q67 0 104 42t37 103t-37 103t-104 42q-66 0 -102.5 -42t-36.5 -103q0 -39 16.5 -72t47.5 -53t75 -20zM288 563q-34 0 -57.5 23.5t-23.5 56.5q0 32 23.5 55.5t57.5 23.5q35 0 58 -23.5t23 -55.5q0 -34 -23 -57t-58 -23z" />
    <glyph glyph-name="uni0122" unicode="&#x122;" horiz-adv-x="752" 
d="M390 -13q-78 0 -144.5 28t-116 78t-77 115.5t-27.5 140.5t27.5 141t77 116t116 78.5t144.5 28.5q89 0 151.5 -28.5t105.5 -81.5l-100 -86q-28 31 -68 48.5t-89 17.5q-67 0 -116.5 -32t-76.5 -85t-27 -117t27 -117t76.5 -85t116.5 -32q83 0 134 39.5t63 121.5l-230 -2v126
h365q2 -16 3.5 -38.5t1.5 -39.5q0 -97 -40.5 -172.5t-116 -119t-180.5 -43.5zM287 -200l34 155h138l-98 -155h-74z" />
    <glyph glyph-name="uni0123" unicode="&#x123;" horiz-adv-x="604" 
d="M293 -213q-79 0 -140.5 21.5t-108.5 76.5l84 99q37 -42 77 -57t89 -15q36 0 67 18t49.5 50.5t18.5 73.5v23q-21 -36 -57.5 -58t-99.5 -22q-71 0 -128.5 36t-90.5 96.5t-33 135.5t33 136t90.5 96.5t128.5 35.5q65 0 101.5 -23t57.5 -61v71h133v-474q0 -80 -34.5 -138
t-95.5 -89.5t-141 -31.5zM294 120q67 0 104 42t37 103t-37 103t-104 42q-66 0 -102.5 -42t-36.5 -103q0 -39 16.5 -72t47.5 -53t75 -20zM196 566l99 174h94l-34 -174h-159z" />
    <glyph glyph-name="Hcircumflex" unicode="&#x124;" horiz-adv-x="670" 
d="M50 0v700h140v-282h290v282h140v-700h-140v292h-290v-292h-140zM180 746l101 174h109l98 -174h-117l-36 80l-36 -80h-119z" />
    <glyph glyph-name="hcircumflex" unicode="&#x125;" horiz-adv-x="565" 
d="M40 0v730h135v-282q42 84 157 84q56 0 101 -26t71 -74t26 -114v-318h-135v285q0 68 -31 98.5t-81 30.5q-43 0 -75.5 -30.5t-32.5 -98.5v-285h-135zM-49 776l101 174h109l98 -174h-117l-36 80l-36 -80h-119z" />
    <glyph glyph-name="Hbar" unicode="&#x126;" horiz-adv-x="670" 
d="M50 0v511h-46v94h46v95h140v-95h290v95h140v-95h46v-94h-46v-511h-140v292h-290v-292h-140zM190 418h290v93h-290v-93z" />
    <glyph glyph-name="hbar" unicode="&#x127;" horiz-adv-x="565" 
d="M40 0v559h-66v115h66v56h135v-56h178v-115h-178v-111q42 84 157 84q56 0 101 -26t71 -74t26 -114v-318h-135v285q0 68 -31 98.5t-81 30.5q-43 0 -75.5 -30.5t-32.5 -98.5v-285h-135z" />
    <glyph glyph-name="Itilde" unicode="&#x128;" horiz-adv-x="240" 
d="M50 0v700h140v-700h-140zM201 737q-30 0 -50.5 9.5t-35.5 22.5t-30 22.5t-35 9.5q-27 0 -36.5 -17t-9.5 -33h-86q0 47 19.5 78t50 46.5t63.5 15.5q30 0 51.5 -9.5t38 -21.5t30.5 -21.5t29 -9.5q23 0 29 18.5t6 32.5h87q0 -64 -30 -103.5t-91 -39.5z" />
    <glyph glyph-name="itilde" unicode="&#x129;" horiz-adv-x="215" 
d="M179 557q-33 0 -53 10t-32 23.5t-22 23.5t-23 10q-20 0 -29.5 -15t-9.5 -41h-86q0 41 16.5 73.5t43.5 51t57 18.5q36 0 56 -10t31 -23.5t20 -23.5t23 -10q20 0 25 16.5t5 39.5h87q0 -35 -13 -68t-37 -54t-59 -21zM40 0v520h135v-520h-135z" />
    <glyph glyph-name="Imacron" unicode="&#x12a;" horiz-adv-x="240" 
d="M50 0v700h140v-700h-140zM-32 778v90h306v-90h-306z" />
    <glyph glyph-name="imacron" unicode="&#x12b;" horiz-adv-x="215" 
d="M40 0v520h135v-520h-135zM-46 598v90h306v-90h-306z" />
    <glyph glyph-name="Iogonek" unicode="&#x12e;" horiz-adv-x="240" 
d="M50 0v700h140v-700v0l-46 -37q-14 -11 -19.5 -22.5t-5.5 -23.5q0 -19 14 -27.5t32 -8.5q8 0 13 1.5t10 2.5l22 -87q-19 -6 -36 -8.5t-32 -2.5q-51 0 -79.5 28.5t-28.5 74.5q0 32 14 56.5t50 53.5h-48z" />
    <glyph glyph-name="iogonek" unicode="&#x12f;" horiz-adv-x="215" 
d="M106 563q-34 0 -57.5 23.5t-23.5 56.5q0 32 23.5 55.5t57.5 23.5q35 0 58 -23.5t23 -55.5q0 -34 -23 -57t-58 -23zM40 0v520h135v-520v0l-45 -37q-14 -11 -19.5 -22.5t-5.5 -23.5q0 -19 14 -27.5t31 -8.5q8 0 13 1.5t10 2.5l21 -87q-18 -6 -34.5 -8.5t-31.5 -2.5
q-50 0 -77.5 28.5t-27.5 74.5q0 32 13.5 56.5t48.5 53.5h-45z" />
    <glyph glyph-name="Idotaccent" unicode="&#x130;" horiz-adv-x="240" 
d="M50 0v700h140v-700h-140zM120 743q-34 0 -57.5 23.5t-23.5 56.5q0 32 23.5 55.5t57.5 23.5q35 0 58 -23.5t23 -55.5q0 -34 -23 -57t-58 -23z" />
    <glyph glyph-name="dotlessi" unicode="&#x131;" horiz-adv-x="215" 
d="M40 0v520h135v-520h-135z" />
    <glyph glyph-name="IJ" unicode="&#x132;" horiz-adv-x="626" 
d="M50 0v700h140v-700h-140zM378 -11q-41 0 -78 7t-58 20l53 115q22 -16 64 -16q35 0 58.5 17.5t23.5 58.5v509h140v-514q0 -68 -26.5 -111.5t-72 -64.5t-104.5 -21z" />
    <glyph glyph-name="ij" unicode="&#x133;" horiz-adv-x="430" 
d="M107 563q-34 0 -57.5 23.5t-23.5 56.5q0 32 23.5 55.5t57.5 23.5q35 0 58 -23.5t23 -55.5q0 -34 -23 -57t-58 -23zM40 0v520h135v-520h-135zM323 563q-34 0 -57.5 23.5t-23.5 56.5q0 32 23.5 55.5t57.5 23.5q35 0 58 -23.5t23 -55.5q0 -34 -23 -57t-58 -23zM187 -200v120
h26q42 0 42 48v552h135v-559q0 -85 -41 -123t-118 -38h-44z" />
    <glyph glyph-name="Jcircumflex" unicode="&#x134;" horiz-adv-x="386" 
d="M138 -11q-41 0 -78 7t-58 20l53 115q22 -16 64 -16q35 0 58.5 17.5t23.5 58.5v509h140v-514q0 -68 -26.5 -111.5t-72 -64.5t-104.5 -21zM116 746l101 174h109l98 -174h-117l-36 80l-36 -80h-119z" />
    <glyph glyph-name="jcircumflex" unicode="&#x135;" horiz-adv-x="215" 
d="M-28 -200v120h26q42 0 42 48v552h135v-559q0 -85 -41 -123t-118 -38h-44zM-49 566l101 174h109l98 -174h-117l-36 80l-36 -80h-119z" />
    <glyph glyph-name="uni0136" unicode="&#x136;" horiz-adv-x="588" 
d="M50 0v700h140v-289l218 289h183l-271 -328l291 -372h-179l-242 309v-309h-140zM200 -200l34 155h138l-98 -155h-74z" />
    <glyph glyph-name="uni0137" unicode="&#x137;" horiz-adv-x="558" 
d="M40 0v730h135v-420l195 210h192l-245 -242l246 -278h-179l-209 247v-247h-135zM170 -200l34 155h138l-98 -155h-74z" />
    <glyph glyph-name="kgreenlandic" unicode="&#x138;" horiz-adv-x="558" 
d="M40 0v520h135v-212l195 212h192l-245 -245l246 -275h-179l-209 245v-245h-135z" />
    <glyph glyph-name="Lacute" unicode="&#x139;" horiz-adv-x="476" 
d="M50 0v700h140v-574h261v-126h-401zM67 746l44 174h138l-88 -174h-94z" />
    <glyph glyph-name="lacute" unicode="&#x13a;" horiz-adv-x="215" 
d="M40 0v730h135v-730h-135zM54 776l44 174h138l-88 -174h-94z" />
    <glyph glyph-name="uni013B" unicode="&#x13b;" horiz-adv-x="476" 
d="M50 0v700h140v-574h261v-126h-401zM160 -200l34 155h138l-98 -155h-74z" />
    <glyph glyph-name="uni013C" unicode="&#x13c;" horiz-adv-x="215" 
d="M40 0v730h135v-730h-135zM7 -200l34 155h138l-98 -155h-74z" />
    <glyph glyph-name="Lcaron" unicode="&#x13d;" horiz-adv-x="476" 
d="M50 0v700h140v-574h261v-126h-401zM252 496l50 204h142l-98 -204h-94z" />
    <glyph glyph-name="lcaron" unicode="&#x13e;" horiz-adv-x="225" 
d="M40 0v730h135v-730h-135zM196 526l50 204h142l-98 -204h-94z" />
    <glyph glyph-name="Lslash" unicode="&#x141;" horiz-adv-x="476" 
d="M50 0v247l-74 -52v126l74 52v327h140v-242l93 70v-133l-93 -65v-204h261v-126h-401z" />
    <glyph glyph-name="lslash" unicode="&#x142;" horiz-adv-x="227" 
d="M46 0v240l-64 -45v126l64 45v364h135v-283l66 52v-126l-66 -46v-327h-135z" />
    <glyph glyph-name="Nacute" unicode="&#x143;" horiz-adv-x="716" 
d="M50 0v700h106l341 -405q12 -14 23.5 -28.5t22.5 -29.5q-3 22 -4 52.5t-1 61.5v349h128v-700h-91l-354 421q-12 14 -23.5 28.5t-22.5 29.5q3 -22 4 -52.5t1 -61.5v-365h-130zM327 746l44 174h138l-88 -174h-94z" />
    <glyph glyph-name="nacute" unicode="&#x144;" horiz-adv-x="565" 
d="M40 0v520h133v-76q41 88 159 88q56 0 101 -26t71 -74t26 -114v-318h-135v285q0 68 -31 98.5t-81 30.5q-43 0 -75.5 -30.5t-32.5 -98.5v-285h-135zM247 571l44 174h138l-88 -174h-94z" />
    <glyph glyph-name="uni0145" unicode="&#x145;" horiz-adv-x="716" 
d="M50 0v700h106l341 -405q12 -14 23.5 -28.5t22.5 -29.5q-3 22 -4 52.5t-1 61.5v349h128v-700h-91l-354 421q-12 14 -23.5 28.5t-22.5 29.5q3 -22 4 -52.5t1 -61.5v-365h-130zM282 -200l34 155h138l-98 -155h-74z" />
    <glyph glyph-name="uni0146" unicode="&#x146;" horiz-adv-x="565" 
d="M40 0v520h133v-76q41 88 159 88q56 0 101 -26t71 -74t26 -114v-318h-135v285q0 68 -31 98.5t-81 30.5q-43 0 -75.5 -30.5t-32.5 -98.5v-285h-135zM185 -200l34 155h138l-98 -155h-74z" />
    <glyph glyph-name="Ncaron" unicode="&#x147;" horiz-adv-x="716" 
d="M50 0v700h106l341 -405q12 -14 23.5 -28.5t22.5 -29.5q-3 22 -4 52.5t-1 61.5v349h128v-700h-91l-354 421q-12 14 -23.5 28.5t-22.5 29.5q3 -22 4 -52.5t1 -61.5v-365h-130zM221 920h119l36 -80l36 80h117l-98 -174h-109z" />
    <glyph glyph-name="ncaron" unicode="&#x148;" horiz-adv-x="565" 
d="M40 0v520h133v-76q41 88 159 88q56 0 101 -26t71 -74t26 -114v-318h-135v285q0 68 -31 98.5t-81 30.5q-43 0 -75.5 -30.5t-32.5 -98.5v-285h-135zM141 745h119l36 -80l36 80h117l-98 -174h-109z" />
    <glyph glyph-name="Eng" unicode="&#x14a;" horiz-adv-x="716" 
d="M50 0v700h106l341 -405q12 -14 23.5 -28.5t22.5 -29.5q-3 22 -4 52.5t-1 61.5v349h128v-739q0 -85 -41 -123t-118 -38h-44v120h40q42 0 42 48v68l-324 385q-12 14 -23.5 28.5t-22.5 29.5q3 -22 4 -52.5t1 -61.5v-365h-130z" />
    <glyph glyph-name="eng" unicode="&#x14b;" horiz-adv-x="565" 
d="M40 0v520h133v-76q41 88 159 88q56 0 101 -26t71 -74t26 -114v-357q0 -85 -41 -123t-118 -38h-44v120h26q42 0 42 48v317q0 68 -31 98.5t-81 30.5q-43 0 -75.5 -30.5t-32.5 -98.5v-285h-135z" />
    <glyph glyph-name="Omacron" unicode="&#x14c;" horiz-adv-x="778" 
d="M390 -13q-78 0 -144.5 28t-116 78t-77 115.5t-27.5 140.5t27.5 141t77 116t116 78.5t144.5 28.5t144 -28.5t115 -78.5t76.5 -116t27.5 -141t-27.5 -140.5t-76.5 -115.5t-115 -78t-144 -28zM390 117q68 0 116.5 31.5t75 84.5t26.5 116q0 64 -26.5 117t-75 85t-116.5 32
t-117.5 -32t-76 -85t-26.5 -117q0 -63 26.5 -116t76 -84.5t117.5 -31.5zM238 778v90h306v-90h-306z" />
    <glyph glyph-name="omacron" unicode="&#x14d;" horiz-adv-x="594" 
d="M297 -13q-80 0 -143 37t-98.5 98.5t-35.5 136.5t35.5 137t98.5 99t143 37q81 0 143.5 -37t98 -99t35.5 -137t-35.5 -136.5t-98 -98.5t-143.5 -37zM297 110q43 0 75 20.5t49.5 54.5t17.5 74q0 41 -17.5 75t-49.5 54.5t-75 20.5t-75 -20.5t-49.5 -54.5t-17.5 -75
q0 -40 17.5 -74t49.5 -54.5t75 -20.5zM145 598v90h306v-90h-306z" />
    <glyph glyph-name="Ohungarumlaut" unicode="&#x150;" horiz-adv-x="778" 
d="M390 -13q-78 0 -144.5 28t-116 78t-77 115.5t-27.5 140.5t27.5 141t77 116t116 78.5t144.5 28.5t144 -28.5t115 -78.5t76.5 -116t27.5 -141t-27.5 -140.5t-76.5 -115.5t-115 -78t-144 -28zM390 117q68 0 116.5 31.5t75 84.5t26.5 116q0 64 -26.5 117t-75 85t-116.5 32
t-117.5 -32t-76 -85t-26.5 -117q0 -63 26.5 -116t76 -84.5t117.5 -31.5zM429 746l32 174h133l-96 -174h-69zM264 746l32 174h133l-96 -174h-69z" />
    <glyph glyph-name="ohungarumlaut" unicode="&#x151;" horiz-adv-x="594" 
d="M297 -13q-80 0 -143 37t-98.5 98.5t-35.5 136.5t35.5 137t98.5 99t143 37q81 0 143.5 -37t98 -99t35.5 -137t-35.5 -136.5t-98 -98.5t-143.5 -37zM297 110q43 0 75 20.5t49.5 54.5t17.5 74q0 41 -17.5 75t-49.5 54.5t-75 20.5t-75 -20.5t-49.5 -54.5t-17.5 -75
q0 -40 17.5 -74t49.5 -54.5t75 -20.5zM336 566l32 174h133l-96 -174h-69zM171 566l32 174h133l-96 -174h-69z" />
    <glyph glyph-name="OE" unicode="&#x152;" horiz-adv-x="1032" 
d="M380 -13q-74 0 -138.5 28t-113 78t-76 115.5t-27.5 140.5t27.5 141t76 116t113 78.5t138.5 28.5q78 0 133.5 -26.5t91.5 -72.5v86h386v-126h-270v-157h265v-122h-265v-169h272v-126h-388v85q-36 -45 -91.5 -71.5t-133.5 -26.5zM390 117q71 0 118 31.5t70 84.5t23 116
q0 64 -23 117t-70 85t-118 32q-68 0 -117.5 -32t-76 -85t-26.5 -117q0 -63 26.5 -116t76 -84.5t117.5 -31.5z" />
    <glyph glyph-name="oe" unicode="&#x153;" horiz-adv-x="981" 
d="M297 -13q-80 0 -143 37t-98.5 98.5t-35.5 136.5t35.5 137t98.5 99t143 37q70 0 121.5 -32t82.5 -85q29 53 79.5 85.5t117.5 32.5q78 0 137.5 -37t93 -99.5t33.5 -137.5q0 -11 -1 -23t-3 -25h-389q11 -46 44.5 -75t84.5 -29q44 0 76.5 20t50.5 50l105 -79q-31 -49 -93 -80
t-139 -31q-69 0 -119 31.5t-79 83.5q-30 -52 -82 -83.5t-121 -31.5zM696 417q-48 0 -81 -29t-45 -76h256q-11 43 -45.5 74t-84.5 31zM297 110q43 0 75 20.5t49.5 54.5t17.5 74q0 41 -17.5 75t-49.5 54.5t-75 20.5t-75 -20.5t-49.5 -54.5t-17.5 -75q0 -40 17.5 -74
t49.5 -54.5t75 -20.5z" />
    <glyph glyph-name="Racute" unicode="&#x154;" horiz-adv-x="551" 
d="M50 0v700h226q118 0 185.5 -54.5t67.5 -157.5q0 -83 -44.5 -134t-123.5 -68l196 -286h-165l-149 222q-14 21 -27 51h-26v-273h-140zM190 399h78q57 0 88 22.5t31 65.5q0 42 -31 64.5t-88 22.5h-78v-175zM231 746l44 174h138l-88 -174h-94z" />
    <glyph glyph-name="racute" unicode="&#x155;" horiz-adv-x="337" 
d="M40 0v520h131v-99q13 56 53 85.5t108 25.5v-127h-19q-58 0 -98 -37t-40 -102v-266h-135zM158 566l44 174h138l-88 -174h-94z" />
    <glyph glyph-name="uni0156" unicode="&#x156;" horiz-adv-x="551" 
d="M50 0v700h226q118 0 185.5 -54.5t67.5 -157.5q0 -83 -44.5 -134t-123.5 -68l196 -286h-165l-149 222q-14 21 -27 51h-26v-273h-140zM190 399h78q57 0 88 22.5t31 65.5q0 42 -31 64.5t-88 22.5h-78v-175zM202 -200l34 155h138l-98 -155h-74z" />
    <glyph glyph-name="uni0157" unicode="&#x157;" horiz-adv-x="337" 
d="M40 0v520h131v-99q13 56 53 85.5t108 25.5v-127h-19q-58 0 -98 -37t-40 -102v-266h-135zM3 -200l34 155h138l-98 -155h-74z" />
    <glyph glyph-name="Rcaron" unicode="&#x158;" horiz-adv-x="551" 
d="M50 0v700h226q118 0 185.5 -54.5t67.5 -157.5q0 -83 -44.5 -134t-123.5 -68l196 -286h-165l-149 222q-14 21 -27 51h-26v-273h-140zM190 399h78q57 0 88 22.5t31 65.5q0 42 -31 64.5t-88 22.5h-78v-175zM125 920h119l36 -80l36 80h117l-98 -174h-109z" />
    <glyph glyph-name="rcaron" unicode="&#x159;" horiz-adv-x="337" 
d="M40 0v520h131v-99q13 56 53 85.5t108 25.5v-127h-19q-58 0 -98 -37t-40 -102v-266h-135zM52 740h119l36 -80l36 80h117l-98 -174h-109z" />
    <glyph glyph-name="Sacute" unicode="&#x15a;" horiz-adv-x="556" 
d="M278 -13q-83 0 -152.5 35.5t-115.5 115.5l121 77q27 -54 68 -78.5t87 -24.5q49 0 77 22t28 58q0 35 -22 56t-58.5 34t-79.5 24q-81 21 -129 69.5t-48 127.5q0 63 31 110t86.5 73t129.5 26q82 0 137 -34t94 -96l-120 -74q-25 41 -52 60t-66 19q-42 0 -69.5 -21t-27.5 -56
q0 -39 32.5 -56.5t78.5 -31.5q31 -10 69.5 -23.5t74.5 -37t59 -62.5t23 -99q0 -63 -31 -111t-88 -75t-137 -27zM250 746l44 174h138l-88 -174h-94z" />
    <glyph glyph-name="sacute" unicode="&#x15b;" horiz-adv-x="433" 
d="M218 -13q-131 0 -216 91l91 83q57 -64 122 -64q35 0 53.5 15.5t18.5 38.5q0 14 -6.5 24t-27 19t-61.5 18q-70 17 -104 42t-45 56t-11 64q0 68 51.5 113.5t142.5 45.5q63 0 108 -19t85 -71l-98 -75q-19 30 -42.5 43t-49.5 13q-28 0 -46.5 -11t-18.5 -35q0 -13 12 -25.5
t58 -24.5q76 -19 116 -44.5t55 -57.5t15 -71q0 -48 -26.5 -86t-72 -60t-103.5 -22zM177 566l44 174h138l-88 -174h-94z" />
    <glyph glyph-name="Scircumflex" unicode="&#x15c;" horiz-adv-x="556" 
d="M278 -13q-83 0 -152.5 35.5t-115.5 115.5l121 77q27 -54 68 -78.5t87 -24.5q49 0 77 22t28 58q0 35 -22 56t-58.5 34t-79.5 24q-81 21 -129 69.5t-48 127.5q0 63 31 110t86.5 73t129.5 26q82 0 137 -34t94 -96l-120 -74q-25 41 -52 60t-66 19q-42 0 -69.5 -21t-27.5 -56
q0 -39 32.5 -56.5t78.5 -31.5q31 -10 69.5 -23.5t74.5 -37t59 -62.5t23 -99q0 -63 -31 -111t-88 -75t-137 -27zM144 746l101 174h109l98 -174h-117l-36 80l-36 -80h-119z" />
    <glyph glyph-name="scircumflex" unicode="&#x15d;" horiz-adv-x="433" 
d="M218 -13q-131 0 -216 91l91 83q57 -64 122 -64q35 0 53.5 15.5t18.5 38.5q0 14 -6.5 24t-27 19t-61.5 18q-70 17 -104 42t-45 56t-11 64q0 68 51.5 113.5t142.5 45.5q63 0 108 -19t85 -71l-98 -75q-19 30 -42.5 43t-49.5 13q-28 0 -46.5 -11t-18.5 -35q0 -13 12 -25.5
t58 -24.5q76 -19 116 -44.5t55 -57.5t15 -71q0 -48 -26.5 -86t-72 -60t-103.5 -22zM71 566l101 174h109l98 -174h-117l-36 80l-36 -80h-119z" />
    <glyph glyph-name="Scedilla" unicode="&#x15e;" horiz-adv-x="556" 
d="M278 -13q-83 0 -152.5 35.5t-115.5 115.5l121 77q27 -54 68 -78.5t87 -24.5q49 0 77 22t28 58q0 35 -22 56t-58.5 34t-79.5 24q-81 21 -129 69.5t-48 127.5q0 63 31 110t86.5 73t129.5 26q82 0 137 -34t94 -96l-120 -74q-25 41 -52 60t-66 19q-42 0 -69.5 -21t-27.5 -56
q0 -39 32.5 -56.5t78.5 -31.5q31 -10 69.5 -23.5t74.5 -37t59 -62.5t23 -99q0 -63 -31 -111t-88 -75t-137 -27zM262 -213q-28 0 -46.5 5.5t-47.5 26.5l46 58q8 -7 18 -12t21 -5t21 6t10 22q0 11 -8 17t-17 6q-13 0 -22 -3l-4 3l42 95l60 4l-25 -53q27 -8 40 -30t13 -47
q0 -47 -31.5 -70t-69.5 -23z" />
    <glyph glyph-name="scedilla" unicode="&#x15f;" horiz-adv-x="433" 
d="M218 -13q-131 0 -216 91l91 83q57 -64 122 -64q35 0 53.5 15.5t18.5 38.5q0 14 -6.5 24t-27 19t-61.5 18q-70 17 -104 42t-45 56t-11 64q0 68 51.5 113.5t142.5 45.5q63 0 108 -19t85 -71l-98 -75q-19 30 -42.5 43t-49.5 13q-28 0 -46.5 -11t-18.5 -35q0 -13 12 -25.5
t58 -24.5q76 -19 116 -44.5t55 -57.5t15 -71q0 -48 -26.5 -86t-72 -60t-103.5 -22zM198 -213q-28 0 -46.5 5.5t-47.5 26.5l46 58q8 -7 18 -12t21 -5t21 6t10 22q0 11 -8 17t-17 6q-13 0 -22 -3l-4 3l42 95l60 4l-25 -53q27 -8 40 -30t13 -47q0 -47 -31.5 -70t-69.5 -23z" />
    <glyph glyph-name="Scaron" unicode="&#x160;" horiz-adv-x="556" 
d="M278 -13q-83 0 -152.5 35.5t-115.5 115.5l121 77q27 -54 68 -78.5t87 -24.5q49 0 77 22t28 58q0 35 -22 56t-58.5 34t-79.5 24q-81 21 -129 69.5t-48 127.5q0 63 31 110t86.5 73t129.5 26q82 0 137 -34t94 -96l-120 -74q-25 41 -52 60t-66 19q-42 0 -69.5 -21t-27.5 -56
q0 -39 32.5 -56.5t78.5 -31.5q31 -10 69.5 -23.5t74.5 -37t59 -62.5t23 -99q0 -63 -31 -111t-88 -75t-137 -27zM144 920h119l36 -80l36 80h117l-98 -174h-109z" />
    <glyph glyph-name="scaron" unicode="&#x161;" horiz-adv-x="433" 
d="M218 -13q-131 0 -216 91l91 83q57 -64 122 -64q35 0 53.5 15.5t18.5 38.5q0 14 -6.5 24t-27 19t-61.5 18q-70 17 -104 42t-45 56t-11 64q0 68 51.5 113.5t142.5 45.5q63 0 108 -19t85 -71l-98 -75q-19 30 -42.5 43t-49.5 13q-28 0 -46.5 -11t-18.5 -35q0 -13 12 -25.5
t58 -24.5q76 -19 116 -44.5t55 -57.5t15 -71q0 -48 -26.5 -86t-72 -60t-103.5 -22zM71 740h119l36 -80l36 80h117l-98 -174h-109z" />
    <glyph glyph-name="uni0162" unicode="&#x162;" horiz-adv-x="570" 
d="M215 0v574h-200v126h540v-126h-200v-574h-140zM265 -213q-28 0 -46.5 5.5t-47.5 26.5l46 58q8 -7 18 -12t21 -5t21 6t10 22q0 11 -8 17t-17 6q-13 0 -22 -3l-4 3l42 95l60 4l-25 -53q27 -8 40 -30t13 -47q0 -47 -31.5 -70t-69.5 -23z" />
    <glyph glyph-name="uni0163" unicode="&#x163;" horiz-adv-x="328" 
d="M237 0q-77 0 -118 38t-41 123v244h-73v115h73v105l135 14v-119h110v-115h-110v-237q0 -48 42 -48h56v-120h-74zM177 -213q-28 0 -46.5 5.5t-47.5 26.5l46 58q8 -7 18 -12t21 -5t21 6t10 22q0 11 -8 17t-17 6q-13 0 -22 -3l-4 3l42 95l60 4l-25 -53q27 -8 40 -30t13 -47
q0 -47 -31.5 -70t-69.5 -23z" />
    <glyph glyph-name="Tcaron" unicode="&#x164;" horiz-adv-x="570" 
d="M215 0v574h-200v126h540v-126h-200v-574h-140zM130 920h119l36 -80l36 80h117l-98 -174h-109z" />
    <glyph glyph-name="tcaron" unicode="&#x165;" horiz-adv-x="338" 
d="M244 546l50 184h142l-98 -184h-94zM237 0q-77 0 -118 38t-41 123v244h-73v115h73v105l135 14v-119h110v-115h-110v-237q0 -48 42 -48h56v-120h-74z" />
    <glyph glyph-name="Utilde" unicode="&#x168;" horiz-adv-x="646" 
d="M323 -13q-85 0 -149 34.5t-99 96t-35 141.5v441h140v-426q0 -74 35.5 -116.5t107.5 -42.5t107.5 42.5t35.5 116.5v426h140v-441q0 -80 -35 -141.5t-98.5 -96t-149.5 -34.5zM404 721q-30 0 -50.5 9.5t-35.5 22.5t-30 22.5t-35 9.5q-27 0 -36.5 -17t-9.5 -33h-86
q0 47 19.5 78t50 46.5t63.5 15.5q30 0 51.5 -9.5t38 -21.5t30.5 -21.5t29 -9.5q23 0 29 18.5t6 32.5h87q0 -64 -30 -103.5t-91 -39.5z" />
    <glyph glyph-name="utilde" unicode="&#x169;" horiz-adv-x="557" 
d="M233 -12q-56 0 -101 26t-71 74.5t-26 113.5v318h135v-285q0 -67 27 -98t77 -31q43 0 75.5 31t32.5 98v285h135v-520h-131v78q-19 -45 -55.5 -67.5t-97.5 -22.5zM354 557q-30 0 -50.5 9.5t-35.5 22.5t-30 22.5t-35 9.5q-27 0 -36.5 -17t-9.5 -33h-86q0 47 19.5 78t50 46.5
t63.5 15.5q30 0 51.5 -9.5t38 -21.5t30.5 -21.5t29 -9.5q23 0 29 18.5t6 32.5h87q0 -64 -30 -103.5t-91 -39.5z" />
    <glyph glyph-name="Umacron" unicode="&#x16a;" horiz-adv-x="646" 
d="M323 -13q-85 0 -149 34.5t-99 96t-35 141.5v441h140v-426q0 -74 35.5 -116.5t107.5 -42.5t107.5 42.5t35.5 116.5v426h140v-441q0 -80 -35 -141.5t-98.5 -96t-149.5 -34.5zM171 762v90h306v-90h-306z" />
    <glyph glyph-name="umacron" unicode="&#x16b;" horiz-adv-x="557" 
d="M233 -12q-56 0 -101 26t-71 74.5t-26 113.5v318h135v-285q0 -67 27 -98t77 -31q43 0 75.5 31t32.5 98v285h135v-520h-131v78q-19 -45 -55.5 -67.5t-97.5 -22.5zM121 598v90h306v-90h-306z" />
    <glyph glyph-name="Ubreve" unicode="&#x16c;" horiz-adv-x="646" 
d="M323 -13q-85 0 -149 34.5t-99 96t-35 141.5v441h140v-426q0 -74 35.5 -116.5t107.5 -42.5t107.5 42.5t35.5 116.5v426h140v-441q0 -80 -35 -141.5t-98.5 -96t-149.5 -34.5zM323 721q-73 0 -116.5 39t-43.5 100h107q-1 -21 12.5 -38.5t40.5 -17.5q29 0 41.5 17.5
t11.5 38.5h107q0 -61 -43 -100t-117 -39z" />
    <glyph glyph-name="ubreve" unicode="&#x16d;" horiz-adv-x="557" 
d="M233 -12q-56 0 -101 26t-71 74.5t-26 113.5v318h135v-285q0 -67 27 -98t77 -31q43 0 75.5 31t32.5 98v285h135v-520h-131v78q-19 -45 -55.5 -67.5t-97.5 -22.5zM273 557q-73 0 -116.5 39t-43.5 100h107q-1 -21 12.5 -38.5t40.5 -17.5q29 0 41.5 17.5t11.5 38.5h107
q0 -61 -43 -100t-117 -39z" />
    <glyph glyph-name="Uring" unicode="&#x16e;" horiz-adv-x="646" 
d="M323 -13q-85 0 -149 34.5t-99 96t-35 141.5v441h140v-426q0 -74 35.5 -116.5t107.5 -42.5t107.5 42.5t35.5 116.5v426h140v-441q0 -80 -35 -141.5t-98.5 -96t-149.5 -34.5zM323 721q-43 0 -75 31t-32 74q0 44 32 74.5t75 30.5q44 0 75.5 -30.5t31.5 -74.5
q0 -43 -31.5 -74t-75.5 -31zM323 788q15 0 25.5 11.5t10.5 26.5t-10.5 26t-25.5 11t-26.5 -11t-11.5 -26t11.5 -26.5t26.5 -11.5z" />
    <glyph glyph-name="uring" unicode="&#x16f;" horiz-adv-x="557" 
d="M233 -12q-56 0 -101 26t-71 74.5t-26 113.5v318h135v-285q0 -67 27 -98t77 -31q43 0 75.5 31t32.5 98v285h135v-520h-131v78q-19 -45 -55.5 -67.5t-97.5 -22.5zM273 557q-43 0 -75 31t-32 74q0 44 32 74.5t75 30.5q44 0 75.5 -30.5t31.5 -74.5q0 -43 -31.5 -74t-75.5 -31
zM273 624q15 0 25.5 11.5t10.5 26.5t-10.5 26t-25.5 11t-26.5 -11t-11.5 -26t11.5 -26.5t26.5 -11.5z" />
    <glyph glyph-name="Uhungarumlaut" unicode="&#x170;" horiz-adv-x="646" 
d="M323 -13q-85 0 -149 34.5t-99 96t-35 141.5v441h140v-426q0 -74 35.5 -116.5t107.5 -42.5t107.5 42.5t35.5 116.5v426h140v-441q0 -80 -35 -141.5t-98.5 -96t-149.5 -34.5zM362 730l32 174h133l-96 -174h-69zM197 730l32 174h133l-96 -174h-69z" />
    <glyph glyph-name="uhungarumlaut" unicode="&#x171;" horiz-adv-x="557" 
d="M233 -12q-56 0 -101 26t-71 74.5t-26 113.5v318h135v-285q0 -67 27 -98t77 -31q43 0 75.5 31t32.5 98v285h135v-520h-131v78q-19 -45 -55.5 -67.5t-97.5 -22.5zM312 566l32 174h133l-96 -174h-69zM147 566l32 174h133l-96 -174h-69z" />
    <glyph glyph-name="Uogonek" unicode="&#x172;" horiz-adv-x="646" 
d="M401 -214q-57 0 -88.5 30.5t-31.5 79.5q0 27 9 48t31 43q-85 0 -148 35t-98 96t-35 141v441h140v-426q0 -74 35.5 -116.5t107.5 -42.5t107.5 42.5t35.5 116.5v426h140v-441q0 -87 -41 -151.5t-114 -95.5l-48 -38q-16 -12 -22 -24t-6 -25q0 -20 16 -29t35 -9q9 0 15 1
t11 3l24 -93q-21 -7 -39.5 -9.5t-35.5 -2.5z" />
    <glyph glyph-name="uogonek" unicode="&#x173;" horiz-adv-x="557" 
d="M233 -12q-56 0 -101 26t-71 74.5t-26 113.5v318h135v-285q0 -67 27 -98t77 -31q43 0 75.5 31t32.5 98v285h135v-520h-131v78q-19 -45 -55.5 -67.5t-97.5 -22.5zM435 -213q-57 0 -88.5 28.5t-31.5 74.5q0 32 15.5 56.5t55.5 53.5l23 17l79 -17l-51 -37q-16 -11 -22 -22.5
t-6 -23.5q0 -19 16 -27.5t35 -8.5q9 0 15 1.5t11 2.5l24 -87q-21 -6 -39.5 -8.5t-35.5 -2.5z" />
    <glyph glyph-name="Wcircumflex" unicode="&#x174;" horiz-adv-x="1044" 
d="M225 0l-234 700h160l112 -396q9 -30 16.5 -60.5t11.5 -59.5q4 29 11 60t18 60l139 396h126l139 -396q22 -61 31 -120q4 29 10.5 59.5t15.5 60.5l112 396h160l-234 -700h-126l-142 395q-20 55 -29 115q-5 -29 -12 -58t-17 -57l-142 -395h-126zM373 746l101 174h109
l98 -174h-117l-36 80l-36 -80h-119z" />
    <glyph glyph-name="wcircumflex" unicode="&#x175;" horiz-adv-x="796" 
d="M149 0l-162 520h158l67 -295q4 -19 8.5 -39.5t7.5 -39.5q6 40 17 80l76 294h155l81 -294q11 -40 17 -80q3 19 7.5 39.5t8.5 39.5l72 295h147l-162 -520h-146l-85 296q-12 39 -18 78q-3 -19 -7 -39t-9 -39l-78 -296h-155zM243 566l101 174h109l98 -174h-117l-36 80
l-36 -80h-119z" />
    <glyph glyph-name="Ycircumflex" unicode="&#x176;" horiz-adv-x="566" 
d="M211 0v281l-237 419h154l110 -201q13 -24 26.5 -50t20.5 -52q7 26 19.5 51.5t25.5 50.5l105 201h153l-237 -422v-278h-140zM128 746l101 174h109l98 -174h-117l-36 80l-36 -80h-119z" />
    <glyph glyph-name="ycircumflex" unicode="&#x177;" horiz-adv-x="539" 
d="M93 -209q-20 0 -45 2t-45 8l20 129q28 -7 61 -7q39 0 64 22.5t36 56.5l7 22l-206 496h163l101 -297q14 -40 22 -83q8 43 22 83l101 297h160l-230 -553q-33 -79 -86 -127.5t-145 -48.5zM112 566l101 174h109l98 -174h-117l-36 80l-36 -80h-119z" />
    <glyph glyph-name="Ydieresis" unicode="&#x178;" horiz-adv-x="566" 
d="M211 0v281l-237 419h154l110 -201q13 -24 26.5 -50t20.5 -52q7 26 19.5 51.5t25.5 50.5l105 201h153l-237 -422v-278h-140zM389 743q-34 0 -57.5 23.5t-23.5 56.5q0 32 23.5 55.5t57.5 23.5q35 0 58 -23.5t23 -55.5q0 -34 -23 -57t-58 -23zM177 743q-34 0 -57.5 23.5
t-23.5 56.5q0 32 23.5 55.5t57.5 23.5q35 0 58 -23.5t23 -55.5q0 -34 -23 -57t-58 -23z" />
    <glyph glyph-name="Zacute" unicode="&#x179;" horiz-adv-x="588" 
d="M10 0v15l318 530q10 17 23 32h-322v123h545v-15l-318 -530q-10 -17 -23 -32h341v-123h-564zM236 746l44 174h138l-88 -174h-94z" />
    <glyph glyph-name="zacute" unicode="&#x17a;" horiz-adv-x="491" 
d="M14 0v15l228 361q9 15 24 32h-241v112h448v-15l-230 -367q-8 -12 -19 -26h244v-112h-454zM201 566l44 174h138l-88 -174h-94z" />
    <glyph glyph-name="Zdotaccent" unicode="&#x17b;" horiz-adv-x="588" 
d="M10 0v15l318 530q10 17 23 32h-322v123h545v-15l-318 -530q-10 -17 -23 -32h341v-123h-564zM285 743q-34 0 -57.5 23.5t-23.5 56.5q0 32 23.5 55.5t57.5 23.5q35 0 58 -23.5t23 -55.5q0 -34 -23 -57t-58 -23z" />
    <glyph glyph-name="zdotaccent" unicode="&#x17c;" horiz-adv-x="491" 
d="M14 0v15l228 361q9 15 24 32h-241v112h448v-15l-230 -367q-8 -12 -19 -26h244v-112h-454zM250 563q-34 0 -57.5 23.5t-23.5 56.5q0 32 23.5 55.5t57.5 23.5q35 0 58 -23.5t23 -55.5q0 -34 -23 -57t-58 -23z" />
    <glyph glyph-name="Zcaron" unicode="&#x17d;" horiz-adv-x="588" 
d="M10 0v15l318 530q10 17 23 32h-322v123h545v-15l-318 -530q-10 -17 -23 -32h341v-123h-564zM130 920h119l36 -80l36 80h117l-98 -174h-109z" />
    <glyph glyph-name="zcaron" unicode="&#x17e;" horiz-adv-x="491" 
d="M14 0v15l228 361q9 15 24 32h-241v112h448v-15l-230 -367q-8 -12 -19 -26h244v-112h-454zM95 740h119l36 -80l36 80h117l-98 -174h-109z" />
    <glyph glyph-name="uni018F" unicode="&#x18f;" horiz-adv-x="755" 
d="M374 -17q-78 0 -142.5 28.5t-111.5 79t-72.5 116.5t-25.5 141q0 15 1 27t4 28h545q-12 77 -61 126.5t-149 49.5q-55 0 -102.5 -28.5t-74.5 -74.5l-120 90q28 43 74 75.5t103 51t119 18.5q127 0 208.5 -49t121 -131.5t39.5 -182.5q0 -75 -26 -141t-74 -116.5t-113 -79
t-143 -28.5zM380 110q78 0 129 49t64 127l-393 -7q10 -46 37.5 -84.5t69 -61.5t93.5 -23z" />
    <glyph glyph-name="florin" unicode="&#x192;" 
d="M38 0v116h77q35 0 58 16.5t33 63.5l27 119h-165v110h189l22 96q16 70 46 109t72.5 54.5t92.5 15.5h73v-117h-62q-40 0 -63.5 -16t-34.5 -63l-18 -79h148v-110h-172l-31 -136q-15 -70 -45.5 -108.5t-71 -54.5t-87.5 -16h-88z" />
    <glyph glyph-name="Ohorn" unicode="&#x1a0;" horiz-adv-x="778" 
d="M390 -13q-78 0 -144.5 28t-116 78t-77 115.5t-27.5 140.5t27.5 141t77 116t116 78.5t144.5 28.5t144 -28.5t115 -78.5t76.5 -116t27.5 -141t-27.5 -140.5t-76.5 -115.5t-115 -78t-144 -28zM390 117q68 0 116.5 31.5t75 84.5t26.5 116q0 64 -26.5 117t-75 85t-116.5 32
t-117.5 -32t-76 -85t-26.5 -117q0 -63 26.5 -116t76 -84.5t117.5 -31.5zM504 609l-8 88h13q44 0 62 17t18 72v32h114v-40q0 -84 -48 -126.5t-151 -42.5z" />
    <glyph glyph-name="ohorn" unicode="&#x1a1;" horiz-adv-x="594" 
d="M297 -13q-80 0 -143 37t-98.5 98.5t-35.5 136.5t35.5 137t98.5 99t143 37q81 0 143.5 -37t98 -99t35.5 -137t-35.5 -136.5t-98 -98.5t-143.5 -37zM297 110q43 0 75 20.5t49.5 54.5t17.5 74q0 41 -17.5 75t-49.5 54.5t-75 20.5t-75 -20.5t-49.5 -54.5t-17.5 -75
q0 -40 17.5 -74t49.5 -54.5t75 -20.5zM386 432l-8 88h13q44 0 62 17t18 72v32h114v-40q0 -84 -48 -126.5t-151 -42.5z" />
    <glyph glyph-name="Uhorn" unicode="&#x1af;" horiz-adv-x="646" 
d="M323 -13q-85 0 -149 34.5t-99 96t-35 141.5v441h140v-426q0 -74 35.5 -116.5t107.5 -42.5t107.5 42.5t35.5 116.5v426h140v-441q0 -80 -35 -141.5t-98.5 -96t-149.5 -34.5zM513 612l-8 88h13q44 0 62 17t18 72v32h114v-40q0 -84 -48 -126.5t-151 -42.5z" />
    <glyph glyph-name="uhorn" unicode="&#x1b0;" horiz-adv-x="574" 
d="M233 -12q-56 0 -101 26t-71 74.5t-26 113.5v318h135v-285q0 -67 27 -98t77 -31q43 0 75.5 31t32.5 98v285h135v-520h-131v78q-19 -45 -55.5 -67.5t-97.5 -22.5zM415 432l-8 88h13q44 0 62 17t18 72v32h114v-40q0 -84 -48 -126.5t-151 -42.5z" />
    <glyph glyph-name="uni01E2" unicode="&#x1e2;" horiz-adv-x="971" 
d="M-30 0l472 700h488v-126h-270v-157h265v-122h-265v-169h272v-126h-412v139h-301l-87 -139h-162zM416 445l-132 -196h236v323h-24q-15 -32 -38 -65t-42 -62zM438 778v90h306v-90h-306z" />
    <glyph glyph-name="uni01E3" unicode="&#x1e3;" horiz-adv-x="1031" 
d="M277 -13q-71 0 -129.5 36.5t-93 98t-34.5 136.5q0 56 20 105.5t55 87t81.5 59t100.5 21.5q55 0 96.5 -17.5t67.5 -47.5v54h135v-59q27 32 71.5 51.5t105.5 19.5q76 0 134 -37t91.5 -99t33.5 -137q0 -11 -1 -23.5t-3 -25.5h-396q11 -45 43.5 -72.5t87.5 -27.5
q47 0 80.5 18.5t49.5 48.5l107 -79q-31 -49 -92 -79.5t-135 -30.5q-61 0 -105.5 19t-71.5 51v-58h-131v56q-26 -32 -68.5 -50.5t-99.5 -18.5zM741 417q-49 0 -83.5 -26.5t-47.5 -70.5h264q-13 40 -48 68.5t-85 28.5zM299 109q45 0 77.5 20.5t50.5 54.5t18 74q0 41 -18 75
t-50.5 55t-77.5 21q-43 0 -75 -20.5t-49.5 -54.5t-17.5 -75q0 -39 17.5 -73.5t49.5 -55.5t75 -21zM355 598v90h306v-90h-306z" />
    <glyph glyph-name="uni0218" unicode="&#x218;" horiz-adv-x="556" 
d="M278 -13q-83 0 -152.5 35.5t-115.5 115.5l121 77q27 -54 68 -78.5t87 -24.5q49 0 77 22t28 58q0 35 -22 56t-58.5 34t-79.5 24q-81 21 -129 69.5t-48 127.5q0 63 31 110t86.5 73t129.5 26q82 0 137 -34t94 -96l-120 -74q-25 41 -52 60t-66 19q-42 0 -69.5 -21t-27.5 -56
q0 -39 32.5 -56.5t78.5 -31.5q31 -10 69.5 -23.5t74.5 -37t59 -62.5t23 -99q0 -63 -31 -111t-88 -75t-137 -27zM179 -200l34 155h138l-98 -155h-74z" />
    <glyph glyph-name="uni0219" unicode="&#x219;" horiz-adv-x="433" 
d="M218 -13q-131 0 -216 91l91 83q57 -64 122 -64q35 0 53.5 15.5t18.5 38.5q0 14 -6.5 24t-27 19t-61.5 18q-70 17 -104 42t-45 56t-11 64q0 68 51.5 113.5t142.5 45.5q63 0 108 -19t85 -71l-98 -75q-19 30 -42.5 43t-49.5 13q-28 0 -46.5 -11t-18.5 -35q0 -13 12 -25.5
t58 -24.5q76 -19 116 -44.5t55 -57.5t15 -71q0 -48 -26.5 -86t-72 -60t-103.5 -22zM115 -200l34 155h138l-98 -155h-74z" />
    <glyph glyph-name="uni021A" unicode="&#x21a;" horiz-adv-x="570" 
d="M215 0v574h-200v126h540v-126h-200v-574h-140zM182 -200l34 155h138l-98 -155h-74z" />
    <glyph glyph-name="uni021B" unicode="&#x21b;" horiz-adv-x="328" 
d="M237 0q-77 0 -118 38t-41 123v244h-73v115h73v105l135 14v-119h110v-115h-110v-237q0 -48 42 -48h56v-120h-74zM94 -200l34 155h138l-98 -155h-74z" />
    <glyph glyph-name="uni0237" unicode="&#x237;" horiz-adv-x="215" 
d="M-28 -200v120h26q42 0 42 48v552h135v-559q0 -85 -41 -123t-118 -38h-44z" />
    <glyph glyph-name="uni0259" unicode="&#x259;" horiz-adv-x="570" 
d="M283 -17q-78 0 -137.5 37t-93 99.5t-33.5 137.5q0 11 1 23t3 25h387q-10 46 -42.5 75t-94.5 29q-36 0 -67.5 -19t-49.5 -49l-105 79q32 49 92 79t130 30q95 0 156.5 -36.5t91 -98.5t29.5 -137t-34 -137.5t-94.5 -99.5t-138.5 -37zM285 99q48 0 81 29t44 76h-255
q11 -43 45.5 -74t84.5 -31z" />
    <glyph glyph-name="circumflex" unicode="&#x2c6;" 
d="M146 566l101 174h109l98 -174h-117l-36 80l-36 -80h-119z" />
    <glyph glyph-name="caron" unicode="&#x2c7;" 
d="M146 740h119l36 -80l36 80h117l-98 -174h-109z" />
    <glyph glyph-name="breve" unicode="&#x2d8;" 
d="M300 557q-73 0 -116.5 39t-43.5 100h107q-1 -21 12.5 -38.5t40.5 -17.5q29 0 41.5 17.5t11.5 38.5h107q0 -61 -43 -100t-117 -39z" />
    <glyph glyph-name="dotaccent" unicode="&#x2d9;" horiz-adv-x="530" 
d="M265 563q-34 0 -57.5 23.5t-23.5 56.5q0 32 23.5 55.5t57.5 23.5q35 0 58 -23.5t23 -55.5q0 -34 -23 -57t-58 -23z" />
    <glyph glyph-name="ring" unicode="&#x2da;" 
d="M300 557q-43 0 -75 31t-32 74q0 44 32 74.5t75 30.5q44 0 75.5 -30.5t31.5 -74.5q0 -43 -31.5 -74t-75.5 -31zM300 624q15 0 25.5 11.5t10.5 26.5t-10.5 26t-25.5 11t-26.5 -11t-11.5 -26t11.5 -26.5t26.5 -11.5z" />
    <glyph glyph-name="ogonek" unicode="&#x2db;" 
d="M418 -213q-57 0 -88.5 28.5t-31.5 74.5q0 32 15.5 56.5t55.5 53.5l23 17l79 -17l-51 -37q-16 -11 -22 -22.5t-6 -23.5q0 -19 16 -27.5t35 -8.5q9 0 15 1.5t11 2.5l24 -87q-21 -6 -39.5 -8.5t-35.5 -2.5z" />
    <glyph glyph-name="tilde" unicode="&#x2dc;" 
d="M381 557q-30 0 -50.5 9.5t-35.5 22.5t-30 22.5t-35 9.5q-27 0 -36.5 -17t-9.5 -33h-86q0 47 19.5 78t50 46.5t63.5 15.5q30 0 51.5 -9.5t38 -21.5t30.5 -21.5t29 -9.5q23 0 29 18.5t6 32.5h87q0 -64 -30 -103.5t-91 -39.5z" />
    <glyph glyph-name="hungarumlaut" unicode="&#x2dd;" 
d="M305 566l32 174h133l-96 -174h-69zM140 566l32 174h133l-96 -174h-69z" />
    <glyph glyph-name="gravecomb" unicode="&#x300;" horiz-adv-x="0" 
d="M-43 566l-99 174h159l34 -174h-94z" />
    <glyph glyph-name="acutecomb" unicode="&#x301;" horiz-adv-x="0" 
d="M-49 566l44 174h138l-88 -174h-94z" />
    <glyph glyph-name="uni0302" unicode="&#x302;" horiz-adv-x="0" 
d="M-155 566l101 174h109l98 -174h-117l-36 80l-36 -80h-119z" />
    <glyph glyph-name="tildecomb" unicode="&#x303;" horiz-adv-x="0" 
d="M81 557q-30 0 -50.5 9.5t-35.5 22.5t-30 22.5t-35 9.5q-27 0 -36.5 -17t-9.5 -33h-86q0 47 19.5 78t50 46.5t63.5 15.5q30 0 51.5 -9.5t38 -21.5t30.5 -21.5t29 -9.5q23 0 29 18.5t6 32.5h87q0 -64 -30 -103.5t-91 -39.5z" />
    <glyph glyph-name="uni0304" unicode="&#x304;" horiz-adv-x="0" 
d="M-153 598v90h306v-90h-306z" />
    <glyph glyph-name="uni0306" unicode="&#x306;" horiz-adv-x="0" 
d="M0 557q-73 0 -116.5 39t-43.5 100h107q-1 -21 12.5 -38.5t40.5 -17.5q29 0 41.5 17.5t11.5 38.5h107q0 -61 -43 -100t-117 -39z" />
    <glyph glyph-name="uni0307" unicode="&#x307;" horiz-adv-x="0" 
d="M0 563q-34 0 -57.5 23.5t-23.5 56.5q0 32 23.5 55.5t57.5 23.5q35 0 58 -23.5t23 -55.5q0 -34 -23 -57t-58 -23z" />
    <glyph glyph-name="uni0308" unicode="&#x308;" horiz-adv-x="0" 
d="M106 563q-34 0 -57.5 23.5t-23.5 56.5q0 32 23.5 55.5t57.5 23.5q35 0 58 -23.5t23 -55.5q0 -34 -23 -57t-58 -23zM-106 563q-34 0 -57.5 23.5t-23.5 56.5q0 32 23.5 55.5t57.5 23.5q35 0 58 -23.5t23 -55.5q0 -34 -23 -57t-58 -23z" />
    <glyph glyph-name="hookabovecomb" unicode="&#x309;" horiz-adv-x="0" 
d="M-1 557q-28 0 -56 13l23 67q5 -3 12 -4t11 -1q34 0 34 30q0 11 -8.5 19t-19.5 8q-13 0 -21 -8t-8 -22h-84q0 48 33 78t81 30q49 0 81.5 -27.5t32.5 -74.5q0 -49 -30 -78.5t-81 -29.5z" />
    <glyph glyph-name="uni030A" unicode="&#x30a;" horiz-adv-x="0" 
d="M0 557q-43 0 -75 31t-32 74q0 44 32 74.5t75 30.5q44 0 75.5 -30.5t31.5 -74.5q0 -43 -31.5 -74t-75.5 -31zM0 624q15 0 25.5 11.5t10.5 26.5t-10.5 26t-25.5 11t-26.5 -11t-11.5 -26t11.5 -26.5t26.5 -11.5z" />
    <glyph glyph-name="uni030B" unicode="&#x30b;" horiz-adv-x="0" 
d="M39 566l32 174h133l-96 -174h-69zM-126 566l32 174h133l-96 -174h-69z" />
    <glyph glyph-name="uni030C" unicode="&#x30c;" horiz-adv-x="0" 
d="M-155 740h119l36 -80l36 80h117l-98 -174h-109z" />
    <glyph glyph-name="uni030F" unicode="&#x30f;" horiz-adv-x="0" 
d="M3 566h-69l-96 174h133zM168 566h-69l-96 174h133z" />
    <glyph glyph-name="uni0311" unicode="&#x311;" horiz-adv-x="0" 
d="M0 705q74 0 117 -39t43 -100h-107q1 21 -12.5 38.5t-40.5 17.5q-28 0 -41 -17.5t-12 -38.5h-107q0 61 43 100t117 39z" />
    <glyph glyph-name="uni0312" unicode="&#x312;" horiz-adv-x="0" 
d="M-92 566l99 174h94l-34 -174h-159z" />
    <glyph glyph-name="uni031B" unicode="&#x31b;" horiz-adv-x="0" 
d="M52 432l-8 88h13q44 0 62 17t18 72v32h114v-40q0 -84 -48 -126.5t-151 -42.5z" />
    <glyph glyph-name="dotbelowcomb" unicode="&#x323;" horiz-adv-x="0" 
d="M-1 -213q-34 0 -57.5 23.5t-23.5 56.5q0 32 23.5 55.5t57.5 23.5q35 0 58 -23.5t23 -55.5q0 -34 -23 -57t-58 -23z" />
    <glyph glyph-name="uni0324" unicode="&#x324;" horiz-adv-x="0" 
d="M106 -214q-34 0 -57.5 23.5t-23.5 56.5q0 32 23.5 55.5t57.5 23.5q35 0 58 -23.5t23 -55.5q0 -34 -23 -57t-58 -23zM-106 -214q-34 0 -57.5 23.5t-23.5 56.5q0 32 23.5 55.5t57.5 23.5q35 0 58 -23.5t23 -55.5q0 -34 -23 -57t-58 -23z" />
    <glyph glyph-name="uni0326" unicode="&#x326;" horiz-adv-x="0" 
d="M-103 -200l34 155h138l-98 -155h-74z" />
    <glyph glyph-name="uni0327" unicode="&#x327;" horiz-adv-x="0" 
d="M-21 -213q-28 0 -46.5 5.5t-47.5 26.5l46 58q8 -7 18 -12t21 -5t21 6t10 22q0 11 -8 17t-17 6q-13 0 -22 -3l-4 3l42 95l60 4l-25 -53q27 -8 40 -30t13 -47q0 -47 -31.5 -70t-69.5 -23z" />
    <glyph glyph-name="uni0328" unicode="&#x328;" horiz-adv-x="0" 
d="M49 -213q-57 0 -88.5 28.5t-31.5 74.5q0 32 15.5 56.5t55.5 53.5l23 17l79 -17l-51 -37q-16 -11 -22 -22.5t-6 -23.5q0 -19 16 -27.5t35 -8.5q9 0 15 1.5t11 2.5l24 -87q-21 -6 -39.5 -8.5t-35.5 -2.5z" />
    <glyph glyph-name="uni032E" unicode="&#x32e;" horiz-adv-x="0" 
d="M0 -221q-73 0 -116.5 39t-43.5 100h107q-1 -21 12.5 -38.5t40.5 -17.5q29 0 41.5 17.5t11.5 38.5h107q0 -61 -43 -100t-117 -39z" />
    <glyph glyph-name="uni0331" unicode="&#x331;" horiz-adv-x="0" 
d="M-153 -181v90h306v-90h-306z" />
    <glyph glyph-name="uni0335" unicode="&#x335;" horiz-adv-x="0" 
d="M-191 291v118h379v-118h-379z" />
    <glyph glyph-name="uni0338" unicode="&#x338;" horiz-adv-x="0" 
d="M19 -40l463 600h69l-463 -600h-69z" />
    <glyph glyph-name="pi" unicode="&#x3c0;" horiz-adv-x="541" 
d="M85 0v405h-74v115h515v-115h-58v-247q0 -22 11.5 -31t33.5 -9h14v-118h-45q-40 0 -74 13t-54.5 44t-20.5 85v263h-113v-405h-135z" />
    <glyph glyph-name="uni1E0C" unicode="&#x1e0c;" horiz-adv-x="684" 
d="M50 0v700h250q121 0 200.5 -46t119 -125t39.5 -180q0 -100 -39.5 -179t-119 -124.5t-200.5 -45.5h-250zM283 574h-93v-448h93q83 0 134 29.5t74 80t23 113.5q0 64 -23 114.5t-74 80.5t-134 30zM309 -213q-34 0 -57.5 23.5t-23.5 56.5q0 32 23.5 55.5t57.5 23.5
q35 0 58 -23.5t23 -55.5q0 -34 -23 -57t-58 -23z" />
    <glyph glyph-name="uni1E0D" unicode="&#x1e0d;" horiz-adv-x="616" 
d="M277 -13q-71 0 -129.5 36.5t-93 98t-34.5 136.5q0 56 20 105.5t55 87t81.5 59t100.5 21.5q67 0 105 -25t59 -66v290h135v-730h-131v85q-21 -44 -59.5 -71t-108.5 -27zM299 109q45 0 77.5 20.5t50.5 54.5t18 74q0 41 -18 75t-50.5 55t-77.5 21q-43 0 -75.5 -20.5
t-50.5 -54.5t-18 -75q0 -39 18 -73.5t50.5 -55.5t75.5 -21zM279 -213q-34 0 -57.5 23.5t-23.5 56.5q0 32 23.5 55.5t57.5 23.5q35 0 58 -23.5t23 -55.5q0 -34 -23 -57t-58 -23z" />
    <glyph glyph-name="uni1E20" unicode="&#x1e20;" horiz-adv-x="752" 
d="M390 -13q-78 0 -144.5 28t-116 78t-77 115.5t-27.5 140.5t27.5 141t77 116t116 78.5t144.5 28.5q89 0 151.5 -28.5t105.5 -81.5l-100 -86q-28 31 -68 48.5t-89 17.5q-67 0 -116.5 -32t-76.5 -85t-27 -117t27 -117t76.5 -85t116.5 -32q83 0 134 39.5t63 121.5l-230 -2v126
h365q2 -16 3.5 -38.5t1.5 -39.5q0 -97 -40.5 -172.5t-116 -119t-180.5 -43.5zM238 778v90h306v-90h-306z" />
    <glyph glyph-name="uni1E21" unicode="&#x1e21;" horiz-adv-x="604" 
d="M293 -213q-79 0 -140.5 21.5t-108.5 76.5l84 99q37 -42 77 -57t89 -15q36 0 67 18t49.5 50.5t18.5 73.5v23q-21 -36 -57.5 -58t-99.5 -22q-71 0 -128.5 36t-90.5 96.5t-33 135.5t33 136t90.5 96.5t128.5 35.5q65 0 101.5 -23t57.5 -61v71h133v-474q0 -80 -34.5 -138
t-95.5 -89.5t-141 -31.5zM294 120q67 0 104 42t37 103t-37 103t-104 42q-66 0 -102.5 -42t-36.5 -103q0 -39 16.5 -72t47.5 -53t75 -20zM136 598v90h306v-90h-306z" />
    <glyph glyph-name="uni1E24" unicode="&#x1e24;" horiz-adv-x="670" 
d="M50 0v700h140v-282h290v282h140v-700h-140v292h-290v-292h-140zM335 -213q-34 0 -57.5 23.5t-23.5 56.5q0 32 23.5 55.5t57.5 23.5q35 0 58 -23.5t23 -55.5q0 -34 -23 -57t-58 -23z" />
    <glyph glyph-name="uni1E25" unicode="&#x1e25;" horiz-adv-x="565" 
d="M40 0v730h135v-282q42 84 157 84q56 0 101 -26t71 -74t26 -114v-318h-135v285q0 68 -31 98.5t-81 30.5q-43 0 -75.5 -30.5t-32.5 -98.5v-285h-135zM290 -213q-34 0 -57.5 23.5t-23.5 56.5q0 32 23.5 55.5t57.5 23.5q35 0 58 -23.5t23 -55.5q0 -34 -23 -57t-58 -23z" />
    <glyph glyph-name="uni1E2A" unicode="&#x1e2a;" horiz-adv-x="670" 
d="M50 0v700h140v-282h290v282h140v-700h-140v292h-290v-292h-140zM335 -221q-73 0 -116.5 39t-43.5 100h107q-1 -21 12.5 -38.5t40.5 -17.5q29 0 41.5 17.5t11.5 38.5h107q0 -61 -43 -100t-117 -39z" />
    <glyph glyph-name="uni1E2B" unicode="&#x1e2b;" horiz-adv-x="565" 
d="M40 0v730h135v-282q42 84 157 84q56 0 101 -26t71 -74t26 -114v-318h-135v285q0 68 -31 98.5t-81 30.5q-43 0 -75.5 -30.5t-32.5 -98.5v-285h-135zM290 -221q-73 0 -116.5 39t-43.5 100h107q-1 -21 12.5 -38.5t40.5 -17.5q29 0 41.5 17.5t11.5 38.5h107q0 -61 -43 -100
t-117 -39z" />
    <glyph glyph-name="uni1E34" unicode="&#x1e34;" horiz-adv-x="588" 
d="M50 0v700h140v-289l218 289h183l-271 -328l291 -372h-179l-242 309v-309h-140zM150 -181v90h306v-90h-306z" />
    <glyph glyph-name="uni1E35" unicode="&#x1e35;" horiz-adv-x="558" 
d="M40 0v730h135v-420l195 210h192l-245 -242l246 -278h-179l-209 247v-247h-135zM120 -181v90h306v-90h-306z" />
    <glyph glyph-name="uni1E36" unicode="&#x1e36;" horiz-adv-x="476" 
d="M50 0v700h140v-574h261v-126h-401zM263 -213q-34 0 -57.5 23.5t-23.5 56.5q0 32 23.5 55.5t57.5 23.5q35 0 58 -23.5t23 -55.5q0 -34 -23 -57t-58 -23z" />
    <glyph glyph-name="uni1E37" unicode="&#x1e37;" horiz-adv-x="215" 
d="M40 0v730h135v-730h-135zM110 -213q-34 0 -57.5 23.5t-23.5 56.5q0 32 23.5 55.5t57.5 23.5q35 0 58 -23.5t23 -55.5q0 -34 -23 -57t-58 -23z" />
    <glyph glyph-name="uni1E38" unicode="&#x1e38;" horiz-adv-x="476" 
d="M50 0v700h140v-574h261v-126h-401zM263 -213q-34 0 -57.5 23.5t-23.5 56.5q0 32 23.5 55.5t57.5 23.5q35 0 58 -23.5t23 -55.5q0 -34 -23 -57t-58 -23zM-36 778v90h306v-90h-306z" />
    <glyph glyph-name="uni1E39" unicode="&#x1e39;" horiz-adv-x="215" 
d="M40 0v730h135v-730h-135zM110 -213q-34 0 -57.5 23.5t-23.5 56.5q0 32 23.5 55.5t57.5 23.5q35 0 58 -23.5t23 -55.5q0 -34 -23 -57t-58 -23zM-49 808v90h306v-90h-306z" />
    <glyph glyph-name="uni1E3A" unicode="&#x1e3a;" horiz-adv-x="476" 
d="M50 0v700h140v-574h261v-126h-401zM110 -181v90h306v-90h-306z" />
    <glyph glyph-name="uni1E3B" unicode="&#x1e3b;" horiz-adv-x="215" 
d="M40 0v730h135v-730h-135zM-43 -181v90h306v-90h-306z" />
    <glyph glyph-name="uni1E40" unicode="&#x1e40;" horiz-adv-x="888" 
d="M50 0v700h174l145 -309q25 -54 40.5 -89t24 -58t13.5 -40q5 17 13 40t23.5 58t40.5 89l146 309h168v-700h-137v283q0 48 1 82t3 62.5t6 58.5l-233 -486h-68l-233 486q4 -30 6 -58.5t3 -62.5t1 -82v-283h-137zM443 743q-34 0 -57.5 23.5t-23.5 56.5q0 32 23.5 55.5
t57.5 23.5q35 0 58 -23.5t23 -55.5q0 -34 -23 -57t-58 -23z" />
    <glyph glyph-name="uni1E41" unicode="&#x1e41;" horiz-adv-x="910" 
d="M40 0v520h133v-76q41 88 159 88q55 0 99 -25.5t70 -72.5q26 47 66.5 72.5t109.5 25.5q56 0 101 -26t71 -74t26 -114v-318h-135v285q0 68 -29 98.5t-75 30.5q-47 0 -76.5 -27t-29.5 -102v-285h-135v285q0 68 -31 98.5t-81 30.5q-43 0 -75.5 -30.5t-32.5 -98.5v-285h-135z
M473 563q-34 0 -57.5 23.5t-23.5 56.5q0 32 23.5 55.5t57.5 23.5q35 0 58 -23.5t23 -55.5q0 -34 -23 -57t-58 -23z" />
    <glyph glyph-name="uni1E42" unicode="&#x1e42;" horiz-adv-x="888" 
d="M50 0v700h174l145 -309q25 -54 40.5 -89t24 -58t13.5 -40q5 17 13 40t23.5 58t40.5 89l146 309h168v-700h-137v283q0 48 1 82t3 62.5t6 58.5l-233 -486h-68l-233 486q4 -30 6 -58.5t3 -62.5t1 -82v-283h-137zM444 -213q-34 0 -57.5 23.5t-23.5 56.5q0 32 23.5 55.5
t57.5 23.5q35 0 58 -23.5t23 -55.5q0 -34 -23 -57t-58 -23z" />
    <glyph glyph-name="uni1E43" unicode="&#x1e43;" horiz-adv-x="910" 
d="M40 0v520h133v-76q41 88 159 88q55 0 99 -25.5t70 -72.5q26 47 66.5 72.5t109.5 25.5q56 0 101 -26t71 -74t26 -114v-318h-135v285q0 68 -29 98.5t-75 30.5q-47 0 -76.5 -27t-29.5 -102v-285h-135v285q0 68 -31 98.5t-81 30.5q-43 0 -75.5 -30.5t-32.5 -98.5v-285h-135z
M461 -213q-34 0 -57.5 23.5t-23.5 56.5q0 32 23.5 55.5t57.5 23.5q35 0 58 -23.5t23 -55.5q0 -34 -23 -57t-58 -23z" />
    <glyph glyph-name="uni1E44" unicode="&#x1e44;" horiz-adv-x="716" 
d="M50 0v700h106l341 -405q12 -14 23.5 -28.5t22.5 -29.5q-3 22 -4 52.5t-1 61.5v349h128v-700h-91l-354 421q-12 14 -23.5 28.5t-22.5 29.5q3 -22 4 -52.5t1 -61.5v-365h-130zM376 743q-34 0 -57.5 23.5t-23.5 56.5q0 32 23.5 55.5t57.5 23.5q35 0 58 -23.5t23 -55.5
q0 -34 -23 -57t-58 -23z" />
    <glyph glyph-name="uni1E45" unicode="&#x1e45;" horiz-adv-x="565" 
d="M40 0v520h133v-76q41 88 159 88q56 0 101 -26t71 -74t26 -114v-318h-135v285q0 68 -31 98.5t-81 30.5q-43 0 -75.5 -30.5t-32.5 -98.5v-285h-135zM296 568q-34 0 -57.5 23.5t-23.5 56.5q0 32 23.5 55.5t57.5 23.5q35 0 58 -23.5t23 -55.5q0 -34 -23 -57t-58 -23z" />
    <glyph glyph-name="uni1E46" unicode="&#x1e46;" horiz-adv-x="716" 
d="M50 0v700h106l341 -405q12 -14 23.5 -28.5t22.5 -29.5q-3 22 -4 52.5t-1 61.5v349h128v-700h-91l-354 421q-12 14 -23.5 28.5t-22.5 29.5q3 -22 4 -52.5t1 -61.5v-365h-130zM385 -213q-34 0 -57.5 23.5t-23.5 56.5q0 32 23.5 55.5t57.5 23.5q35 0 58 -23.5t23 -55.5
q0 -34 -23 -57t-58 -23z" />
    <glyph glyph-name="uni1E47" unicode="&#x1e47;" horiz-adv-x="565" 
d="M40 0v520h133v-76q41 88 159 88q56 0 101 -26t71 -74t26 -114v-318h-135v285q0 68 -31 98.5t-81 30.5q-43 0 -75.5 -30.5t-32.5 -98.5v-285h-135zM288 -213q-34 0 -57.5 23.5t-23.5 56.5q0 32 23.5 55.5t57.5 23.5q35 0 58 -23.5t23 -55.5q0 -34 -23 -57t-58 -23z" />
    <glyph glyph-name="uni1E48" unicode="&#x1e48;" horiz-adv-x="716" 
d="M50 0v700h106l341 -405q12 -14 23.5 -28.5t22.5 -29.5q-3 22 -4 52.5t-1 61.5v349h128v-700h-91l-354 421q-12 14 -23.5 28.5t-22.5 29.5q3 -22 4 -52.5t1 -61.5v-365h-130zM232 -181v90h306v-90h-306z" />
    <glyph glyph-name="uni1E49" unicode="&#x1e49;" horiz-adv-x="565" 
d="M40 0v520h133v-76q41 88 159 88q56 0 101 -26t71 -74t26 -114v-318h-135v285q0 68 -31 98.5t-81 30.5q-43 0 -75.5 -30.5t-32.5 -98.5v-285h-135zM135 -181v90h306v-90h-306z" />
    <glyph glyph-name="uni1E5C" unicode="&#x1e5c;" horiz-adv-x="551" 
d="M50 0v700h226q118 0 185.5 -54.5t67.5 -157.5q0 -83 -44.5 -134t-123.5 -68l196 -286h-165l-149 222q-14 21 -27 51h-26v-273h-140zM190 399h78q57 0 88 22.5t31 65.5q0 42 -31 64.5t-88 22.5h-78v-175zM305 -213q-34 0 -57.5 23.5t-23.5 56.5q0 32 23.5 55.5t57.5 23.5
q35 0 58 -23.5t23 -55.5q0 -34 -23 -57t-58 -23zM128 778v90h306v-90h-306z" />
    <glyph glyph-name="uni1E5D" unicode="&#x1e5d;" horiz-adv-x="337" 
d="M40 0v520h131v-99q13 56 53 85.5t108 25.5v-127h-19q-58 0 -98 -37t-40 -102v-266h-135zM106 -213q-34 0 -57.5 23.5t-23.5 56.5q0 32 23.5 55.5t57.5 23.5q35 0 58 -23.5t23 -55.5q0 -34 -23 -57t-58 -23zM55 598v90h306v-90h-306z" />
    <glyph glyph-name="uni1E5E" unicode="&#x1e5e;" horiz-adv-x="551" 
d="M50 0v700h226q118 0 185.5 -54.5t67.5 -157.5q0 -83 -44.5 -134t-123.5 -68l196 -286h-165l-149 222q-14 21 -27 51h-26v-273h-140zM190 399h78q57 0 88 22.5t31 65.5q0 42 -31 64.5t-88 22.5h-78v-175zM152 -181v90h306v-90h-306z" />
    <glyph glyph-name="uni1E5F" unicode="&#x1e5f;" horiz-adv-x="337" 
d="M40 0v520h131v-99q13 56 53 85.5t108 25.5v-127h-19q-58 0 -98 -37t-40 -102v-266h-135zM-47 -181v90h306v-90h-306z" />
    <glyph glyph-name="uni1E62" unicode="&#x1e62;" horiz-adv-x="556" 
d="M278 -13q-83 0 -152.5 35.5t-115.5 115.5l121 77q27 -54 68 -78.5t87 -24.5q49 0 77 22t28 58q0 35 -22 56t-58.5 34t-79.5 24q-81 21 -129 69.5t-48 127.5q0 63 31 110t86.5 73t129.5 26q82 0 137 -34t94 -96l-120 -74q-25 41 -52 60t-66 19q-42 0 -69.5 -21t-27.5 -56
q0 -39 32.5 -56.5t78.5 -31.5q31 -10 69.5 -23.5t74.5 -37t59 -62.5t23 -99q0 -63 -31 -111t-88 -75t-137 -27zM282 -213q-34 0 -57.5 23.5t-23.5 56.5q0 32 23.5 55.5t57.5 23.5q35 0 58 -23.5t23 -55.5q0 -34 -23 -57t-58 -23z" />
    <glyph glyph-name="uni1E63" unicode="&#x1e63;" horiz-adv-x="433" 
d="M218 -13q-131 0 -216 91l91 83q57 -64 122 -64q35 0 53.5 15.5t18.5 38.5q0 14 -6.5 24t-27 19t-61.5 18q-70 17 -104 42t-45 56t-11 64q0 68 51.5 113.5t142.5 45.5q63 0 108 -19t85 -71l-98 -75q-19 30 -42.5 43t-49.5 13q-28 0 -46.5 -11t-18.5 -35q0 -13 12 -25.5
t58 -24.5q76 -19 116 -44.5t55 -57.5t15 -71q0 -48 -26.5 -86t-72 -60t-103.5 -22zM218 -213q-34 0 -57.5 23.5t-23.5 56.5q0 32 23.5 55.5t57.5 23.5q35 0 58 -23.5t23 -55.5q0 -34 -23 -57t-58 -23z" />
    <glyph glyph-name="uni1E6C" unicode="&#x1e6c;" horiz-adv-x="570" 
d="M215 0v574h-200v126h540v-126h-200v-574h-140zM285 -213q-34 0 -57.5 23.5t-23.5 56.5q0 32 23.5 55.5t57.5 23.5q35 0 58 -23.5t23 -55.5q0 -34 -23 -57t-58 -23z" />
    <glyph glyph-name="uni1E6D" unicode="&#x1e6d;" horiz-adv-x="328" 
d="M237 0q-77 0 -118 38t-41 123v244h-73v115h73v105l135 14v-119h110v-115h-110v-237q0 -48 42 -48h56v-120h-74zM197 -213q-34 0 -57.5 23.5t-23.5 56.5q0 32 23.5 55.5t57.5 23.5q35 0 58 -23.5t23 -55.5q0 -34 -23 -57t-58 -23z" />
    <glyph glyph-name="uni1E6E" unicode="&#x1e6e;" horiz-adv-x="570" 
d="M215 0v574h-200v126h540v-126h-200v-574h-140zM132 -181v90h306v-90h-306z" />
    <glyph glyph-name="uni1E6F" unicode="&#x1e6f;" horiz-adv-x="328" 
d="M237 0q-77 0 -118 38t-41 123v244h-73v115h73v105l135 14v-119h110v-115h-110v-237q0 -48 42 -48h56v-120h-74zM44 -181v90h306v-90h-306z" />
    <glyph glyph-name="Wgrave" unicode="&#x1e80;" horiz-adv-x="1044" 
d="M225 0l-234 700h160l112 -396q9 -30 16.5 -60.5t11.5 -59.5q4 29 11 60t18 60l139 396h126l139 -396q22 -61 31 -120q4 29 10.5 59.5t15.5 60.5l112 396h160l-234 -700h-126l-142 395q-20 55 -29 115q-5 -29 -12 -58t-17 -57l-142 -395h-126zM485 746l-99 174h159
l34 -174h-94z" />
    <glyph glyph-name="wgrave" unicode="&#x1e81;" horiz-adv-x="796" 
d="M149 0l-162 520h158l67 -295q4 -19 8.5 -39.5t7.5 -39.5q6 40 17 80l76 294h155l81 -294q11 -40 17 -80q3 19 7.5 39.5t8.5 39.5l72 295h147l-162 -520h-146l-85 296q-12 39 -18 78q-3 -19 -7 -39t-9 -39l-78 -296h-155zM355 566l-99 174h159l34 -174h-94z" />
    <glyph glyph-name="Wacute" unicode="&#x1e82;" horiz-adv-x="1044" 
d="M225 0l-234 700h160l112 -396q9 -30 16.5 -60.5t11.5 -59.5q4 29 11 60t18 60l139 396h126l139 -396q22 -61 31 -120q4 29 10.5 59.5t15.5 60.5l112 396h160l-234 -700h-126l-142 395q-20 55 -29 115q-5 -29 -12 -58t-17 -57l-142 -395h-126zM479 746l44 174h138
l-88 -174h-94z" />
    <glyph glyph-name="wacute" unicode="&#x1e83;" horiz-adv-x="796" 
d="M149 0l-162 520h158l67 -295q4 -19 8.5 -39.5t7.5 -39.5q6 40 17 80l76 294h155l81 -294q11 -40 17 -80q3 19 7.5 39.5t8.5 39.5l72 295h147l-162 -520h-146l-85 296q-12 39 -18 78q-3 -19 -7 -39t-9 -39l-78 -296h-155zM349 566l44 174h138l-88 -174h-94z" />
    <glyph glyph-name="Wdieresis" unicode="&#x1e84;" horiz-adv-x="1044" 
d="M225 0l-234 700h160l112 -396q9 -30 16.5 -60.5t11.5 -59.5q4 29 11 60t18 60l139 396h126l139 -396q22 -61 31 -120q4 29 10.5 59.5t15.5 60.5l112 396h160l-234 -700h-126l-142 395q-20 55 -29 115q-5 -29 -12 -58t-17 -57l-142 -395h-126zM634 743q-34 0 -57.5 23.5
t-23.5 56.5q0 32 23.5 55.5t57.5 23.5q35 0 58 -23.5t23 -55.5q0 -34 -23 -57t-58 -23zM422 743q-34 0 -57.5 23.5t-23.5 56.5q0 32 23.5 55.5t57.5 23.5q35 0 58 -23.5t23 -55.5q0 -34 -23 -57t-58 -23z" />
    <glyph glyph-name="wdieresis" unicode="&#x1e85;" horiz-adv-x="796" 
d="M149 0l-162 520h158l67 -295q4 -19 8.5 -39.5t7.5 -39.5q6 40 17 80l76 294h155l81 -294q11 -40 17 -80q3 19 7.5 39.5t8.5 39.5l72 295h147l-162 -520h-146l-85 296q-12 39 -18 78q-3 -19 -7 -39t-9 -39l-78 -296h-155zM504 563q-34 0 -57.5 23.5t-23.5 56.5
q0 32 23.5 55.5t57.5 23.5q35 0 58 -23.5t23 -55.5q0 -34 -23 -57t-58 -23zM292 563q-34 0 -57.5 23.5t-23.5 56.5q0 32 23.5 55.5t57.5 23.5q35 0 58 -23.5t23 -55.5q0 -34 -23 -57t-58 -23z" />
    <glyph glyph-name="uni1E8E" unicode="&#x1e8e;" horiz-adv-x="566" 
d="M211 0v281l-237 419h154l110 -201q13 -24 26.5 -50t20.5 -52q7 26 19.5 51.5t25.5 50.5l105 201h153l-237 -422v-278h-140zM283 743q-34 0 -57.5 23.5t-23.5 56.5q0 32 23.5 55.5t57.5 23.5q35 0 58 -23.5t23 -55.5q0 -34 -23 -57t-58 -23z" />
    <glyph glyph-name="uni1E8F" unicode="&#x1e8f;" horiz-adv-x="539" 
d="M93 -209q-20 0 -45 2t-45 8l20 129q28 -7 61 -7q39 0 64 22.5t36 56.5l7 22l-206 496h163l101 -297q14 -40 22 -83q8 43 22 83l101 297h160l-230 -553q-33 -79 -86 -127.5t-145 -48.5zM267 563q-34 0 -57.5 23.5t-23.5 56.5q0 32 23.5 55.5t57.5 23.5q35 0 58 -23.5
t23 -55.5q0 -34 -23 -57t-58 -23z" />
    <glyph glyph-name="uni1E92" unicode="&#x1e92;" horiz-adv-x="588" 
d="M10 0v15l318 530q10 17 23 32h-322v123h545v-15l-318 -530q-10 -17 -23 -32h341v-123h-564zM305 -213q-34 0 -57.5 23.5t-23.5 56.5q0 32 23.5 55.5t57.5 23.5q35 0 58 -23.5t23 -55.5q0 -34 -23 -57t-58 -23z" />
    <glyph glyph-name="uni1E93" unicode="&#x1e93;" horiz-adv-x="491" 
d="M14 0v15l228 361q9 15 24 32h-241v112h448v-15l-230 -367q-8 -12 -19 -26h244v-112h-454zM250 -213q-34 0 -57.5 23.5t-23.5 56.5q0 32 23.5 55.5t57.5 23.5q35 0 58 -23.5t23 -55.5q0 -34 -23 -57t-58 -23z" />
    <glyph glyph-name="uni1E94" unicode="&#x1e94;" horiz-adv-x="588" 
d="M10 0v15l318 530q10 17 23 32h-322v123h545v-15l-318 -530q-10 -17 -23 -32h341v-123h-564zM152 -181v90h306v-90h-306z" />
    <glyph glyph-name="uni1E95" unicode="&#x1e95;" horiz-adv-x="491" 
d="M14 0v15l228 361q9 15 24 32h-241v112h448v-15l-230 -367q-8 -12 -19 -26h244v-112h-454zM97 -181v90h306v-90h-306z" />
    <glyph glyph-name="uni1E96" unicode="&#x1e96;" horiz-adv-x="565" 
d="M40 0v730h135v-282q42 84 157 84q56 0 101 -26t71 -74t26 -114v-318h-135v285q0 68 -31 98.5t-81 30.5q-43 0 -75.5 -30.5t-32.5 -98.5v-285h-135zM137 -181v90h306v-90h-306z" />
    <glyph glyph-name="uni1E9E" unicode="&#x1e9e;" horiz-adv-x="639" 
d="M376 -13q-55 0 -92 8.5t-74 33.5l76 107q14 -13 32 -20.5t46 -7.5q50 0 75 30.5t25 68.5q0 47 -30.5 73t-85.5 26h-89v13l136 226q5 8 11 16t14 16h-98q-75 0 -106.5 -34.5t-31.5 -118.5v-424h-139v434q0 131 69 199.5t207 68.5h301v-16l-170 -288q58 -15 90 -47t44 -71
t12 -74q0 -53 -24.5 -103.5t-74 -83t-123.5 -32.5z" />
    <glyph glyph-name="uni1EA0" unicode="&#x1ea0;" horiz-adv-x="654" 
d="M-19 0l286 700h121l285 -700h-152l-48 133h-292l-48 -133h-152zM302 445l-75 -191h200l-75 191q-15 40 -25 80q-10 -43 -25 -80zM333 -213q-34 0 -57.5 23.5t-23.5 56.5q0 32 23.5 55.5t57.5 23.5q35 0 58 -23.5t23 -55.5q0 -34 -23 -57t-58 -23z" />
    <glyph glyph-name="uni1EA1" unicode="&#x1ea1;" horiz-adv-x="616" 
d="M277 -13q-71 0 -129.5 36.5t-93 98t-34.5 136.5q0 56 20 105.5t55 87t81.5 59t100.5 21.5q68 0 106 -25.5t59 -67.5v82h134v-520h-131v85q-21 -44 -59.5 -71t-108.5 -27zM299 109q45 0 77.5 20.5t50.5 54.5t18 74q0 41 -18 75t-50.5 55t-77.5 21q-43 0 -75.5 -20.5
t-50.5 -54.5t-18 -75q0 -39 18 -73.5t50.5 -55.5t75.5 -21zM302 -213q-34 0 -57.5 23.5t-23.5 56.5q0 32 23.5 55.5t57.5 23.5q35 0 58 -23.5t23 -55.5q0 -34 -23 -57t-58 -23z" />
    <glyph glyph-name="uni1EA2" unicode="&#x1ea2;" horiz-adv-x="654" 
d="M-19 0l286 700h121l285 -700h-152l-48 133h-292l-48 -133h-152zM302 445l-75 -191h200l-75 191q-15 40 -25 80q-10 -43 -25 -80zM325 737q-28 0 -56 13l23 67q5 -3 12 -4t11 -1q34 0 34 30q0 11 -8.5 19t-19.5 8q-13 0 -21 -8t-8 -22h-84q0 48 33 78t81 30
q49 0 81.5 -27.5t32.5 -74.5q0 -49 -30 -78.5t-81 -29.5z" />
    <glyph glyph-name="uni1EA3" unicode="&#x1ea3;" horiz-adv-x="616" 
d="M277 -13q-71 0 -129.5 36.5t-93 98t-34.5 136.5q0 56 20 105.5t55 87t81.5 59t100.5 21.5q68 0 106 -25.5t59 -67.5v82h134v-520h-131v85q-21 -44 -59.5 -71t-108.5 -27zM299 109q45 0 77.5 20.5t50.5 54.5t18 74q0 41 -18 75t-50.5 55t-77.5 21q-43 0 -75.5 -20.5
t-50.5 -54.5t-18 -75q0 -39 18 -73.5t50.5 -55.5t75.5 -21zM304 557q-28 0 -56 13l23 67q5 -3 12 -4t11 -1q34 0 34 30q0 11 -8.5 19t-19.5 8q-13 0 -21 -8t-8 -22h-84q0 48 33 78t81 30q49 0 81.5 -27.5t32.5 -74.5q0 -49 -30 -78.5t-81 -29.5z" />
    <glyph glyph-name="uni1EA4" unicode="&#x1ea4;" horiz-adv-x="654" 
d="M-19 0l286 700h121l285 -700h-152l-48 133h-292l-48 -133h-152zM302 445l-75 -191h200l-75 191q-15 40 -25 80q-10 -43 -25 -80zM172 746l101 174h109l98 -174h-117l-36 80l-36 -80h-119zM432 848l44 174h138l-88 -174h-94z" />
    <glyph glyph-name="uni1EA5" unicode="&#x1ea5;" horiz-adv-x="616" 
d="M277 -13q-71 0 -129.5 36.5t-93 98t-34.5 136.5q0 56 20 105.5t55 87t81.5 59t100.5 21.5q68 0 106 -25.5t59 -67.5v82h134v-520h-131v85q-21 -44 -59.5 -71t-108.5 -27zM299 109q45 0 77.5 20.5t50.5 54.5t18 74q0 41 -18 75t-50.5 55t-77.5 21q-43 0 -75.5 -20.5
t-50.5 -54.5t-18 -75q0 -39 18 -73.5t50.5 -55.5t75.5 -21zM151 566l101 174h109l98 -174h-117l-36 80l-36 -80h-119zM394 672l44 174h138l-88 -174h-94z" />
    <glyph glyph-name="uni1EA6" unicode="&#x1ea6;" horiz-adv-x="654" 
d="M-19 0l286 700h121l285 -700h-152l-48 133h-292l-48 -133h-152zM302 445l-75 -191h200l-75 191q-15 40 -25 80q-10 -43 -25 -80zM172 746l101 174h109l98 -174h-117l-36 80l-36 -80h-119zM130 848l-99 174h159l34 -174h-94z" />
    <glyph glyph-name="uni1EA7" unicode="&#x1ea7;" horiz-adv-x="616" 
d="M277 -13q-71 0 -129.5 36.5t-93 98t-34.5 136.5q0 56 20 105.5t55 87t81.5 59t100.5 21.5q68 0 106 -25.5t59 -67.5v82h134v-520h-131v85q-21 -44 -59.5 -71t-108.5 -27zM299 109q45 0 77.5 20.5t50.5 54.5t18 74q0 41 -18 75t-50.5 55t-77.5 21q-43 0 -75.5 -20.5
t-50.5 -54.5t-18 -75q0 -39 18 -73.5t50.5 -55.5t75.5 -21zM151 566l101 174h109l98 -174h-117l-36 80l-36 -80h-119zM99 672l-99 174h159l34 -174h-94z" />
    <glyph glyph-name="uni1EA8" unicode="&#x1ea8;" horiz-adv-x="654" 
d="M-19 0l286 700h121l285 -700h-152l-48 133h-292l-48 -133h-152zM302 445l-75 -191h200l-75 191q-15 40 -25 80q-10 -43 -25 -80zM172 746l101 174h109l98 -174h-117l-36 80l-36 -80h-119zM325 929q-28 0 -56 13l23 67q5 -3 12 -4t11 -1q34 0 34 30q0 11 -8.5 19t-19.5 8
q-13 0 -21 -8t-8 -22h-84q0 48 33 78t81 30q49 0 81.5 -27.5t32.5 -74.5q0 -49 -30 -78.5t-81 -29.5z" />
    <glyph glyph-name="uni1EA9" unicode="&#x1ea9;" horiz-adv-x="616" 
d="M277 -13q-71 0 -129.5 36.5t-93 98t-34.5 136.5q0 56 20 105.5t55 87t81.5 59t100.5 21.5q68 0 106 -25.5t59 -67.5v82h134v-520h-131v85q-21 -44 -59.5 -71t-108.5 -27zM299 109q45 0 77.5 20.5t50.5 54.5t18 74q0 41 -18 75t-50.5 55t-77.5 21q-43 0 -75.5 -20.5
t-50.5 -54.5t-18 -75q0 -39 18 -73.5t50.5 -55.5t75.5 -21zM151 566l101 174h109l98 -174h-117l-36 80l-36 -80h-119zM304 749q-28 0 -56 13l23 67q5 -3 12 -4t11 -1q34 0 34 30q0 11 -8.5 19t-19.5 8q-13 0 -21 -8t-8 -22h-84q0 48 33 78t81 30q49 0 81.5 -27.5t32.5 -74.5
q0 -49 -30 -78.5t-81 -29.5z" />
    <glyph glyph-name="uni1EAA" unicode="&#x1eaa;" horiz-adv-x="654" 
d="M-19 0l286 700h121l285 -700h-152l-48 133h-292l-48 -133h-152zM302 445l-75 -191h200l-75 191q-15 40 -25 80q-10 -43 -25 -80zM172 746l101 174h109l98 -174h-117l-36 80l-36 -80h-119zM408 929q-30 0 -50.5 9.5t-35.5 22.5t-30 22.5t-35 9.5q-27 0 -36.5 -17t-9.5 -33
h-86q0 47 19.5 78t50 46.5t63.5 15.5q30 0 51.5 -9.5t38 -21.5t30.5 -21.5t29 -9.5q23 0 29 18.5t6 32.5h87q0 -64 -30 -103.5t-91 -39.5z" />
    <glyph glyph-name="uni1EAB" unicode="&#x1eab;" horiz-adv-x="616" 
d="M277 -13q-71 0 -129.5 36.5t-93 98t-34.5 136.5q0 56 20 105.5t55 87t81.5 59t100.5 21.5q68 0 106 -25.5t59 -67.5v82h134v-520h-131v85q-21 -44 -59.5 -71t-108.5 -27zM299 109q45 0 77.5 20.5t50.5 54.5t18 74q0 41 -18 75t-50.5 55t-77.5 21q-43 0 -75.5 -20.5
t-50.5 -54.5t-18 -75q0 -39 18 -73.5t50.5 -55.5t75.5 -21zM151 566l101 174h109l98 -174h-117l-36 80l-36 -80h-119zM387 749q-30 0 -50.5 9.5t-35.5 22.5t-30 22.5t-35 9.5q-27 0 -36.5 -17t-9.5 -33h-86q0 47 19.5 78t50 46.5t63.5 15.5q30 0 51.5 -9.5t38 -21.5
t30.5 -21.5t29 -9.5q23 0 29 18.5t6 32.5h87q0 -64 -30 -103.5t-91 -39.5z" />
    <glyph glyph-name="uni1EAC" unicode="&#x1eac;" horiz-adv-x="654" 
d="M-19 0l286 700h121l285 -700h-152l-48 133h-292l-48 -133h-152zM302 445l-75 -191h200l-75 191q-15 40 -25 80q-10 -43 -25 -80zM333 -213q-34 0 -57.5 23.5t-23.5 56.5q0 32 23.5 55.5t57.5 23.5q35 0 58 -23.5t23 -55.5q0 -34 -23 -57t-58 -23zM172 746l101 174h109
l98 -174h-117l-36 80l-36 -80h-119z" />
    <glyph glyph-name="uni1EAD" unicode="&#x1ead;" horiz-adv-x="616" 
d="M277 -13q-71 0 -129.5 36.5t-93 98t-34.5 136.5q0 56 20 105.5t55 87t81.5 59t100.5 21.5q68 0 106 -25.5t59 -67.5v82h134v-520h-131v85q-21 -44 -59.5 -71t-108.5 -27zM299 109q45 0 77.5 20.5t50.5 54.5t18 74q0 41 -18 75t-50.5 55t-77.5 21q-43 0 -75.5 -20.5
t-50.5 -54.5t-18 -75q0 -39 18 -73.5t50.5 -55.5t75.5 -21zM302 -213q-34 0 -57.5 23.5t-23.5 56.5q0 32 23.5 55.5t57.5 23.5q35 0 58 -23.5t23 -55.5q0 -34 -23 -57t-58 -23zM151 566l101 174h109l98 -174h-117l-36 80l-36 -80h-119z" />
    <glyph glyph-name="uni1EAE" unicode="&#x1eae;" horiz-adv-x="654" 
d="M-19 0l286 700h121l285 -700h-152l-48 133h-292l-48 -133h-152zM302 445l-75 -191h200l-75 191q-15 40 -25 80q-10 -43 -25 -80zM327 737q-73 0 -116.5 39t-43.5 100h107q-1 -21 12.5 -38.5t40.5 -17.5q29 0 41.5 17.5t11.5 38.5h107q0 -61 -43 -100t-117 -39zM278 906
l44 174h138l-88 -174h-94z" />
    <glyph glyph-name="uni1EAF" unicode="&#x1eaf;" horiz-adv-x="616" 
d="M277 -13q-71 0 -129.5 36.5t-93 98t-34.5 136.5q0 56 20 105.5t55 87t81.5 59t100.5 21.5q68 0 106 -25.5t59 -67.5v82h134v-520h-131v85q-21 -44 -59.5 -71t-108.5 -27zM299 109q45 0 77.5 20.5t50.5 54.5t18 74q0 41 -18 75t-50.5 55t-77.5 21q-43 0 -75.5 -20.5
t-50.5 -54.5t-18 -75q0 -39 18 -73.5t50.5 -55.5t75.5 -21zM306 557q-73 0 -116.5 39t-43.5 100h107q-1 -21 12.5 -38.5t40.5 -17.5q29 0 41.5 17.5t11.5 38.5h107q0 -61 -43 -100t-117 -39zM257 726l44 174h138l-88 -174h-94z" />
    <glyph glyph-name="uni1EB0" unicode="&#x1eb0;" horiz-adv-x="654" 
d="M-19 0l286 700h121l285 -700h-152l-48 133h-292l-48 -133h-152zM302 445l-75 -191h200l-75 191q-15 40 -25 80q-10 -43 -25 -80zM327 737q-73 0 -116.5 39t-43.5 100h107q-1 -21 12.5 -38.5t40.5 -17.5q29 0 41.5 17.5t11.5 38.5h107q0 -61 -43 -100t-117 -39zM284 906
l-99 174h159l34 -174h-94z" />
    <glyph glyph-name="uni1EB1" unicode="&#x1eb1;" horiz-adv-x="616" 
d="M277 -13q-71 0 -129.5 36.5t-93 98t-34.5 136.5q0 56 20 105.5t55 87t81.5 59t100.5 21.5q68 0 106 -25.5t59 -67.5v82h134v-520h-131v85q-21 -44 -59.5 -71t-108.5 -27zM299 109q45 0 77.5 20.5t50.5 54.5t18 74q0 41 -18 75t-50.5 55t-77.5 21q-43 0 -75.5 -20.5
t-50.5 -54.5t-18 -75q0 -39 18 -73.5t50.5 -55.5t75.5 -21zM306 557q-73 0 -116.5 39t-43.5 100h107q-1 -21 12.5 -38.5t40.5 -17.5q29 0 41.5 17.5t11.5 38.5h107q0 -61 -43 -100t-117 -39zM263 726l-99 174h159l34 -174h-94z" />
    <glyph glyph-name="uni1EB2" unicode="&#x1eb2;" horiz-adv-x="654" 
d="M-19 0l286 700h121l285 -700h-152l-48 133h-292l-48 -133h-152zM302 445l-75 -191h200l-75 191q-15 40 -25 80q-10 -43 -25 -80zM327 737q-73 0 -116.5 39t-43.5 100h107q-1 -21 12.5 -38.5t40.5 -17.5q29 0 41.5 17.5t11.5 38.5h107q0 -61 -43 -100t-117 -39zM325 897
q-28 0 -56 13l23 67q5 -3 12 -4t11 -1q34 0 34 30q0 11 -8.5 19t-19.5 8q-13 0 -21 -8t-8 -22h-84q0 48 33 78t81 30q49 0 81.5 -27.5t32.5 -74.5q0 -49 -30 -78.5t-81 -29.5z" />
    <glyph glyph-name="uni1EB3" unicode="&#x1eb3;" horiz-adv-x="616" 
d="M277 -13q-71 0 -129.5 36.5t-93 98t-34.5 136.5q0 56 20 105.5t55 87t81.5 59t100.5 21.5q68 0 106 -25.5t59 -67.5v82h134v-520h-131v85q-21 -44 -59.5 -71t-108.5 -27zM299 109q45 0 77.5 20.5t50.5 54.5t18 74q0 41 -18 75t-50.5 55t-77.5 21q-43 0 -75.5 -20.5
t-50.5 -54.5t-18 -75q0 -39 18 -73.5t50.5 -55.5t75.5 -21zM306 557q-73 0 -116.5 39t-43.5 100h107q-1 -21 12.5 -38.5t40.5 -17.5q29 0 41.5 17.5t11.5 38.5h107q0 -61 -43 -100t-117 -39zM304 717q-28 0 -56 13l23 67q5 -3 12 -4t11 -1q34 0 34 30q0 11 -8.5 19t-19.5 8
q-13 0 -21 -8t-8 -22h-84q0 48 33 78t81 30q49 0 81.5 -27.5t32.5 -74.5q0 -49 -30 -78.5t-81 -29.5z" />
    <glyph glyph-name="uni1EB4" unicode="&#x1eb4;" horiz-adv-x="654" 
d="M-19 0l286 700h121l285 -700h-152l-48 133h-292l-48 -133h-152zM302 445l-75 -191h200l-75 191q-15 40 -25 80q-10 -43 -25 -80zM327 737q-73 0 -116.5 39t-43.5 100h107q-1 -21 12.5 -38.5t40.5 -17.5q29 0 41.5 17.5t11.5 38.5h107q0 -61 -43 -100t-117 -39zM408 897
q-30 0 -50.5 9.5t-35.5 22.5t-30 22.5t-35 9.5q-27 0 -36.5 -17t-9.5 -33h-86q0 47 19.5 78t50 46.5t63.5 15.5q30 0 51.5 -9.5t38 -21.5t30.5 -21.5t29 -9.5q23 0 29 18.5t6 32.5h87q0 -64 -30 -103.5t-91 -39.5z" />
    <glyph glyph-name="uni1EB5" unicode="&#x1eb5;" horiz-adv-x="616" 
d="M277 -13q-71 0 -129.5 36.5t-93 98t-34.5 136.5q0 56 20 105.5t55 87t81.5 59t100.5 21.5q68 0 106 -25.5t59 -67.5v82h134v-520h-131v85q-21 -44 -59.5 -71t-108.5 -27zM299 109q45 0 77.5 20.5t50.5 54.5t18 74q0 41 -18 75t-50.5 55t-77.5 21q-43 0 -75.5 -20.5
t-50.5 -54.5t-18 -75q0 -39 18 -73.5t50.5 -55.5t75.5 -21zM306 557q-73 0 -116.5 39t-43.5 100h107q-1 -21 12.5 -38.5t40.5 -17.5q29 0 41.5 17.5t11.5 38.5h107q0 -61 -43 -100t-117 -39zM387 717q-30 0 -50.5 9.5t-35.5 22.5t-30 22.5t-35 9.5q-27 0 -36.5 -17t-9.5 -33
h-86q0 47 19.5 78t50 46.5t63.5 15.5q30 0 51.5 -9.5t38 -21.5t30.5 -21.5t29 -9.5q23 0 29 18.5t6 32.5h87q0 -64 -30 -103.5t-91 -39.5z" />
    <glyph glyph-name="uni1EB6" unicode="&#x1eb6;" horiz-adv-x="654" 
d="M-19 0l286 700h121l285 -700h-152l-48 133h-292l-48 -133h-152zM302 445l-75 -191h200l-75 191q-15 40 -25 80q-10 -43 -25 -80zM333 -213q-34 0 -57.5 23.5t-23.5 56.5q0 32 23.5 55.5t57.5 23.5q35 0 58 -23.5t23 -55.5q0 -34 -23 -57t-58 -23zM327 737
q-73 0 -116.5 39t-43.5 100h107q-1 -21 12.5 -38.5t40.5 -17.5q29 0 41.5 17.5t11.5 38.5h107q0 -61 -43 -100t-117 -39z" />
    <glyph glyph-name="uni1EB7" unicode="&#x1eb7;" horiz-adv-x="616" 
d="M277 -13q-71 0 -129.5 36.5t-93 98t-34.5 136.5q0 56 20 105.5t55 87t81.5 59t100.5 21.5q68 0 106 -25.5t59 -67.5v82h134v-520h-131v85q-21 -44 -59.5 -71t-108.5 -27zM299 109q45 0 77.5 20.5t50.5 54.5t18 74q0 41 -18 75t-50.5 55t-77.5 21q-43 0 -75.5 -20.5
t-50.5 -54.5t-18 -75q0 -39 18 -73.5t50.5 -55.5t75.5 -21zM302 -213q-34 0 -57.5 23.5t-23.5 56.5q0 32 23.5 55.5t57.5 23.5q35 0 58 -23.5t23 -55.5q0 -34 -23 -57t-58 -23zM306 557q-73 0 -116.5 39t-43.5 100h107q-1 -21 12.5 -38.5t40.5 -17.5q29 0 41.5 17.5
t11.5 38.5h107q0 -61 -43 -100t-117 -39z" />
    <glyph glyph-name="uni1EB8" unicode="&#x1eb8;" horiz-adv-x="501" 
d="M50 0v700h410v-126h-270v-157h265v-122h-265v-169h272v-126h-412zM270 -213q-34 0 -57.5 23.5t-23.5 56.5q0 32 23.5 55.5t57.5 23.5q35 0 58 -23.5t23 -55.5q0 -34 -23 -57t-58 -23z" />
    <glyph glyph-name="uni1EB9" unicode="&#x1eb9;" horiz-adv-x="572" 
d="M289 -13q-80 0 -141 37t-94.5 98.5t-33.5 136.5t35 137.5t95.5 99.5t138.5 37t137.5 -37t93 -99.5t33.5 -137.5q0 -11 -1 -23t-3 -25h-389q11 -46 44.5 -75t84.5 -29q44 0 76.5 20t50.5 50l105 -79q-31 -49 -93 -80t-139 -31zM287 417q-48 0 -82 -29t-45 -76h257
q-11 43 -45.5 74t-84.5 31zM289 -213q-34 0 -57.5 23.5t-23.5 56.5q0 32 23.5 55.5t57.5 23.5q35 0 58 -23.5t23 -55.5q0 -34 -23 -57t-58 -23z" />
    <glyph glyph-name="uni1EBA" unicode="&#x1eba;" horiz-adv-x="501" 
d="M50 0v700h410v-126h-270v-157h265v-122h-265v-169h272v-126h-412zM258 737q-28 0 -56 13l23 67q5 -3 12 -4t11 -1q34 0 34 30q0 11 -8.5 19t-19.5 8q-13 0 -21 -8t-8 -22h-84q0 48 33 78t81 30q49 0 81.5 -27.5t32.5 -74.5q0 -49 -30 -78.5t-81 -29.5z" />
    <glyph glyph-name="uni1EBB" unicode="&#x1ebb;" horiz-adv-x="572" 
d="M289 -13q-80 0 -141 37t-94.5 98.5t-33.5 136.5t35 137.5t95.5 99.5t138.5 37t137.5 -37t93 -99.5t33.5 -137.5q0 -11 -1 -23t-3 -25h-389q11 -46 44.5 -75t84.5 -29q44 0 76.5 20t50.5 50l105 -79q-31 -49 -93 -80t-139 -31zM287 417q-48 0 -82 -29t-45 -76h257
q-11 43 -45.5 74t-84.5 31zM284 557q-28 0 -56 13l23 67q5 -3 12 -4t11 -1q34 0 34 30q0 11 -8.5 19t-19.5 8q-13 0 -21 -8t-8 -22h-84q0 48 33 78t81 30q49 0 81.5 -27.5t32.5 -74.5q0 -49 -30 -78.5t-81 -29.5z" />
    <glyph glyph-name="uni1EBC" unicode="&#x1ebc;" horiz-adv-x="501" 
d="M50 0v700h410v-126h-270v-157h265v-122h-265v-169h272v-126h-412zM341 737q-30 0 -50.5 9.5t-35.5 22.5t-30 22.5t-35 9.5q-27 0 -36.5 -17t-9.5 -33h-86q0 47 19.5 78t50 46.5t63.5 15.5q30 0 51.5 -9.5t38 -21.5t30.5 -21.5t29 -9.5q23 0 29 18.5t6 32.5h87
q0 -64 -30 -103.5t-91 -39.5z" />
    <glyph glyph-name="uni1EBD" unicode="&#x1ebd;" horiz-adv-x="572" 
d="M289 -13q-80 0 -141 37t-94.5 98.5t-33.5 136.5t35 137.5t95.5 99.5t138.5 37t137.5 -37t93 -99.5t33.5 -137.5q0 -11 -1 -23t-3 -25h-389q11 -46 44.5 -75t84.5 -29q44 0 76.5 20t50.5 50l105 -79q-31 -49 -93 -80t-139 -31zM287 417q-48 0 -82 -29t-45 -76h257
q-11 43 -45.5 74t-84.5 31zM367 557q-30 0 -50.5 9.5t-35.5 22.5t-30 22.5t-35 9.5q-27 0 -36.5 -17t-9.5 -33h-86q0 47 19.5 78t50 46.5t63.5 15.5q30 0 51.5 -9.5t38 -21.5t30.5 -21.5t29 -9.5q23 0 29 18.5t6 32.5h87q0 -64 -30 -103.5t-91 -39.5z" />
    <glyph glyph-name="uni1EBE" unicode="&#x1ebe;" horiz-adv-x="501" 
d="M50 0v700h410v-126h-270v-157h265v-122h-265v-169h272v-126h-412zM105 746l101 174h109l98 -174h-117l-36 80l-36 -80h-119zM368 848l44 174h138l-88 -174h-94z" />
    <glyph glyph-name="uni1EBF" unicode="&#x1ebf;" horiz-adv-x="572" 
d="M289 -13q-80 0 -141 37t-94.5 98.5t-33.5 136.5t35 137.5t95.5 99.5t138.5 37t137.5 -37t93 -99.5t33.5 -137.5q0 -11 -1 -23t-3 -25h-389q11 -46 44.5 -75t84.5 -29q44 0 76.5 20t50.5 50l105 -79q-31 -49 -93 -80t-139 -31zM287 417q-48 0 -82 -29t-45 -76h257
q-11 43 -45.5 74t-84.5 31zM131 566l101 174h109l98 -174h-117l-36 80l-36 -80h-119zM394 672l44 174h138l-88 -174h-94z" />
    <glyph glyph-name="uni1EC0" unicode="&#x1ec0;" horiz-adv-x="501" 
d="M50 0v700h410v-126h-270v-157h265v-122h-265v-169h272v-126h-412zM105 746l101 174h109l98 -174h-117l-36 80l-36 -80h-119zM64 848l-99 174h159l34 -174h-94z" />
    <glyph glyph-name="uni1EC1" unicode="&#x1ec1;" horiz-adv-x="572" 
d="M289 -13q-80 0 -141 37t-94.5 98.5t-33.5 136.5t35 137.5t95.5 99.5t138.5 37t137.5 -37t93 -99.5t33.5 -137.5q0 -11 -1 -23t-3 -25h-389q11 -46 44.5 -75t84.5 -29q44 0 76.5 20t50.5 50l105 -79q-31 -49 -93 -80t-139 -31zM287 417q-48 0 -82 -29t-45 -76h257
q-11 43 -45.5 74t-84.5 31zM131 566l101 174h109l98 -174h-117l-36 80l-36 -80h-119zM99 672l-99 174h159l34 -174h-94z" />
    <glyph glyph-name="uni1EC2" unicode="&#x1ec2;" horiz-adv-x="501" 
d="M50 0v700h410v-126h-270v-157h265v-122h-265v-169h272v-126h-412zM105 746l101 174h109l98 -174h-117l-36 80l-36 -80h-119zM258 929q-28 0 -56 13l23 67q5 -3 12 -4t11 -1q34 0 34 30q0 11 -8.5 19t-19.5 8q-13 0 -21 -8t-8 -22h-84q0 48 33 78t81 30q49 0 81.5 -27.5
t32.5 -74.5q0 -49 -30 -78.5t-81 -29.5z" />
    <glyph glyph-name="uni1EC3" unicode="&#x1ec3;" horiz-adv-x="572" 
d="M289 -13q-80 0 -141 37t-94.5 98.5t-33.5 136.5t35 137.5t95.5 99.5t138.5 37t137.5 -37t93 -99.5t33.5 -137.5q0 -11 -1 -23t-3 -25h-389q11 -46 44.5 -75t84.5 -29q44 0 76.5 20t50.5 50l105 -79q-31 -49 -93 -80t-139 -31zM287 417q-48 0 -82 -29t-45 -76h257
q-11 43 -45.5 74t-84.5 31zM131 566l101 174h109l98 -174h-117l-36 80l-36 -80h-119zM284 749q-28 0 -56 13l23 67q5 -3 12 -4t11 -1q34 0 34 30q0 11 -8.5 19t-19.5 8q-13 0 -21 -8t-8 -22h-84q0 48 33 78t81 30q49 0 81.5 -27.5t32.5 -74.5q0 -49 -30 -78.5t-81 -29.5z
" />
    <glyph glyph-name="uni1EC4" unicode="&#x1ec4;" horiz-adv-x="501" 
d="M50 0v700h410v-126h-270v-157h265v-122h-265v-169h272v-126h-412zM105 746l101 174h109l98 -174h-117l-36 80l-36 -80h-119zM341 929q-30 0 -50.5 9.5t-35.5 22.5t-30 22.5t-35 9.5q-27 0 -36.5 -17t-9.5 -33h-86q0 47 19.5 78t50 46.5t63.5 15.5q30 0 51.5 -9.5
t38 -21.5t30.5 -21.5t29 -9.5q23 0 29 18.5t6 32.5h87q0 -64 -30 -103.5t-91 -39.5z" />
    <glyph glyph-name="uni1EC5" unicode="&#x1ec5;" horiz-adv-x="572" 
d="M289 -13q-80 0 -141 37t-94.5 98.5t-33.5 136.5t35 137.5t95.5 99.5t138.5 37t137.5 -37t93 -99.5t33.5 -137.5q0 -11 -1 -23t-3 -25h-389q11 -46 44.5 -75t84.5 -29q44 0 76.5 20t50.5 50l105 -79q-31 -49 -93 -80t-139 -31zM287 417q-48 0 -82 -29t-45 -76h257
q-11 43 -45.5 74t-84.5 31zM131 566l101 174h109l98 -174h-117l-36 80l-36 -80h-119zM367 749q-30 0 -50.5 9.5t-35.5 22.5t-30 22.5t-35 9.5q-27 0 -36.5 -17t-9.5 -33h-86q0 47 19.5 78t50 46.5t63.5 15.5q30 0 51.5 -9.5t38 -21.5t30.5 -21.5t29 -9.5q23 0 29 18.5
t6 32.5h87q0 -64 -30 -103.5t-91 -39.5z" />
    <glyph glyph-name="uni1EC6" unicode="&#x1ec6;" horiz-adv-x="501" 
d="M50 0v700h410v-126h-270v-157h265v-122h-265v-169h272v-126h-412zM270 -213q-34 0 -57.5 23.5t-23.5 56.5q0 32 23.5 55.5t57.5 23.5q35 0 58 -23.5t23 -55.5q0 -34 -23 -57t-58 -23zM105 746l101 174h109l98 -174h-117l-36 80l-36 -80h-119z" />
    <glyph glyph-name="uni1EC7" unicode="&#x1ec7;" horiz-adv-x="572" 
d="M289 -13q-80 0 -141 37t-94.5 98.5t-33.5 136.5t35 137.5t95.5 99.5t138.5 37t137.5 -37t93 -99.5t33.5 -137.5q0 -11 -1 -23t-3 -25h-389q11 -46 44.5 -75t84.5 -29q44 0 76.5 20t50.5 50l105 -79q-31 -49 -93 -80t-139 -31zM287 417q-48 0 -82 -29t-45 -76h257
q-11 43 -45.5 74t-84.5 31zM289 -213q-34 0 -57.5 23.5t-23.5 56.5q0 32 23.5 55.5t57.5 23.5q35 0 58 -23.5t23 -55.5q0 -34 -23 -57t-58 -23zM131 566l101 174h109l98 -174h-117l-36 80l-36 -80h-119z" />
    <glyph glyph-name="uni1EC8" unicode="&#x1ec8;" horiz-adv-x="240" 
d="M50 0v700h140v-700h-140zM118 737q-28 0 -56 13l23 67q5 -3 12 -4t11 -1q34 0 34 30q0 11 -8.5 19t-19.5 8q-13 0 -21 -8t-8 -22h-84q0 48 33 78t81 30q49 0 81.5 -27.5t32.5 -74.5q0 -49 -30 -78.5t-81 -29.5z" />
    <glyph glyph-name="uni1EC9" unicode="&#x1ec9;" horiz-adv-x="215" 
d="M40 0v520h135v-520h-135zM104 557q-28 0 -56 13l23 67q5 -3 12 -4t11 -1q34 0 34 30q0 11 -8.5 19t-19.5 8q-13 0 -21 -8t-8 -22h-84q0 48 33 78t81 30q49 0 81.5 -27.5t32.5 -74.5q0 -49 -30 -78.5t-81 -29.5z" />
    <glyph glyph-name="uni1ECA" unicode="&#x1eca;" horiz-adv-x="240" 
d="M50 0v700h140v-700h-140zM120 -213q-34 0 -57.5 23.5t-23.5 56.5q0 32 23.5 55.5t57.5 23.5q35 0 58 -23.5t23 -55.5q0 -34 -23 -57t-58 -23z" />
    <glyph glyph-name="uni1ECB" unicode="&#x1ecb;" horiz-adv-x="215" 
d="M107 563q-34 0 -57.5 23.5t-23.5 56.5q0 32 23.5 55.5t57.5 23.5q35 0 58 -23.5t23 -55.5q0 -34 -23 -57t-58 -23zM40 0v520h135v-520h-135zM106 -213q-34 0 -57.5 23.5t-23.5 56.5q0 32 23.5 55.5t57.5 23.5q35 0 58 -23.5t23 -55.5q0 -34 -23 -57t-58 -23z" />
    <glyph glyph-name="uni1ECC" unicode="&#x1ecc;" horiz-adv-x="778" 
d="M390 -13q-78 0 -144.5 28t-116 78t-77 115.5t-27.5 140.5t27.5 141t77 116t116 78.5t144.5 28.5t144 -28.5t115 -78.5t76.5 -116t27.5 -141t-27.5 -140.5t-76.5 -115.5t-115 -78t-144 -28zM390 117q68 0 116.5 31.5t75 84.5t26.5 116q0 64 -26.5 117t-75 85t-116.5 32
t-117.5 -32t-76 -85t-26.5 -117q0 -63 26.5 -116t76 -84.5t117.5 -31.5zM390 -213q-34 0 -57.5 23.5t-23.5 56.5q0 32 23.5 55.5t57.5 23.5q35 0 58 -23.5t23 -55.5q0 -34 -23 -57t-58 -23z" />
    <glyph glyph-name="uni1ECD" unicode="&#x1ecd;" horiz-adv-x="594" 
d="M297 -13q-80 0 -143 37t-98.5 98.5t-35.5 136.5t35.5 137t98.5 99t143 37q81 0 143.5 -37t98 -99t35.5 -137t-35.5 -136.5t-98 -98.5t-143.5 -37zM297 110q43 0 75 20.5t49.5 54.5t17.5 74q0 41 -17.5 75t-49.5 54.5t-75 20.5t-75 -20.5t-49.5 -54.5t-17.5 -75
q0 -40 17.5 -74t49.5 -54.5t75 -20.5zM298 -213q-34 0 -57.5 23.5t-23.5 56.5q0 32 23.5 55.5t57.5 23.5q35 0 58 -23.5t23 -55.5q0 -34 -23 -57t-58 -23z" />
    <glyph glyph-name="uni1ECE" unicode="&#x1ece;" horiz-adv-x="778" 
d="M390 -13q-78 0 -144.5 28t-116 78t-77 115.5t-27.5 140.5t27.5 141t77 116t116 78.5t144.5 28.5t144 -28.5t115 -78.5t76.5 -116t27.5 -141t-27.5 -140.5t-76.5 -115.5t-115 -78t-144 -28zM390 117q68 0 116.5 31.5t75 84.5t26.5 116q0 64 -26.5 117t-75 85t-116.5 32
t-117.5 -32t-76 -85t-26.5 -117q0 -63 26.5 -116t76 -84.5t117.5 -31.5zM388 737q-28 0 -56 13l23 67q5 -3 12 -4t11 -1q34 0 34 30q0 11 -8.5 19t-19.5 8q-13 0 -21 -8t-8 -22h-84q0 48 33 78t81 30q49 0 81.5 -27.5t32.5 -74.5q0 -49 -30 -78.5t-81 -29.5z" />
    <glyph glyph-name="uni1ECF" unicode="&#x1ecf;" horiz-adv-x="594" 
d="M297 -13q-80 0 -143 37t-98.5 98.5t-35.5 136.5t35.5 137t98.5 99t143 37q81 0 143.5 -37t98 -99t35.5 -137t-35.5 -136.5t-98 -98.5t-143.5 -37zM297 110q43 0 75 20.5t49.5 54.5t17.5 74q0 41 -17.5 75t-49.5 54.5t-75 20.5t-75 -20.5t-49.5 -54.5t-17.5 -75
q0 -40 17.5 -74t49.5 -54.5t75 -20.5zM295 557q-28 0 -56 13l23 67q5 -3 12 -4t11 -1q34 0 34 30q0 11 -8.5 19t-19.5 8q-13 0 -21 -8t-8 -22h-84q0 48 33 78t81 30q49 0 81.5 -27.5t32.5 -74.5q0 -49 -30 -78.5t-81 -29.5z" />
    <glyph glyph-name="uni1ED0" unicode="&#x1ed0;" horiz-adv-x="778" 
d="M390 -13q-78 0 -144.5 28t-116 78t-77 115.5t-27.5 140.5t27.5 141t77 116t116 78.5t144.5 28.5t144 -28.5t115 -78.5t76.5 -116t27.5 -141t-27.5 -140.5t-76.5 -115.5t-115 -78t-144 -28zM390 117q68 0 116.5 31.5t75 84.5t26.5 116q0 64 -26.5 117t-75 85t-116.5 32
t-117.5 -32t-76 -85t-26.5 -117q0 -63 26.5 -116t76 -84.5t117.5 -31.5zM235 746l101 174h109l98 -174h-117l-36 80l-36 -80h-119zM499 848l44 174h138l-88 -174h-94z" />
    <glyph glyph-name="uni1ED1" unicode="&#x1ed1;" horiz-adv-x="594" 
d="M297 -13q-80 0 -143 37t-98.5 98.5t-35.5 136.5t35.5 137t98.5 99t143 37q81 0 143.5 -37t98 -99t35.5 -137t-35.5 -136.5t-98 -98.5t-143.5 -37zM297 110q43 0 75 20.5t49.5 54.5t17.5 74q0 41 -17.5 75t-49.5 54.5t-75 20.5t-75 -20.5t-49.5 -54.5t-17.5 -75
q0 -40 17.5 -74t49.5 -54.5t75 -20.5zM142 566l101 174h109l98 -174h-117l-36 80l-36 -80h-119zM394 672l44 174h138l-88 -174h-94z" />
    <glyph glyph-name="uni1ED2" unicode="&#x1ed2;" horiz-adv-x="778" 
d="M390 -13q-78 0 -144.5 28t-116 78t-77 115.5t-27.5 140.5t27.5 141t77 116t116 78.5t144.5 28.5t144 -28.5t115 -78.5t76.5 -116t27.5 -141t-27.5 -140.5t-76.5 -115.5t-115 -78t-144 -28zM390 117q68 0 116.5 31.5t75 84.5t26.5 116q0 64 -26.5 117t-75 85t-116.5 32
t-117.5 -32t-76 -85t-26.5 -117q0 -63 26.5 -116t76 -84.5t117.5 -31.5zM235 746l101 174h109l98 -174h-117l-36 80l-36 -80h-119zM185 848l-99 174h159l34 -174h-94z" />
    <glyph glyph-name="uni1ED3" unicode="&#x1ed3;" horiz-adv-x="594" 
d="M297 -13q-80 0 -143 37t-98.5 98.5t-35.5 136.5t35.5 137t98.5 99t143 37q81 0 143.5 -37t98 -99t35.5 -137t-35.5 -136.5t-98 -98.5t-143.5 -37zM297 110q43 0 75 20.5t49.5 54.5t17.5 74q0 41 -17.5 75t-49.5 54.5t-75 20.5t-75 -20.5t-49.5 -54.5t-17.5 -75
q0 -40 17.5 -74t49.5 -54.5t75 -20.5zM142 566l101 174h109l98 -174h-117l-36 80l-36 -80h-119zM99 672l-99 174h159l34 -174h-94z" />
    <glyph glyph-name="uni1ED4" unicode="&#x1ed4;" horiz-adv-x="778" 
d="M390 -13q-78 0 -144.5 28t-116 78t-77 115.5t-27.5 140.5t27.5 141t77 116t116 78.5t144.5 28.5t144 -28.5t115 -78.5t76.5 -116t27.5 -141t-27.5 -140.5t-76.5 -115.5t-115 -78t-144 -28zM390 117q68 0 116.5 31.5t75 84.5t26.5 116q0 64 -26.5 117t-75 85t-116.5 32
t-117.5 -32t-76 -85t-26.5 -117q0 -63 26.5 -116t76 -84.5t117.5 -31.5zM235 746l101 174h109l98 -174h-117l-36 80l-36 -80h-119zM388 929q-28 0 -56 13l23 67q5 -3 12 -4t11 -1q34 0 34 30q0 11 -8.5 19t-19.5 8q-13 0 -21 -8t-8 -22h-84q0 48 33 78t81 30
q49 0 81.5 -27.5t32.5 -74.5q0 -49 -30 -78.5t-81 -29.5z" />
    <glyph glyph-name="uni1ED5" unicode="&#x1ed5;" horiz-adv-x="594" 
d="M297 -13q-80 0 -143 37t-98.5 98.5t-35.5 136.5t35.5 137t98.5 99t143 37q81 0 143.5 -37t98 -99t35.5 -137t-35.5 -136.5t-98 -98.5t-143.5 -37zM297 110q43 0 75 20.5t49.5 54.5t17.5 74q0 41 -17.5 75t-49.5 54.5t-75 20.5t-75 -20.5t-49.5 -54.5t-17.5 -75
q0 -40 17.5 -74t49.5 -54.5t75 -20.5zM142 566l101 174h109l98 -174h-117l-36 80l-36 -80h-119zM295 749q-28 0 -56 13l23 67q5 -3 12 -4t11 -1q34 0 34 30q0 11 -8.5 19t-19.5 8q-13 0 -21 -8t-8 -22h-84q0 48 33 78t81 30q49 0 81.5 -27.5t32.5 -74.5q0 -49 -30 -78.5
t-81 -29.5z" />
    <glyph glyph-name="uni1ED6" unicode="&#x1ed6;" horiz-adv-x="778" 
d="M390 -13q-78 0 -144.5 28t-116 78t-77 115.5t-27.5 140.5t27.5 141t77 116t116 78.5t144.5 28.5t144 -28.5t115 -78.5t76.5 -116t27.5 -141t-27.5 -140.5t-76.5 -115.5t-115 -78t-144 -28zM390 117q68 0 116.5 31.5t75 84.5t26.5 116q0 64 -26.5 117t-75 85t-116.5 32
t-117.5 -32t-76 -85t-26.5 -117q0 -63 26.5 -116t76 -84.5t117.5 -31.5zM235 746l101 174h109l98 -174h-117l-36 80l-36 -80h-119zM471 929q-30 0 -50.5 9.5t-35.5 22.5t-30 22.5t-35 9.5q-27 0 -36.5 -17t-9.5 -33h-86q0 47 19.5 78t50 46.5t63.5 15.5q30 0 51.5 -9.5
t38 -21.5t30.5 -21.5t29 -9.5q23 0 29 18.5t6 32.5h87q0 -64 -30 -103.5t-91 -39.5z" />
    <glyph glyph-name="uni1ED7" unicode="&#x1ed7;" horiz-adv-x="594" 
d="M297 -13q-80 0 -143 37t-98.5 98.5t-35.5 136.5t35.5 137t98.5 99t143 37q81 0 143.5 -37t98 -99t35.5 -137t-35.5 -136.5t-98 -98.5t-143.5 -37zM297 110q43 0 75 20.5t49.5 54.5t17.5 74q0 41 -17.5 75t-49.5 54.5t-75 20.5t-75 -20.5t-49.5 -54.5t-17.5 -75
q0 -40 17.5 -74t49.5 -54.5t75 -20.5zM142 566l101 174h109l98 -174h-117l-36 80l-36 -80h-119zM378 749q-30 0 -50.5 9.5t-35.5 22.5t-30 22.5t-35 9.5q-27 0 -36.5 -17t-9.5 -33h-86q0 47 19.5 78t50 46.5t63.5 15.5q30 0 51.5 -9.5t38 -21.5t30.5 -21.5t29 -9.5
q23 0 29 18.5t6 32.5h87q0 -64 -30 -103.5t-91 -39.5z" />
    <glyph glyph-name="uni1ED8" unicode="&#x1ed8;" horiz-adv-x="778" 
d="M390 -13q-78 0 -144.5 28t-116 78t-77 115.5t-27.5 140.5t27.5 141t77 116t116 78.5t144.5 28.5t144 -28.5t115 -78.5t76.5 -116t27.5 -141t-27.5 -140.5t-76.5 -115.5t-115 -78t-144 -28zM390 117q68 0 116.5 31.5t75 84.5t26.5 116q0 64 -26.5 117t-75 85t-116.5 32
t-117.5 -32t-76 -85t-26.5 -117q0 -63 26.5 -116t76 -84.5t117.5 -31.5zM390 -213q-34 0 -57.5 23.5t-23.5 56.5q0 32 23.5 55.5t57.5 23.5q35 0 58 -23.5t23 -55.5q0 -34 -23 -57t-58 -23zM235 746l101 174h109l98 -174h-117l-36 80l-36 -80h-119z" />
    <glyph glyph-name="uni1ED9" unicode="&#x1ed9;" horiz-adv-x="594" 
d="M297 -13q-80 0 -143 37t-98.5 98.5t-35.5 136.5t35.5 137t98.5 99t143 37q81 0 143.5 -37t98 -99t35.5 -137t-35.5 -136.5t-98 -98.5t-143.5 -37zM297 110q43 0 75 20.5t49.5 54.5t17.5 74q0 41 -17.5 75t-49.5 54.5t-75 20.5t-75 -20.5t-49.5 -54.5t-17.5 -75
q0 -40 17.5 -74t49.5 -54.5t75 -20.5zM298 -213q-34 0 -57.5 23.5t-23.5 56.5q0 32 23.5 55.5t57.5 23.5q35 0 58 -23.5t23 -55.5q0 -34 -23 -57t-58 -23zM142 566l101 174h109l98 -174h-117l-36 80l-36 -80h-119z" />
    <glyph glyph-name="uni1EDA" unicode="&#x1eda;" horiz-adv-x="778" 
d="M390 -13q-78 0 -144.5 28t-116 78t-77 115.5t-27.5 140.5t27.5 141t77 116t116 78.5t144.5 28.5t144 -28.5t115 -78.5t76.5 -116t27.5 -141t-27.5 -140.5t-76.5 -115.5t-115 -78t-144 -28zM390 117q68 0 116.5 31.5t75 84.5t26.5 116q0 64 -26.5 117t-75 85t-116.5 32
t-117.5 -32t-76 -85t-26.5 -117q0 -63 26.5 -116t76 -84.5t117.5 -31.5zM504 609l-8 88h13q44 0 62 17t18 72v32h114v-40q0 -84 -48 -126.5t-151 -42.5zM341 746l44 174h138l-88 -174h-94z" />
    <glyph glyph-name="uni1EDB" unicode="&#x1edb;" horiz-adv-x="594" 
d="M297 -13q-80 0 -143 37t-98.5 98.5t-35.5 136.5t35.5 137t98.5 99t143 37q81 0 143.5 -37t98 -99t35.5 -137t-35.5 -136.5t-98 -98.5t-143.5 -37zM297 110q43 0 75 20.5t49.5 54.5t17.5 74q0 41 -17.5 75t-49.5 54.5t-75 20.5t-75 -20.5t-49.5 -54.5t-17.5 -75
q0 -40 17.5 -74t49.5 -54.5t75 -20.5zM386 432l-8 88h13q44 0 62 17t18 72v32h114v-40q0 -84 -48 -126.5t-151 -42.5zM248 566l44 174h138l-88 -174h-94z" />
    <glyph glyph-name="uni1EDC" unicode="&#x1edc;" horiz-adv-x="778" 
d="M390 -13q-78 0 -144.5 28t-116 78t-77 115.5t-27.5 140.5t27.5 141t77 116t116 78.5t144.5 28.5t144 -28.5t115 -78.5t76.5 -116t27.5 -141t-27.5 -140.5t-76.5 -115.5t-115 -78t-144 -28zM390 117q68 0 116.5 31.5t75 84.5t26.5 116q0 64 -26.5 117t-75 85t-116.5 32
t-117.5 -32t-76 -85t-26.5 -117q0 -63 26.5 -116t76 -84.5t117.5 -31.5zM504 609l-8 88h13q44 0 62 17t18 72v32h114v-40q0 -84 -48 -126.5t-151 -42.5zM347 746l-99 174h159l34 -174h-94z" />
    <glyph glyph-name="uni1EDD" unicode="&#x1edd;" horiz-adv-x="594" 
d="M297 -13q-80 0 -143 37t-98.5 98.5t-35.5 136.5t35.5 137t98.5 99t143 37q81 0 143.5 -37t98 -99t35.5 -137t-35.5 -136.5t-98 -98.5t-143.5 -37zM297 110q43 0 75 20.5t49.5 54.5t17.5 74q0 41 -17.5 75t-49.5 54.5t-75 20.5t-75 -20.5t-49.5 -54.5t-17.5 -75
q0 -40 17.5 -74t49.5 -54.5t75 -20.5zM386 432l-8 88h13q44 0 62 17t18 72v32h114v-40q0 -84 -48 -126.5t-151 -42.5zM254 566l-99 174h159l34 -174h-94z" />
    <glyph glyph-name="uni1EDE" unicode="&#x1ede;" horiz-adv-x="778" 
d="M390 -13q-78 0 -144.5 28t-116 78t-77 115.5t-27.5 140.5t27.5 141t77 116t116 78.5t144.5 28.5t144 -28.5t115 -78.5t76.5 -116t27.5 -141t-27.5 -140.5t-76.5 -115.5t-115 -78t-144 -28zM390 117q68 0 116.5 31.5t75 84.5t26.5 116q0 64 -26.5 117t-75 85t-116.5 32
t-117.5 -32t-76 -85t-26.5 -117q0 -63 26.5 -116t76 -84.5t117.5 -31.5zM504 609l-8 88h13q44 0 62 17t18 72v32h114v-40q0 -84 -48 -126.5t-151 -42.5zM388 737q-28 0 -56 13l23 67q5 -3 12 -4t11 -1q34 0 34 30q0 11 -8.5 19t-19.5 8q-13 0 -21 -8t-8 -22h-84q0 48 33 78
t81 30q49 0 81.5 -27.5t32.5 -74.5q0 -49 -30 -78.5t-81 -29.5z" />
    <glyph glyph-name="uni1EDF" unicode="&#x1edf;" horiz-adv-x="594" 
d="M297 -13q-80 0 -143 37t-98.5 98.5t-35.5 136.5t35.5 137t98.5 99t143 37q81 0 143.5 -37t98 -99t35.5 -137t-35.5 -136.5t-98 -98.5t-143.5 -37zM297 110q43 0 75 20.5t49.5 54.5t17.5 74q0 41 -17.5 75t-49.5 54.5t-75 20.5t-75 -20.5t-49.5 -54.5t-17.5 -75
q0 -40 17.5 -74t49.5 -54.5t75 -20.5zM386 432l-8 88h13q44 0 62 17t18 72v32h114v-40q0 -84 -48 -126.5t-151 -42.5zM295 557q-28 0 -56 13l23 67q5 -3 12 -4t11 -1q34 0 34 30q0 11 -8.5 19t-19.5 8q-13 0 -21 -8t-8 -22h-84q0 48 33 78t81 30q49 0 81.5 -27.5t32.5 -74.5
q0 -49 -30 -78.5t-81 -29.5z" />
    <glyph glyph-name="uni1EE0" unicode="&#x1ee0;" horiz-adv-x="778" 
d="M390 -13q-78 0 -144.5 28t-116 78t-77 115.5t-27.5 140.5t27.5 141t77 116t116 78.5t144.5 28.5t144 -28.5t115 -78.5t76.5 -116t27.5 -141t-27.5 -140.5t-76.5 -115.5t-115 -78t-144 -28zM390 117q68 0 116.5 31.5t75 84.5t26.5 116q0 64 -26.5 117t-75 85t-116.5 32
t-117.5 -32t-76 -85t-26.5 -117q0 -63 26.5 -116t76 -84.5t117.5 -31.5zM504 609l-8 88h13q44 0 62 17t18 72v32h114v-40q0 -84 -48 -126.5t-151 -42.5zM471 737q-30 0 -50.5 9.5t-35.5 22.5t-30 22.5t-35 9.5q-27 0 -36.5 -17t-9.5 -33h-86q0 47 19.5 78t50 46.5t63.5 15.5
q30 0 51.5 -9.5t38 -21.5t30.5 -21.5t29 -9.5q23 0 29 18.5t6 32.5h87q0 -64 -30 -103.5t-91 -39.5z" />
    <glyph glyph-name="uni1EE1" unicode="&#x1ee1;" horiz-adv-x="594" 
d="M297 -13q-80 0 -143 37t-98.5 98.5t-35.5 136.5t35.5 137t98.5 99t143 37q44 0 84 -12h10q44 0 62 17t18 72v29q-11 -38 -36 -59.5t-65 -21.5q-27 0 -45.5 9.5t-32 22.5t-27 22.5t-31.5 9.5q-24 0 -32.5 -17t-8.5 -33h-78q0 47 17.5 78t45 46.5t57.5 15.5q27 0 46.5 -9.5
t34 -21.5t27.5 -21.5t26 -9.5q21 0 26.5 18.5t5.5 32.5h78q0 -33 -7 -59h113v-40q0 -114 -88 -151q36 -37 56.5 -86t20.5 -105q0 -75 -35.5 -136.5t-98 -98.5t-143.5 -37zM297 110q43 0 75 20.5t49.5 54.5t17.5 74q0 41 -17.5 75t-49.5 54.5t-75 20.5t-75 -20.5t-49.5 -54.5
t-17.5 -75q0 -40 17.5 -74t49.5 -54.5t75 -20.5z" />
    <glyph glyph-name="uni1EE2" unicode="&#x1ee2;" horiz-adv-x="778" 
d="M390 -13q-78 0 -144.5 28t-116 78t-77 115.5t-27.5 140.5t27.5 141t77 116t116 78.5t144.5 28.5t144 -28.5t115 -78.5t76.5 -116t27.5 -141t-27.5 -140.5t-76.5 -115.5t-115 -78t-144 -28zM390 117q68 0 116.5 31.5t75 84.5t26.5 116q0 64 -26.5 117t-75 85t-116.5 32
t-117.5 -32t-76 -85t-26.5 -117q0 -63 26.5 -116t76 -84.5t117.5 -31.5zM504 609l-8 88h13q44 0 62 17t18 72v32h114v-40q0 -84 -48 -126.5t-151 -42.5zM390 -213q-34 0 -57.5 23.5t-23.5 56.5q0 32 23.5 55.5t57.5 23.5q35 0 58 -23.5t23 -55.5q0 -34 -23 -57t-58 -23z" />
    <glyph glyph-name="uni1EE3" unicode="&#x1ee3;" horiz-adv-x="594" 
d="M297 -13q-80 0 -143 37t-98.5 98.5t-35.5 136.5t35.5 137t98.5 99t143 37q81 0 143.5 -37t98 -99t35.5 -137t-35.5 -136.5t-98 -98.5t-143.5 -37zM297 110q43 0 75 20.5t49.5 54.5t17.5 74q0 41 -17.5 75t-49.5 54.5t-75 20.5t-75 -20.5t-49.5 -54.5t-17.5 -75
q0 -40 17.5 -74t49.5 -54.5t75 -20.5zM386 432l-8 88h13q44 0 62 17t18 72v32h114v-40q0 -84 -48 -126.5t-151 -42.5zM298 -213q-34 0 -57.5 23.5t-23.5 56.5q0 32 23.5 55.5t57.5 23.5q35 0 58 -23.5t23 -55.5q0 -34 -23 -57t-58 -23z" />
    <glyph glyph-name="uni1EE4" unicode="&#x1ee4;" horiz-adv-x="646" 
d="M323 -13q-85 0 -149 34.5t-99 96t-35 141.5v441h140v-426q0 -74 35.5 -116.5t107.5 -42.5t107.5 42.5t35.5 116.5v426h140v-441q0 -80 -35 -141.5t-98.5 -96t-149.5 -34.5zM323 -213q-34 0 -57.5 23.5t-23.5 56.5q0 32 23.5 55.5t57.5 23.5q35 0 58 -23.5t23 -55.5
q0 -34 -23 -57t-58 -23z" />
    <glyph glyph-name="uni1EE5" unicode="&#x1ee5;" horiz-adv-x="557" 
d="M233 -12q-56 0 -101 26t-71 74.5t-26 113.5v318h135v-285q0 -67 27 -98t77 -31q43 0 75.5 31t32.5 98v285h135v-520h-131v78q-19 -45 -55.5 -67.5t-97.5 -22.5zM274 -213q-34 0 -57.5 23.5t-23.5 56.5q0 32 23.5 55.5t57.5 23.5q35 0 58 -23.5t23 -55.5q0 -34 -23 -57
t-58 -23z" />
    <glyph glyph-name="uni1EE6" unicode="&#x1ee6;" horiz-adv-x="646" 
d="M323 -13q-85 0 -149 34.5t-99 96t-35 141.5v441h140v-426q0 -74 35.5 -116.5t107.5 -42.5t107.5 42.5t35.5 116.5v426h140v-441q0 -80 -35 -141.5t-98.5 -96t-149.5 -34.5zM321 721q-28 0 -56 13l23 67q5 -3 12 -4t11 -1q34 0 34 30q0 11 -8.5 19t-19.5 8q-13 0 -21 -8
t-8 -22h-84q0 48 33 78t81 30q49 0 81.5 -27.5t32.5 -74.5q0 -49 -30 -78.5t-81 -29.5z" />
    <glyph glyph-name="uni1EE7" unicode="&#x1ee7;" horiz-adv-x="557" 
d="M233 -12q-56 0 -101 26t-71 74.5t-26 113.5v318h135v-285q0 -67 27 -98t77 -31q43 0 75.5 31t32.5 98v285h135v-520h-131v78q-19 -45 -55.5 -67.5t-97.5 -22.5zM271 557q-28 0 -56 13l23 67q5 -3 12 -4t11 -1q34 0 34 30q0 11 -8.5 19t-19.5 8q-13 0 -21 -8t-8 -22h-84
q0 48 33 78t81 30q49 0 81.5 -27.5t32.5 -74.5q0 -49 -30 -78.5t-81 -29.5z" />
    <glyph glyph-name="uni1EE8" unicode="&#x1ee8;" horiz-adv-x="646" 
d="M323 -13q-85 0 -149 34.5t-99 96t-35 141.5v441h140v-426q0 -74 35.5 -116.5t107.5 -42.5t107.5 42.5t35.5 116.5v426h140v-441q0 -80 -35 -141.5t-98.5 -96t-149.5 -34.5zM513 612l-8 88h13q44 0 62 17t18 72v32h114v-40q0 -84 -48 -126.5t-151 -42.5zM274 730l44 174
h138l-88 -174h-94z" />
    <glyph glyph-name="uni1EE9" unicode="&#x1ee9;" horiz-adv-x="574" 
d="M233 -12q-56 0 -101 26t-71 74.5t-26 113.5v318h135v-285q0 -67 27 -98t77 -31q43 0 75.5 31t32.5 98v285h135v-520h-131v78q-19 -45 -55.5 -67.5t-97.5 -22.5zM415 432l-8 88h13q44 0 62 17t18 72v32h114v-40q0 -84 -48 -126.5t-151 -42.5zM224 566l44 174h138l-88 -174
h-94z" />
    <glyph glyph-name="uni1EEA" unicode="&#x1eea;" horiz-adv-x="646" 
d="M323 -13q-85 0 -149 34.5t-99 96t-35 141.5v441h140v-426q0 -74 35.5 -116.5t107.5 -42.5t107.5 42.5t35.5 116.5v426h140v-441q0 -80 -35 -141.5t-98.5 -96t-149.5 -34.5zM513 612l-8 88h13q44 0 62 17t18 72v32h114v-40q0 -84 -48 -126.5t-151 -42.5zM280 730l-99 174
h159l34 -174h-94z" />
    <glyph glyph-name="uni1EEB" unicode="&#x1eeb;" horiz-adv-x="574" 
d="M233 -12q-56 0 -101 26t-71 74.5t-26 113.5v318h135v-285q0 -67 27 -98t77 -31q43 0 75.5 31t32.5 98v285h135v-520h-131v78q-19 -45 -55.5 -67.5t-97.5 -22.5zM415 432l-8 88h13q44 0 62 17t18 72v32h114v-40q0 -84 -48 -126.5t-151 -42.5zM230 566l-99 174h159l34 -174
h-94z" />
    <glyph glyph-name="uni1EEC" unicode="&#x1eec;" horiz-adv-x="646" 
d="M323 -13q-85 0 -149 34.5t-99 96t-35 141.5v441h140v-426q0 -74 35.5 -116.5t107.5 -42.5t107.5 42.5t35.5 116.5v426h140v-441q0 -80 -35 -141.5t-98.5 -96t-149.5 -34.5zM513 612l-8 88h13q44 0 62 17t18 72v32h114v-40q0 -84 -48 -126.5t-151 -42.5zM321 721
q-28 0 -56 13l23 67q5 -3 12 -4t11 -1q34 0 34 30q0 11 -8.5 19t-19.5 8q-13 0 -21 -8t-8 -22h-84q0 48 33 78t81 30q49 0 81.5 -27.5t32.5 -74.5q0 -49 -30 -78.5t-81 -29.5z" />
    <glyph glyph-name="uni1EED" unicode="&#x1eed;" horiz-adv-x="574" 
d="M233 -12q-56 0 -101 26t-71 74.5t-26 113.5v318h135v-285q0 -67 27 -98t77 -31q43 0 75.5 31t32.5 98v285h135v-520h-131v78q-19 -45 -55.5 -67.5t-97.5 -22.5zM415 432l-8 88h13q44 0 62 17t18 72v32h114v-40q0 -84 -48 -126.5t-151 -42.5zM271 557q-28 0 -56 13l23 67
q5 -3 12 -4t11 -1q34 0 34 30q0 11 -8.5 19t-19.5 8q-13 0 -21 -8t-8 -22h-84q0 48 33 78t81 30q49 0 81.5 -27.5t32.5 -74.5q0 -49 -30 -78.5t-81 -29.5z" />
    <glyph glyph-name="uni1EEE" unicode="&#x1eee;" horiz-adv-x="646" 
d="M323 -13q-85 0 -149 34.5t-99 96t-35 141.5v441h140v-426q0 -74 35.5 -116.5t107.5 -42.5t107.5 42.5t35.5 116.5v426h140v-441q0 -80 -35 -141.5t-98.5 -96t-149.5 -34.5zM513 612l-8 88h13q44 0 62 17t18 72v32h114v-40q0 -84 -48 -126.5t-151 -42.5zM404 721
q-30 0 -50.5 9.5t-35.5 22.5t-30 22.5t-35 9.5q-27 0 -36.5 -17t-9.5 -33h-86q0 47 19.5 78t50 46.5t63.5 15.5q30 0 51.5 -9.5t38 -21.5t30.5 -21.5t29 -9.5q23 0 29 18.5t6 32.5h87q0 -64 -30 -103.5t-91 -39.5z" />
    <glyph glyph-name="uni1EEF" unicode="&#x1eef;" horiz-adv-x="574" 
d="M233 -12q-56 0 -101 26t-71 74.5t-26 113.5v318h135v-285q0 -67 27 -98t77 -31q43 0 75.5 31t32.5 98v285h135v-520h-131v78q-19 -45 -55.5 -67.5t-97.5 -22.5zM415 432l-8 88h13q44 0 62 17t18 72v32h114v-40q0 -84 -48 -126.5t-151 -42.5zM354 557q-30 0 -50.5 9.5
t-35.5 22.5t-30 22.5t-35 9.5q-27 0 -36.5 -17t-9.5 -33h-86q0 47 19.5 78t50 46.5t63.5 15.5q30 0 51.5 -9.5t38 -21.5t30.5 -21.5t29 -9.5q23 0 29 18.5t6 32.5h87q0 -64 -30 -103.5t-91 -39.5z" />
    <glyph glyph-name="uni1EF0" unicode="&#x1ef0;" horiz-adv-x="646" 
d="M323 -13q-85 0 -149 34.5t-99 96t-35 141.5v441h140v-426q0 -74 35.5 -116.5t107.5 -42.5t107.5 42.5t35.5 116.5v426h140v-441q0 -80 -35 -141.5t-98.5 -96t-149.5 -34.5zM513 612l-8 88h13q44 0 62 17t18 72v32h114v-40q0 -84 -48 -126.5t-151 -42.5zM323 -213
q-34 0 -57.5 23.5t-23.5 56.5q0 32 23.5 55.5t57.5 23.5q35 0 58 -23.5t23 -55.5q0 -34 -23 -57t-58 -23z" />
    <glyph glyph-name="uni1EF1" unicode="&#x1ef1;" horiz-adv-x="574" 
d="M233 -12q-56 0 -101 26t-71 74.5t-26 113.5v318h135v-285q0 -67 27 -98t77 -31q43 0 75.5 31t32.5 98v285h135v-520h-131v78q-19 -45 -55.5 -67.5t-97.5 -22.5zM415 432l-8 88h13q44 0 62 17t18 72v32h114v-40q0 -84 -48 -126.5t-151 -42.5zM274 -213q-34 0 -57.5 23.5
t-23.5 56.5q0 32 23.5 55.5t57.5 23.5q35 0 58 -23.5t23 -55.5q0 -34 -23 -57t-58 -23z" />
    <glyph glyph-name="Ygrave" unicode="&#x1ef2;" horiz-adv-x="566" 
d="M211 0v281l-237 419h154l110 -201q13 -24 26.5 -50t20.5 -52q7 26 19.5 51.5t25.5 50.5l105 201h153l-237 -422v-278h-140zM240 746l-99 174h159l34 -174h-94z" />
    <glyph glyph-name="ygrave" unicode="&#x1ef3;" horiz-adv-x="539" 
d="M93 -209q-20 0 -45 2t-45 8l20 129q28 -7 61 -7q39 0 64 22.5t36 56.5l7 22l-206 496h163l101 -297q14 -40 22 -83q8 43 22 83l101 297h160l-230 -553q-33 -79 -86 -127.5t-145 -48.5zM224 566l-99 174h159l34 -174h-94z" />
    <glyph glyph-name="uni1EF4" unicode="&#x1ef4;" horiz-adv-x="566" 
d="M211 0v281l-237 419h154l110 -201q13 -24 26.5 -50t20.5 -52q7 26 19.5 51.5t25.5 50.5l105 201h153l-237 -422v-278h-140zM284 -213q-34 0 -57.5 23.5t-23.5 56.5q0 32 23.5 55.5t57.5 23.5q35 0 58 -23.5t23 -55.5q0 -34 -23 -57t-58 -23z" />
    <glyph glyph-name="uni1EF5" unicode="&#x1ef5;" horiz-adv-x="539" 
d="M93 -209q-20 0 -45 2t-45 8l20 129q28 -7 61 -7q39 0 64 22.5t36 56.5l7 22l-206 496h163l101 -297q14 -40 22 -83q8 43 22 83l101 297h160l-230 -553q-33 -79 -86 -127.5t-145 -48.5zM414 -213q-34 0 -57.5 23.5t-23.5 56.5q0 32 23.5 55.5t57.5 23.5q35 0 58 -23.5
t23 -55.5q0 -34 -23 -57t-58 -23z" />
    <glyph glyph-name="uni1EF6" unicode="&#x1ef6;" horiz-adv-x="566" 
d="M211 0v281l-237 419h154l110 -201q13 -24 26.5 -50t20.5 -52q7 26 19.5 51.5t25.5 50.5l105 201h153l-237 -422v-278h-140zM281 737q-28 0 -56 13l23 67q5 -3 12 -4t11 -1q34 0 34 30q0 11 -8.5 19t-19.5 8q-13 0 -21 -8t-8 -22h-84q0 48 33 78t81 30q49 0 81.5 -27.5
t32.5 -74.5q0 -49 -30 -78.5t-81 -29.5z" />
    <glyph glyph-name="uni1EF7" unicode="&#x1ef7;" horiz-adv-x="539" 
d="M93 -209q-20 0 -45 2t-45 8l20 129q28 -7 61 -7q39 0 64 22.5t36 56.5l7 22l-206 496h163l101 -297q14 -40 22 -83q8 43 22 83l101 297h160l-230 -553q-33 -79 -86 -127.5t-145 -48.5zM265 557q-28 0 -56 13l23 67q5 -3 12 -4t11 -1q34 0 34 30q0 11 -8.5 19t-19.5 8
q-13 0 -21 -8t-8 -22h-84q0 48 33 78t81 30q49 0 81.5 -27.5t32.5 -74.5q0 -49 -30 -78.5t-81 -29.5z" />
    <glyph glyph-name="uni1EF8" unicode="&#x1ef8;" horiz-adv-x="566" 
d="M211 0v281l-237 419h154l110 -201q13 -24 26.5 -50t20.5 -52q7 26 19.5 51.5t25.5 50.5l105 201h153l-237 -422v-278h-140zM364 737q-30 0 -50.5 9.5t-35.5 22.5t-30 22.5t-35 9.5q-27 0 -36.5 -17t-9.5 -33h-86q0 47 19.5 78t50 46.5t63.5 15.5q30 0 51.5 -9.5t38 -21.5
t30.5 -21.5t29 -9.5q23 0 29 18.5t6 32.5h87q0 -64 -30 -103.5t-91 -39.5z" />
    <glyph glyph-name="uni1EF9" unicode="&#x1ef9;" horiz-adv-x="539" 
d="M93 -209q-20 0 -45 2t-45 8l20 129q28 -7 61 -7q39 0 64 22.5t36 56.5l7 22l-206 496h163l101 -297q14 -40 22 -83q8 43 22 83l101 297h160l-230 -553q-33 -79 -86 -127.5t-145 -48.5zM348 557q-30 0 -50.5 9.5t-35.5 22.5t-30 22.5t-35 9.5q-27 0 -36.5 -17t-9.5 -33
h-86q0 47 19.5 78t50 46.5t63.5 15.5q30 0 51.5 -9.5t38 -21.5t30.5 -21.5t29 -9.5q23 0 29 18.5t6 32.5h87q0 -64 -30 -103.5t-91 -39.5z" />
    <glyph glyph-name="uni2007" unicode="&#x2007;" horiz-adv-x="614" 
 />
    <glyph glyph-name="uni2008" unicode="&#x2008;" horiz-adv-x="223" 
 />
    <glyph glyph-name="uni2009" unicode="&#x2009;" horiz-adv-x="200" 
 />
    <glyph glyph-name="uni200A" unicode="&#x200a;" horiz-adv-x="83" 
 />
    <glyph glyph-name="uni200B" unicode="&#x200b;" horiz-adv-x="0" 
 />
    <glyph glyph-name="uni200C" unicode="&#x200c;" horiz-adv-x="0" 
 />
    <glyph glyph-name="uni200D" unicode="&#x200d;" horiz-adv-x="0" 
 />
    <glyph glyph-name="endash" unicode="&#x2013;" horiz-adv-x="632" 
d="M30 210v131h572v-131h-572z" />
    <glyph glyph-name="emdash" unicode="&#x2014;" horiz-adv-x="832" 
d="M30 210v131h772v-131h-772z" />
    <glyph glyph-name="quoteleft" unicode="&#x2018;" horiz-adv-x="242" 
d="M125 454q-45 0 -72.5 31t-27.5 85q0 58 34.5 100.5t89.5 61.5l28 10l27 -67l-28 -10q-31 -11 -47 -23t-23 -32q12 3 23 3q30 0 54 -23.5t24 -56.5q0 -32 -24.5 -55.5t-57.5 -23.5z" />
    <glyph glyph-name="quoteright" unicode="&#x2019;" horiz-adv-x="242" 
d="M65 455l-27 67l28 10q31 11 47 23t23 32q-12 -3 -23 -3q-30 0 -54 23.5t-24 56.5q0 32 24.5 55.5t57.5 23.5q45 0 72.5 -31t27.5 -85q0 -58 -34 -100t-90 -62z" />
    <glyph glyph-name="quotesinglbase" unicode="&#x201a;" horiz-adv-x="232" 
d="M60 -139l-27 67l28 10q31 11 47 23t23 32q-12 -3 -23 -3q-30 0 -54 23.5t-24 56.5q0 32 24.5 55.5t57.5 23.5q45 0 72.5 -31t27.5 -85q0 -58 -34 -100t-90 -62z" />
    <glyph glyph-name="quotedblleft" unicode="&#x201c;" horiz-adv-x="452" 
d="M125 454q-45 0 -72.5 31t-27.5 85q0 58 34.5 100.5t89.5 61.5l28 10l27 -67l-28 -10q-31 -11 -47 -23t-23 -32q12 3 23 3q30 0 54 -23.5t24 -56.5q0 -32 -24.5 -55.5t-57.5 -23.5zM335 454q-45 0 -72.5 31t-27.5 85q0 58 34.5 100.5t89.5 61.5l28 10l27 -67l-28 -10
q-31 -11 -47 -23t-23 -32q12 3 23 3q30 0 54 -23.5t24 -56.5q0 -32 -24.5 -55.5t-57.5 -23.5z" />
    <glyph glyph-name="quotedblright" unicode="&#x201d;" horiz-adv-x="449" 
d="M65 455l-27 67l28 10q31 11 47 23t23 32q-12 -3 -23 -3q-30 0 -54 23.5t-24 56.5q0 32 24.5 55.5t57.5 23.5q45 0 72.5 -31t27.5 -85q0 -58 -34 -100t-90 -62zM272 455l-27 67l28 10q31 11 47 23t23 32q-12 -3 -23 -3q-30 0 -54 23.5t-24 56.5q0 32 24.5 55.5t57.5 23.5
q45 0 72.5 -31t27.5 -85q0 -58 -34 -100t-90 -62z" />
    <glyph glyph-name="quotedblbase" unicode="&#x201e;" horiz-adv-x="433" 
d="M266 -139l-27 67l28 10q31 11 47 23t23 32q-12 -3 -23 -3q-30 0 -54 23.5t-24 56.5q0 32 24.5 55.5t57.5 23.5q45 0 72.5 -31t27.5 -85q0 -58 -34 -100t-90 -62zM60 -139l-27 67l28 10q31 11 47 23t23 32q-12 -3 -23 -3q-30 0 -54 23.5t-24 56.5q0 32 24.5 55.5
t57.5 23.5q45 0 72.5 -31t27.5 -85q0 -58 -34 -100t-90 -62z" />
    <glyph glyph-name="dagger" unicode="&#x2020;" horiz-adv-x="380" 
d="M135 290v266h-95v95h95v91h110v-91h95v-95h-95v-266h-110z" />
    <glyph glyph-name="daggerdbl" unicode="&#x2021;" horiz-adv-x="380" 
d="M135 290v91h-95v93h95v84h-95v93h95v91h110v-91h95v-93h-95v-84h95v-93h-95v-91h-110z" />
    <glyph glyph-name="bullet" unicode="&#x2022;" horiz-adv-x="305" 
d="M153 220q-39 0 -69.5 18.5t-48 48.5t-17.5 66q0 35 17.5 64.5t48 47.5t69.5 18t69.5 -18t47.5 -47.5t17 -64.5q0 -36 -17 -66t-47.5 -48.5t-69.5 -18.5z" />
    <glyph glyph-name="ellipsis" unicode="&#x2026;" horiz-adv-x="642" 
d="M321 -13q-38 0 -63 25.5t-25 61.5q0 34 25 59.5t63 25.5t62.5 -25.5t24.5 -59.5q0 -36 -24.5 -61.5t-62.5 -25.5zM533 -13q-38 0 -63 25.5t-25 61.5q0 34 25 59.5t63 25.5t62.5 -25.5t24.5 -59.5q0 -36 -24.5 -61.5t-62.5 -25.5zM110 -13q-38 0 -63 25.5t-25 61.5
q0 34 25 59.5t63 25.5t62.5 -25.5t24.5 -59.5q0 -36 -24.5 -61.5t-62.5 -25.5z" />
    <glyph glyph-name="perthousand" unicode="&#x2030;" horiz-adv-x="981" 
d="M170 401q-46 0 -80.5 20.5t-54.5 55t-20 76.5q0 43 20 78t54.5 56t80.5 21t81 -21.5t55 -56.5t20 -77t-20 -76.5t-55 -55t-81 -20.5zM37 0l498 700h109l-497 -700h-110zM170 493q27 0 43 17.5t15 42.5q0 26 -16 44t-42 18q-25 0 -41.5 -18t-16.5 -44q0 -25 16.5 -42.5
t41.5 -17.5zM850 -8q-45 0 -80 20.5t-55 55t-20 76.5q0 43 20 78t55 56t80 21q46 0 81 -21t55 -56t20 -78q0 -42 -20 -76.5t-55 -55t-81 -20.5zM510 -8q-45 0 -80 20.5t-55 55t-20 76.5q0 43 20 78t55 56t80 21q46 0 81 -21t55 -56t20 -78q0 -42 -20 -76.5t-55 -55
t-81 -20.5zM850 84q26 -1 42.5 17t15.5 43q0 26 -16 44t-42 18q-25 0 -41.5 -18t-16.5 -44q0 -25 16.5 -42.5t41.5 -17.5zM510 84q26 -1 42.5 17t15.5 43q0 26 -16 44t-42 18q-25 0 -41.5 -18t-16.5 -44q0 -25 16.5 -42.5t41.5 -17.5z" />
    <glyph glyph-name="minute" unicode="&#x2032;" horiz-adv-x="248" 
d="M55 433l12 267h151l-92 -267h-71z" />
    <glyph glyph-name="second" unicode="&#x2033;" horiz-adv-x="414" 
d="M55 433l12 267h151l-92 -267h-71zM221 433l12 267h151l-92 -267h-71z" />
    <glyph glyph-name="guilsinglleft" unicode="&#x2039;" horiz-adv-x="319" 
d="M158 48l-128 215l126 214h143l-132 -208l132 -221h-141z" />
    <glyph glyph-name="guilsinglright" unicode="&#x203a;" horiz-adv-x="319" 
d="M161 477l128 -215l-126 -214h-143l132 208l-132 221h141z" />
    <glyph glyph-name="exclamdbl" unicode="&#x203c;" horiz-adv-x="426" 
d="M280 193l-23 384v123h140v-123l-23 -384h-94zM325 -13q-39 0 -64.5 26t-25.5 62q0 35 25.5 61t64.5 26t64 -26t25 -61q0 -36 -25 -62t-64 -26zM77 193l-23 384v123h140v-123l-23 -384h-94zM122 -13q-39 0 -64.5 26t-25.5 62q0 35 25.5 61t64.5 26t64 -26t25 -61
q0 -36 -25 -62t-64 -26z" />
    <glyph glyph-name="uni203D" unicode="&#x203d;" horiz-adv-x="520" 
d="M207 193l-26 359h139l-7 -129q42 20 42 77q0 44 -24 74.5t-76 30.5q-46 0 -75.5 -25t-29.5 -80h-126q0 101 61 157t169 56q73 0 123 -28t76.5 -75t26.5 -104q0 -38 -15 -80.5t-52.5 -76.5t-105.5 -46l-6 -110h-94zM252 -13q-39 0 -64.5 26t-25.5 62q0 35 25.5 61t64.5 26
t64 -26t25 -61q0 -36 -25 -62t-64 -26z" />
    <glyph glyph-name="fraction" unicode="&#x2044;" horiz-adv-x="577" 
d="M-85 0l617 700h130l-617 -700h-130z" />
    <glyph glyph-name="Euro" unicode="&#x20ac;" horiz-adv-x="667" 
d="M-52 237l58 85h40q-1 13 -1 27q0 15 1 29h-102l59 85h58q21 73 68 129t115.5 88.5t155.5 32.5q86 0 144 -25.5t98 -74.5l-80 -96q-31 33 -73 49.5t-89 16.5q-65 0 -112.5 -33.5t-72.5 -86.5h322l-58 -85h-290q-3 -27 1 -56h254l-57 -85h-173q25 -53 74 -86.5t115 -33.5
q51 0 82.5 17t62.5 51l112 -87q-40 -48 -104 -79.5t-156 -31.5q-84 0 -152.5 32.5t-116.5 88.5t-70 129h-113z" />
    <glyph glyph-name="uni2116" unicode="&#x2116;" horiz-adv-x="1166" 
d="M50 0v700h106l341 -405q12 -14 23.5 -28.5t22.5 -29.5q-3 22 -4 52.5t-1 61.5v349h128v-700h-91l-354 421q-12 14 -23.5 28.5t-22.5 29.5q3 -22 4 -52.5t1 -61.5v-365h-130zM941 312q-60 0 -106.5 27t-73 72.5t-26.5 100.5q0 56 26.5 101.5t73 72.5t106.5 27t106.5 -27
t73 -72.5t26.5 -101.5q0 -55 -26.5 -100.5t-73 -72.5t-106.5 -27zM941 416q41 0 66 28.5t25 67.5t-25 68t-66 29q-42 0 -67 -29t-25 -68t25 -67.5t67 -28.5zM753 157v99h376v-99h-376z" />
    <glyph glyph-name="trademark" unicode="&#x2122;" horiz-adv-x="919" 
d="M379 280v420h123l83 -176q20 -42 29.5 -66t13.5 -40q4 16 13 40t29 66l84 176h120v-420h-97v148q0 41 1 66.5t4 51.5l-124 -266h-64l-121 261q2 -25 2.5 -49.5t0.5 -63.5v-148h-97zM136 280v328h-111v92h323v-92h-111v-328h-101z" />
    <glyph glyph-name="arrowleft" unicode="&#x2190;" 
d="M333 209l-77 -86l-273 263l273 263l77 -87l-123 -116l404 3v-126l-406 3z" />
    <glyph glyph-name="arrowup" unicode="&#x2191;" 
d="M237 41l3 406l-117 -125l-86 77l263 273l263 -273l-87 -77l-116 123l3 -404h-126z" />
    <glyph glyph-name="arrowright" unicode="&#x2192;" 
d="M-14 448l406 -3l-125 117l77 86l273 -263l-273 -263l-77 87l123 116l-404 -3v126z" />
    <glyph glyph-name="arrowdown" unicode="&#x2193;" 
d="M477 448l86 -77l-263 -273l-263 273l87 77l116 -123l-3 404h126l-3 -406z" />
    <glyph glyph-name="arrowboth" unicode="&#x2194;" horiz-adv-x="762" 
d="M252 105l-272 263l272 263l76 -88l-122 -112h352l-124 113l76 87l272 -263l-272 -263l-76 88l122 112h-352l124 -113z" />
    <glyph glyph-name="arrowupdn" unicode="&#x2195;" 
d="M300 -33l-263 272l88 76l112 -122v352l-113 -124l-87 76l263 272l263 -272l-88 -76l-112 122v-352l113 124l87 -76z" />
    <glyph glyph-name="uni2196" unicode="&#x2196;" 
d="M177 209l-115 -7l-7 379l379 -7l-7 -116l-169 5l288 -283l-89 -89l-285 289z" />
    <glyph glyph-name="uni2197" unicode="&#x2197;" 
d="M55 186l289 285l-171 -5l-7 115l379 7l-7 -379l-116 7l5 169l-283 -288z" />
    <glyph glyph-name="uni2198" unicode="&#x2198;" 
d="M144 655l285 -289l-5 171l115 7l7 -379l-379 7l7 116l169 -5l-288 283z" />
    <glyph glyph-name="uni2199" unicode="&#x2199;" 
d="M427 280l7 -115l-379 -7l7 379l116 -7l-5 -169l283 288l89 -89l-289 -285z" />
    <glyph glyph-name="partialdiff" unicode="&#x2202;" horiz-adv-x="570" 
d="M283 -13q-77 0 -136.5 34.5t-93 92t-33.5 127.5q0 76 33.5 130.5t86 83.5t107.5 29q50 0 88 -18q-16 22 -31 38l-131 140l111 86l161 -185q49 -56 78.5 -122t29.5 -122q0 -106 -35.5 -175.5t-96.5 -104t-138 -34.5zM157 241q0 -34 15.5 -63t43.5 -46.5t67 -17.5
q59 0 92.5 38.5t33.5 108.5q0 33 -9 68q-19 17 -50 26.5t-67 9.5q-58 0 -92 -35.5t-34 -88.5z" />
    <glyph glyph-name="product" unicode="&#x220f;" horiz-adv-x="598" 
d="M85 -190v811h-75v110h578v-110h-75v-811h-128v811h-172v-811h-128z" />
    <glyph glyph-name="minus" unicode="&#x2212;" horiz-adv-x="542" 
d="M45 261v110h452v-110h-452z" />
    <glyph glyph-name="radical" unicode="&#x221a;" 
d="M151 -190l-116 396h126l58 -259l156 784h213v-110h-119l-172 -811h-146z" />
    <glyph glyph-name="infinity" unicode="&#x221e;" horiz-adv-x="787" 
d="M209 92q-59 0 -104 26.5t-70 71t-25 97.5t25 97t70 71t104 27q60 0 103.5 -25.5t79.5 -72.5q37 47 81.5 72.5t104.5 25.5q59 0 104 -27t70 -71t25 -97t-25 -97.5t-70 -71t-104 -26.5q-60 0 -104 25t-80 73q-37 -48 -81 -73t-104 -25zM211 200q35 0 64 24.5t58 62.5
q-29 38 -58 62.5t-64 24.5q-36 0 -62.5 -25.5t-26.5 -61.5t26.5 -61.5t62.5 -25.5zM575 200q36 0 63 25.5t27 61.5t-27 61.5t-63 25.5q-35 0 -64 -24.5t-58 -62.5q29 -38 58 -62.5t64 -24.5z" />
    <glyph glyph-name="integral" unicode="&#x222b;" horiz-adv-x="448" 
d="M0 -200l15 116h42q27 0 46 15t23 55l70 575q8 65 35.5 101.5t68 52t85.5 15.5h63l-14 -117h-38q-33 0 -52 -15t-24 -55l-70 -574q-8 -64 -35.5 -101t-66 -52.5t-80.5 -15.5h-68z" />
    <glyph glyph-name="approxequal" unicode="&#x2248;" horiz-adv-x="542" 
d="M369 341q-45 0 -74.5 11t-53 22t-51.5 11q-40 0 -62 -43l-93 49q20 38 55 63.5t93 25.5q47 0 75.5 -11t49 -22t44.5 -11q41 0 62 43l93 -49q-20 -37 -54 -63t-84 -26zM369 163q-45 0 -74.5 11t-53 22t-51.5 11q-40 0 -62 -43l-93 49q20 38 55 63.5t93 25.5q47 0 75.5 -11
t49 -22t44.5 -11q41 0 62 43l93 -49q-20 -37 -54 -63t-84 -26z" />
    <glyph glyph-name="notequal" unicode="&#x2260;" horiz-adv-x="542" 
d="M57 70l49 79h-61v110h130l75 113h-205v110h268l49 79h112l-49 -79h72v-110h-141l-75 -113h216v-110h-278l-49 -79h-113z" />
    <glyph glyph-name="lessequal" unicode="&#x2264;" horiz-adv-x="542" 
d="M494 220l-479 210l479 210v-116l-231 -94l231 -94v-116zM45 81v110h452v-110h-452z" />
    <glyph glyph-name="greaterequal" unicode="&#x2265;" horiz-adv-x="542" 
d="M48 220v116l231 94l-231 94v116l479 -210zM497 81h-452v110h452v-110z" />
    <glyph glyph-name="uni2E18" unicode="&#x2e18;" horiz-adv-x="520" 
d="M267 536q39 0 64.5 -26t25.5 -62q0 -35 -25.5 -61t-64.5 -26t-64 26t-25 61q0 36 25 62t64 26zM312 330l26 -359h-139l7 129q-42 -20 -42 -77q0 -44 24 -74.5t76 -30.5q46 0 75.5 25t29.5 80h126q0 -100 -61 -156.5t-169 -56.5q-72 0 -122.5 28t-77 75t-26.5 104
q0 38 15 80.5t52.5 76.5t105.5 46l6 110h94z" />
    <glyph glyph-name="uniA78B" unicode="&#xa78b;" horiz-adv-x="288" 
d="M97 193l-23 384v123h140v-123l-23 -384h-94z" />
    <glyph glyph-name="uniA78C" unicode="&#xa78c;" horiz-adv-x="288" 
d="M97 263l-23 314v123h140v-123l-23 -314h-94z" />
    <glyph glyph-name="uni004A0301" horiz-adv-x="386" 
d="M138 -11q-41 0 -78 7t-58 20l53 115q22 -16 64 -16q35 0 58.5 17.5t23.5 58.5v509h140v-514q0 -68 -26.5 -111.5t-72 -64.5t-104.5 -21zM222 746l44 174h138l-88 -174h-94z" />
    <glyph glyph-name="uni013B.loclMAH" horiz-adv-x="476" 
d="M50 0v700h140v-574h261v-126h-401zM160 -200l34 155h138l-98 -155h-74z" />
    <glyph glyph-name="uni0145.loclMAH" horiz-adv-x="716" 
d="M50 0v700h106l341 -405q12 -14 23.5 -28.5t22.5 -29.5q-3 22 -4 52.5t-1 61.5v349h128v-700h-91l-354 421q-12 14 -23.5 28.5t-22.5 29.5q3 -22 4 -52.5t1 -61.5v-365h-130zM282 -200l34 155h138l-98 -155h-74z" />
    <glyph glyph-name="C.ss01" horiz-adv-x="578" 
d="M388 -13q-78 0 -144 28t-115.5 78t-76.5 115.5t-27 140.5t26 141t74.5 116t115 78.5t147.5 28.5q46 0 87.5 -10t71.5 -30v-156q-32 35 -72 50.5t-87 15.5q-69 0 -118 -32t-74.5 -85.5t-25.5 -116.5q0 -64 27 -116.5t76.5 -83.5t116.5 -31q47 0 86 12.5t72 40.5l-11 -152
q-34 -18 -71 -25t-78 -7z" />
    <glyph glyph-name="Cacute.ss01" horiz-adv-x="578" 
d="M388 -13q-78 0 -144 28t-115.5 78t-76.5 115.5t-27 140.5t26 141t74.5 116t115 78.5t147.5 28.5q46 0 87.5 -10t71.5 -30v-156q-32 35 -72 50.5t-87 15.5q-69 0 -118 -32t-74.5 -85.5t-25.5 -116.5q0 -64 27 -116.5t76.5 -83.5t116.5 -31q47 0 86 12.5t72 40.5l-11 -152
q-34 -18 -71 -25t-78 -7zM331 746l44 174h138l-88 -174h-94z" />
    <glyph glyph-name="Ccaron.ss01" horiz-adv-x="578" 
d="M388 -13q-78 0 -144 28t-115.5 78t-76.5 115.5t-27 140.5t26 141t74.5 116t115 78.5t147.5 28.5q46 0 87.5 -10t71.5 -30v-156q-32 35 -72 50.5t-87 15.5q-69 0 -118 -32t-74.5 -85.5t-25.5 -116.5q0 -64 27 -116.5t76.5 -83.5t116.5 -31q47 0 86 12.5t72 40.5l-11 -152
q-34 -18 -71 -25t-78 -7zM225 920h119l36 -80l36 80h117l-98 -174h-109z" />
    <glyph glyph-name="Ccedilla.ss01" horiz-adv-x="578" 
d="M388 -13q-78 0 -144 28t-115.5 78t-76.5 115.5t-27 140.5t26 141t74.5 116t115 78.5t147.5 28.5q46 0 87.5 -10t71.5 -30v-156q-32 35 -72 50.5t-87 15.5q-69 0 -118 -32t-74.5 -85.5t-25.5 -116.5q0 -64 27 -116.5t76.5 -83.5t116.5 -31q47 0 86 12.5t72 40.5l-11 -152
q-34 -18 -71 -25t-78 -7zM370 -213q-28 0 -46.5 5.5t-47.5 26.5l46 58q8 -7 18 -12t21 -5t21 6t10 22q0 11 -8 17t-17 6q-13 0 -22 -3l-4 3l42 95l60 4l-25 -53q27 -8 40 -30t13 -47q0 -47 -31.5 -70t-69.5 -23z" />
    <glyph glyph-name="Cdotaccent.ss01" horiz-adv-x="578" 
d="M388 -13q-78 0 -144 28t-115.5 78t-76.5 115.5t-27 140.5t26 141t74.5 116t115 78.5t147.5 28.5q46 0 87.5 -10t71.5 -30v-156q-32 35 -72 50.5t-87 15.5q-69 0 -118 -32t-74.5 -85.5t-25.5 -116.5q0 -64 27 -116.5t76.5 -83.5t116.5 -31q47 0 86 12.5t72 40.5l-11 -152
q-34 -18 -71 -25t-78 -7zM380 743q-34 0 -57.5 23.5t-23.5 56.5q0 32 23.5 55.5t57.5 23.5q35 0 58 -23.5t23 -55.5q0 -34 -23 -57t-58 -23z" />
    <glyph glyph-name="i.loclTRK" horiz-adv-x="215" 
d="M40 0v520h135v-520h-135zM106 563q-34 0 -57.5 23.5t-23.5 56.5q0 32 23.5 55.5t57.5 23.5q35 0 58 -23.5t23 -55.5q0 -34 -23 -57t-58 -23z" />
    <glyph glyph-name="uni006A0301" horiz-adv-x="215" 
d="M-28 -200v120h26q42 0 42 48v552h135v-559q0 -85 -41 -123t-118 -38h-44zM57 566l44 174h138l-88 -174h-94z" />
    <glyph glyph-name="uni013C.loclMAH" horiz-adv-x="215" 
d="M40 0v730h135v-730h-135zM7 -200l34 155h138l-98 -155h-74z" />
    <glyph glyph-name="uni0146.loclMAH" horiz-adv-x="565" 
d="M40 0v520h133v-76q41 88 159 88q56 0 101 -26t71 -74t26 -114v-318h-135v285q0 68 -31 98.5t-81 30.5q-43 0 -75.5 -30.5t-32.5 -98.5v-285h-135zM185 -200l34 155h138l-98 -155h-74z" />
    <glyph glyph-name="c.ss01" horiz-adv-x="440" 
d="M299 -14q-80 0 -143.5 37t-99.5 98.5t-36 136.5t36 137t99.5 98.5t143.5 36.5q61 0 114 -22v-137q-16 14 -46 25t-68 11q-43 0 -75 -20.5t-49.5 -54t-17.5 -74.5q0 -40 17.5 -74t49.5 -54.5t75 -20.5q75 0 119 43l-5 -144q-53 -22 -114 -22z" />
    <glyph glyph-name="cacute.ss01" horiz-adv-x="440" 
d="M299 -14q-80 0 -143.5 37t-99.5 98.5t-36 136.5t36 137t99.5 98.5t143.5 36.5q61 0 114 -22v-137q-16 14 -46 25t-68 11q-43 0 -75 -20.5t-49.5 -54t-17.5 -74.5q0 -40 17.5 -74t49.5 -54.5t75 -20.5q75 0 119 43l-5 -144q-53 -22 -114 -22zM237 566l44 174h138l-88 -174
h-94z" />
    <glyph glyph-name="ccaron.ss01" horiz-adv-x="440" 
d="M299 -14q-80 0 -143.5 37t-99.5 98.5t-36 136.5t36 137t99.5 98.5t143.5 36.5q61 0 114 -22v-137q-16 14 -46 25t-68 11q-43 0 -75 -20.5t-49.5 -54t-17.5 -74.5q0 -40 17.5 -74t49.5 -54.5t75 -20.5q75 0 119 43l-5 -144q-53 -22 -114 -22zM131 740h119l36 -80l36 80
h117l-98 -174h-109z" />
    <glyph glyph-name="ccedilla.ss01" horiz-adv-x="440" 
d="M299 -14q-80 0 -143.5 37t-99.5 98.5t-36 136.5t36 137t99.5 98.5t143.5 36.5q61 0 114 -22v-137q-16 14 -46 25t-68 11q-43 0 -75 -20.5t-49.5 -54t-17.5 -74.5q0 -40 17.5 -74t49.5 -54.5t75 -20.5q75 0 119 43l-5 -144q-53 -22 -114 -22zM279 -213q-28 0 -46.5 5.5
t-47.5 26.5l46 58q8 -7 18 -12t21 -5t21 6t10 22q0 11 -8 17t-17 6q-13 0 -22 -3l-4 3l42 95l60 4l-25 -53q27 -8 40 -30t13 -47q0 -47 -31.5 -70t-69.5 -23z" />
    <glyph glyph-name="ccircumflex.ss01" horiz-adv-x="440" 
d="M299 -14q-80 0 -143.5 37t-99.5 98.5t-36 136.5t36 137t99.5 98.5t143.5 36.5q61 0 114 -22v-137q-16 14 -46 25t-68 11q-43 0 -75 -20.5t-49.5 -54t-17.5 -74.5q0 -40 17.5 -74t49.5 -54.5t75 -20.5q75 0 119 43l-5 -144q-53 -22 -114 -22zM131 566l101 174h109l98 -174
h-117l-36 80l-36 -80h-119z" />
    <glyph glyph-name="cdotaccent.ss01" horiz-adv-x="440" 
d="M299 -14q-80 0 -143.5 37t-99.5 98.5t-36 136.5t36 137t99.5 98.5t143.5 36.5q61 0 114 -22v-137q-16 14 -46 25t-68 11q-43 0 -75 -20.5t-49.5 -54t-17.5 -74.5q0 -40 17.5 -74t49.5 -54.5t75 -20.5q75 0 119 43l-5 -144q-53 -22 -114 -22zM286 563q-34 0 -57.5 23.5
t-23.5 56.5q0 32 23.5 55.5t57.5 23.5q35 0 58 -23.5t23 -55.5q0 -34 -23 -57t-58 -23z" />
    <glyph glyph-name="ij.ss01" horiz-adv-x="430" 
d="M107 563q-34 0 -57.5 23.5t-23.5 56.5q0 32 23.5 55.5t57.5 23.5q35 0 58 -23.5t23 -55.5q0 -34 -23 -57t-58 -23zM40 0v520h135v-520h-135zM323 563q-34 0 -57.5 23.5t-23.5 56.5q0 32 23.5 55.5t57.5 23.5q35 0 58 -23.5t23 -55.5q0 -34 -23 -57t-58 -23zM255 -200v720
h135v-720h-135z" />
    <glyph glyph-name="j.ss01" horiz-adv-x="215" 
d="M108 563q-34 0 -57.5 23.5t-23.5 56.5q0 32 23.5 55.5t57.5 23.5q35 0 58 -23.5t23 -55.5q0 -34 -23 -57t-58 -23zM40 -200v720h135v-720h-135z" />
    <glyph glyph-name="uni0237.ss01" horiz-adv-x="215" 
d="M40 -200v720h135v-720h-135z" />
    <glyph glyph-name="uni006A0301.ss01" horiz-adv-x="215" 
d="M40 -200v720h135v-720h-135zM58 566l44 174h138l-88 -174h-94z" />
    <glyph glyph-name="jcircumflex.ss01" horiz-adv-x="215" 
d="M40 -200v720h135v-720h-135zM-48 566l101 174h109l98 -174h-117l-36 80l-36 -80h-119z" />
    <glyph glyph-name="t.ss01" horiz-adv-x="328" 
d="M88 0v405h-83v115h83v120h135v-120h100v-115h-100v-405h-135z" />
    <glyph glyph-name="tcaron.ss01" horiz-adv-x="338" 
d="M249 556l50 184h142l-98 -184h-94zM88 0v405h-83v115h83v120h135v-120h100v-115h-100v-405h-135z" />
    <glyph glyph-name="uni0163.ss01" horiz-adv-x="328" 
d="M88 0v405h-83v115h83v120h135v-120h100v-115h-100v-405h-135zM136 -213q-28 0 -46.5 5.5t-47.5 26.5l46 58q8 -7 18 -12t21 -5t21 6t10 22q0 11 -8 17t-17 6q-13 0 -22 -3l-4 3l42 95l60 4l-25 -53q27 -8 40 -30t13 -47q0 -47 -31.5 -70t-69.5 -23z" />
    <glyph glyph-name="uni021B.ss01" horiz-adv-x="328" 
d="M88 0v405h-83v115h83v120h135v-120h100v-115h-100v-405h-135zM53 -200l34 155h138l-98 -155h-74z" />
    <glyph glyph-name="uni1E6D.ss01" horiz-adv-x="328" 
d="M88 0v405h-83v115h83v120h135v-120h100v-115h-100v-405h-135zM156 -213q-34 0 -57.5 23.5t-23.5 56.5q0 32 23.5 55.5t57.5 23.5q35 0 58 -23.5t23 -55.5q0 -34 -23 -57t-58 -23z" />
    <glyph glyph-name="uni1E6F.ss01" horiz-adv-x="328" 
d="M88 0v405h-83v115h83v120h135v-120h100v-115h-100v-405h-135zM3 -181v90h306v-90h-306z" />
    <glyph glyph-name="u.ss01" horiz-adv-x="546" 
d="M275 -12q-113 0 -176.5 58t-63.5 156v318h135v-285q0 -67 29 -98t78 -31q52 0 75.5 31t23.5 98v285h135v-318q0 -98 -60.5 -156t-175.5 -58z" />
    <glyph glyph-name="uacute.ss01" horiz-adv-x="546" 
d="M275 -12q-113 0 -176.5 58t-63.5 156v318h135v-285q0 -67 29 -98t78 -31q52 0 75.5 31t23.5 98v285h135v-318q0 -98 -60.5 -156t-175.5 -58zM221 566l44 174h138l-88 -174h-94z" />
    <glyph glyph-name="ubreve.ss01" horiz-adv-x="546" 
d="M275 -12q-113 0 -176.5 58t-63.5 156v318h135v-285q0 -67 29 -98t78 -31q52 0 75.5 31t23.5 98v285h135v-318q0 -98 -60.5 -156t-175.5 -58zM270 557q-73 0 -116.5 39t-43.5 100h107q-1 -21 12.5 -38.5t40.5 -17.5q29 0 41.5 17.5t11.5 38.5h107q0 -61 -43 -100t-117 -39
z" />
    <glyph glyph-name="ucircumflex.ss01" horiz-adv-x="546" 
d="M275 -12q-113 0 -176.5 58t-63.5 156v318h135v-285q0 -67 29 -98t78 -31q52 0 75.5 31t23.5 98v285h135v-318q0 -98 -60.5 -156t-175.5 -58zM115 566l101 174h109l98 -174h-117l-36 80l-36 -80h-119z" />
    <glyph glyph-name="udieresis.ss01" horiz-adv-x="546" 
d="M275 -12q-113 0 -176.5 58t-63.5 156v318h135v-285q0 -67 29 -98t78 -31q52 0 75.5 31t23.5 98v285h135v-318q0 -98 -60.5 -156t-175.5 -58zM376 563q-34 0 -57.5 23.5t-23.5 56.5q0 32 23.5 55.5t57.5 23.5q35 0 58 -23.5t23 -55.5q0 -34 -23 -57t-58 -23zM164 563
q-34 0 -57.5 23.5t-23.5 56.5q0 32 23.5 55.5t57.5 23.5q35 0 58 -23.5t23 -55.5q0 -34 -23 -57t-58 -23z" />
    <glyph glyph-name="uni1EE5.ss01" horiz-adv-x="546" 
d="M275 -12q-113 0 -176.5 58t-63.5 156v318h135v-285q0 -67 29 -98t78 -31q52 0 75.5 31t23.5 98v285h135v-318q0 -98 -60.5 -156t-175.5 -58zM275 -213q-34 0 -57.5 23.5t-23.5 56.5q0 32 23.5 55.5t57.5 23.5q35 0 58 -23.5t23 -55.5q0 -34 -23 -57t-58 -23z" />
    <glyph glyph-name="ugrave.ss01" horiz-adv-x="546" 
d="M275 -12q-113 0 -176.5 58t-63.5 156v318h135v-285q0 -67 29 -98t78 -31q52 0 75.5 31t23.5 98v285h135v-318q0 -98 -60.5 -156t-175.5 -58zM227 566l-99 174h159l34 -174h-94z" />
    <glyph glyph-name="uni1EE7.ss01" horiz-adv-x="546" 
d="M275 -12q-113 0 -176.5 58t-63.5 156v318h135v-285q0 -67 29 -98t78 -31q52 0 75.5 31t23.5 98v285h135v-318q0 -98 -60.5 -156t-175.5 -58zM268 557q-28 0 -56 13l23 67q5 -3 12 -4t11 -1q34 0 34 30q0 11 -8.5 19t-19.5 8q-13 0 -21 -8t-8 -22h-84q0 48 33 78t81 30
q49 0 81.5 -27.5t32.5 -74.5q0 -49 -30 -78.5t-81 -29.5z" />
    <glyph glyph-name="uhorn.ss01" horiz-adv-x="569" 
d="M275 -12q-113 0 -176.5 58t-63.5 156v318h135v-285q0 -67 29 -98t78 -31q52 0 75.5 31t23.5 98v285h135v-318q0 -98 -60.5 -156t-175.5 -58zM415 432l-8 88h13q44 0 62 17t18 72v32h114v-40q0 -84 -48 -126.5t-151 -42.5z" />
    <glyph glyph-name="uni1EE9.ss01" horiz-adv-x="569" 
d="M275 -12q-113 0 -176.5 58t-63.5 156v318h135v-285q0 -67 29 -98t78 -31q52 0 75.5 31t23.5 98v285h135v-318q0 -98 -60.5 -156t-175.5 -58zM415 432l-8 88h13q44 0 62 17t18 72v32h114v-40q0 -84 -48 -126.5t-151 -42.5zM221 566l44 174h138l-88 -174h-94z" />
    <glyph glyph-name="uni1EF1.ss01" horiz-adv-x="569" 
d="M275 -12q-113 0 -176.5 58t-63.5 156v318h135v-285q0 -67 29 -98t78 -31q52 0 75.5 31t23.5 98v285h135v-318q0 -98 -60.5 -156t-175.5 -58zM415 432l-8 88h13q44 0 62 17t18 72v32h114v-40q0 -84 -48 -126.5t-151 -42.5zM275 -213q-34 0 -57.5 23.5t-23.5 56.5
q0 32 23.5 55.5t57.5 23.5q35 0 58 -23.5t23 -55.5q0 -34 -23 -57t-58 -23z" />
    <glyph glyph-name="uni1EEB.ss01" horiz-adv-x="569" 
d="M275 -12q-113 0 -176.5 58t-63.5 156v318h135v-285q0 -67 29 -98t78 -31q52 0 75.5 31t23.5 98v285h135v-318q0 -98 -60.5 -156t-175.5 -58zM415 432l-8 88h13q44 0 62 17t18 72v32h114v-40q0 -84 -48 -126.5t-151 -42.5zM227 566l-99 174h159l34 -174h-94z" />
    <glyph glyph-name="uni1EED.ss01" horiz-adv-x="569" 
d="M275 -12q-113 0 -176.5 58t-63.5 156v318h135v-285q0 -67 29 -98t78 -31q52 0 75.5 31t23.5 98v285h135v-318q0 -98 -60.5 -156t-175.5 -58zM415 432l-8 88h13q44 0 62 17t18 72v32h114v-40q0 -84 -48 -126.5t-151 -42.5zM268 557q-28 0 -56 13l23 67q5 -3 12 -4t11 -1
q34 0 34 30q0 11 -8.5 19t-19.5 8q-13 0 -21 -8t-8 -22h-84q0 48 33 78t81 30q49 0 81.5 -27.5t32.5 -74.5q0 -49 -30 -78.5t-81 -29.5z" />
    <glyph glyph-name="uni1EEF.ss01" horiz-adv-x="569" 
d="M275 -12q-113 0 -176.5 58t-63.5 156v318h135v-285q0 -67 29 -98t78 -31q52 0 75.5 31t23.5 98v285h135v-318q0 -98 -60.5 -156t-175.5 -58zM415 432l-8 88h13q44 0 62 17t18 72v32h114v-40q0 -84 -48 -126.5t-151 -42.5zM351 557q-30 0 -50.5 9.5t-35.5 22.5t-30 22.5
t-35 9.5q-27 0 -36.5 -17t-9.5 -33h-86q0 47 19.5 78t50 46.5t63.5 15.5q30 0 51.5 -9.5t38 -21.5t30.5 -21.5t29 -9.5q23 0 29 18.5t6 32.5h87q0 -64 -30 -103.5t-91 -39.5z" />
    <glyph glyph-name="uhungarumlaut.ss01" horiz-adv-x="546" 
d="M275 -12q-113 0 -176.5 58t-63.5 156v318h135v-285q0 -67 29 -98t78 -31q52 0 75.5 31t23.5 98v285h135v-318q0 -98 -60.5 -156t-175.5 -58zM309 566l32 174h133l-96 -174h-69zM144 566l32 174h133l-96 -174h-69z" />
    <glyph glyph-name="umacron.ss01" horiz-adv-x="546" 
d="M275 -12q-113 0 -176.5 58t-63.5 156v318h135v-285q0 -67 29 -98t78 -31q52 0 75.5 31t23.5 98v285h135v-318q0 -98 -60.5 -156t-175.5 -58zM118 598v90h306v-90h-306z" />
    <glyph glyph-name="uogonek.ss01" horiz-adv-x="546" 
d="M275 -12q-113 0 -176.5 58t-63.5 156v318h135v-285q0 -67 29 -98t78 -31q52 0 75.5 31t23.5 98v285h135v-318q0 -64 -26.5 -112t-76.5 -74l-44 -35q-16 -12 -22 -24.5t-6 -25.5q0 -21 16 -30.5t35 -9.5q9 0 15 1.5t11 3.5l24 -96q-21 -7 -39.5 -9.5t-35.5 -2.5
q-57 0 -88.5 31t-31.5 82q0 25 8 45.5t26 41.5h-1z" />
    <glyph glyph-name="uring.ss01" horiz-adv-x="546" 
d="M275 -12q-113 0 -176.5 58t-63.5 156v318h135v-285q0 -67 29 -98t78 -31q52 0 75.5 31t23.5 98v285h135v-318q0 -98 -60.5 -156t-175.5 -58zM270 557q-43 0 -75 31t-32 74q0 44 32 74.5t75 30.5q44 0 75.5 -30.5t31.5 -74.5q0 -43 -31.5 -74t-75.5 -31zM270 624
q15 0 25.5 11.5t10.5 26.5t-10.5 26t-25.5 11t-26.5 -11t-11.5 -26t11.5 -26.5t26.5 -11.5z" />
    <glyph glyph-name="utilde.ss01" horiz-adv-x="546" 
d="M275 -12q-113 0 -176.5 58t-63.5 156v318h135v-285q0 -67 29 -98t78 -31q52 0 75.5 31t23.5 98v285h135v-318q0 -98 -60.5 -156t-175.5 -58zM351 557q-30 0 -50.5 9.5t-35.5 22.5t-30 22.5t-35 9.5q-27 0 -36.5 -17t-9.5 -33h-86q0 47 19.5 78t50 46.5t63.5 15.5
q30 0 51.5 -9.5t38 -21.5t30.5 -21.5t29 -9.5q23 0 29 18.5t6 32.5h87q0 -64 -30 -103.5t-91 -39.5z" />
    <glyph glyph-name="f_f.ss02" 
d="M78 0v405h-73v115h73v20q0 61 25.5 103t69 64.5t98.5 22.5q48 0 83.5 -11t61.5 -41q17 26 44 39t72 13h46v-115h-35q-59 0 -59 -62v-33h106v-115h-106v-405h-135v405h-136v-405h-135zM213 538v-18h136v18q0 35 -17 58t-51 23q-33 0 -50.5 -23t-17.5 -58z" />
    <glyph glyph-name="f_f_l.ss02" horiz-adv-x="795" 
d="M78 0v405h-73v115h73v20q0 61 25.5 103t69 64.5t98.5 22.5q95 0 148 -71q21 39 53.5 55t79.5 16q89 0 146 -50t57 -140v-540h-135v538q0 35 -17 58t-51 23q-33 0 -50.5 -23t-17.5 -58v-18h106v-115h-106v-405h-135v405h-136v-405h-135zM213 538v-18h136v18q0 35 -17 58
t-51 23q-33 0 -50.5 -23t-17.5 -58z" />
    <glyph glyph-name="f_t.ss02" horiz-adv-x="599" 
d="M78 0v405h-73v115h73v20q0 91 57 140.5t146 49.5t146 -50t57 -140v-20h110v-115h-110v-405h-135v405h-136v-405h-135zM213 538v-18h136v18q0 35 -17 58t-51 23q-33 0 -50.5 -23t-17.5 -58z" />
    <glyph glyph-name="fi.ss02" horiz-adv-x="524" 
d="M78 0v405h-73v115h73v20q0 91 57 140.5t146 49.5t146 -50t57 -140h-135q0 33 -17 56t-51 23q-33 0 -50.5 -23t-17.5 -58v-18h110v-115h-110v-405h-135zM349 0v520h135v-520h-135z" />
    <glyph glyph-name="fl.ss02" horiz-adv-x="524" 
d="M78 0v405h-73v115h73v20q0 91 57 140.5t146 49.5t146 -50t57 -140v-540h-135v538q0 35 -17 58t-51 23q-33 0 -50.5 -23t-17.5 -58v-18h110v-115h-110v-405h-135z" />
    <glyph glyph-name="pi.ss01" horiz-adv-x="563" 
d="M80 0v405h-69v115h541v-115h-69v-405h-135v405h-133v-405h-135z" />
    <glyph glyph-name="zero.ss01" horiz-adv-x="584" 
d="M292 -13q-75 0 -134.5 40.5t-93.5 120.5t-34 200q0 178 72 270.5t190 92.5q119 0 190.5 -93.5t71.5 -269.5q0 -119 -34 -199.5t-93 -121t-135 -40.5zM292 117q36 0 62 22t40.5 73t14.5 136q0 91 -14.5 141.5t-40.5 71t-62 20.5q-35 0 -61.5 -20.5t-41 -71t-14.5 -141.5
q0 -85 14.5 -136t41 -73t61.5 -22z" />
    <glyph glyph-name="one.ss01" horiz-adv-x="304" 
d="M111 0v577h-111v123h251v-700h-140z" />
    <glyph glyph-name="zero.tf" 
d="M300 -13q-80 0 -137.5 35.5t-88 94.5t-30.5 129v206q0 70 30.5 129t88 94.5t137.5 35.5q81 0 138 -35.5t87.5 -94.5t30.5 -129v-206q0 -70 -30.5 -129t-87.5 -94.5t-138 -35.5zM300 117q43 0 67 21t34 53.5t10 64.5v185q0 38 -10 69.5t-34 51t-67 19.5t-67 -19.5t-34 -51
t-10 -69.5v-185q0 -32 10 -64.5t34 -53.5t67 -21z" />
    <glyph glyph-name="one.tf" 
d="M258 0v544h-121v15l121 141h140v-700h-140z" />
    <glyph glyph-name="two.tf" 
d="M42 0v16l280 330q32 37 51 70.5t19 65.5q0 45 -27 73t-76 28t-75.5 -29.5t-26.5 -83.5h-145q0 72 32.5 127t88.5 85.5t128 30.5q73 0 128 -30t86.5 -80.5t31.5 -112.5q0 -42 -13 -79.5t-48 -81.5l-109 -142q-13 -17 -28.5 -34t-33.5 -30h236v-123h-499z" />
    <glyph glyph-name="three.tf" 
d="M302 -13q-112 0 -179.5 57t-67.5 165h140q0 -53 28.5 -77t78.5 -24t74 26t24 61q0 53 -32.5 80t-84.5 27h-71v114h71q51 0 81.5 22.5t30.5 66.5q0 36 -22.5 61.5t-70.5 25.5q-47 0 -75 -22.5t-28 -69.5h-135q0 101 65 157t173 56q73 0 123.5 -27t77.5 -72.5t27 -102.5
q0 -49 -19.5 -87t-63.5 -60q44 -24 68 -67.5t24 -108.5q0 -56 -28 -102t-80.5 -72.5t-128.5 -26.5z" />
    <glyph glyph-name="four.tf" 
d="M351 0v179h-338v45l359 476h119v-409h80v-112h-80v-179h-140zM352 385q0 19 0.5 54t3.5 63q-10 -17 -20.5 -33t-21.5 -30l-114 -148h152v94z" />
    <glyph glyph-name="five.tf" 
d="M270 -13q-58 0 -110 11t-110 43l51 122q33 -19 73 -32.5t86 -13.5q69 0 102.5 30t33.5 80t-33 82.5t-113 32.5q-43 0 -82.5 -11.5t-79.5 -32.5l65 402h332v-123h-223l-19 -124q15 5 29.5 6t29.5 1q84 0 136.5 -33t77.5 -86t25 -114q0 -69 -34 -123.5t-95 -85.5t-142 -31z
" />
    <glyph glyph-name="six.tf" 
d="M298 -13q-75 0 -133 31t-90.5 85.5t-32.5 123.5q0 38 9.5 77t46.5 94l199 302h163l-162 -246q78 7 136 -20t90 -81t32 -126q0 -69 -33 -123.5t-91 -85.5t-134 -31zM298 117q54 0 83.5 32.5t29.5 77.5q0 30 -13 57t-38 44t-61 17q-35 0 -60.5 -17t-38.5 -44t-13 -57
q0 -45 29.5 -77.5t81.5 -32.5z" />
    <glyph glyph-name="seven.tf" 
d="M87 0l258 545q7 15 20 32h-325v123h525l2 -15l-330 -685h-150z" />
    <glyph glyph-name="eight.tf" 
d="M300 -13q-75 0 -129.5 26.5t-83.5 72.5t-29 102q0 66 29 109.5t73 66.5q-39 23 -60.5 61t-21.5 89q0 57 25.5 102t75 71t121.5 26q73 0 122 -26t74.5 -71t25.5 -102q0 -102 -82 -150q44 -24 73 -67t29 -109q0 -56 -29 -102t-83 -72.5t-130 -26.5zM300 418q39 0 63.5 25.5
t25.5 64.5q1 36 -23.5 60.5t-65.5 24.5q-39 0 -63.5 -24.5t-24.5 -60.5q0 -39 24.5 -64.5t63.5 -25.5zM300 107q45 0 74.5 29.5t29.5 69.5q0 44 -29.5 72.5t-74.5 28.5t-74.5 -28.5t-29.5 -72.5q0 -40 29.5 -69.5t74.5 -29.5z" />
    <glyph glyph-name="nine.tf" 
d="M137 0l163 246q-79 -7 -137 20t-89.5 81t-31.5 126q0 70 33 124t91.5 85t133.5 31q76 0 133.5 -31t90 -85t32.5 -124q0 -38 -9.5 -76.5t-46.5 -94.5l-200 -302h-163zM299 355q36 0 61 17t38 44t13 57q0 45 -29 77.5t-82 32.5q-54 0 -83.5 -32.5t-29.5 -77.5q0 -30 13 -57
t38.5 -44t60.5 -17z" />
    <glyph glyph-name="zero.ss01.tf" 
d="M300 -13q-75 0 -134.5 40.5t-93.5 120.5t-34 200q0 178 72 270.5t190 92.5q119 0 190.5 -93.5t71.5 -269.5q0 -119 -34 -199.5t-93 -121t-135 -40.5zM300 117q36 0 62 22t40.5 73t14.5 136q0 91 -14.5 141.5t-40.5 71t-62 20.5q-35 0 -61.5 -20.5t-41 -71t-14.5 -141.5
q0 -85 14.5 -136t41 -73t61.5 -22z" />
    <glyph glyph-name="one.ss01.tf" 
d="M248 0v577h-111v123h251v-700h-140z" />
    <glyph glyph-name="onehalf.ss01" horiz-adv-x="745" 
d="M86 300v310h-64v90h172v-400h-108zM-12 0l617 700h130l-617 -700h-130zM447 -5v10l170 211q13 17 17 30t4 27q0 17 -10 28t-28 11q-44 0 -44 -48h-110q0 41 20.5 72t55.5 48.5t76 17.5t75 -17t54 -46t20 -64q0 -22 -7 -42.5t-25 -47.5l-28 -42q-9 -14 -23 -29t-33 -30
h126v-89h-310z" />
    <glyph glyph-name="onequarter.ss01" horiz-adv-x="723" 
d="M86 300v310h-64v90h172v-400h-108zM-12 0l617 700h130l-617 -700h-130zM553 0v87h-199v47l204 266h103v-225h38v-88h-38v-87h-108zM553 209q0 18 1 41t10 52l-95 -130h84v37z" />
    <glyph glyph-name="space.tf" 
 />
    <glyph glyph-name="period.tf" 
d="M301 -13q-39 0 -64.5 26t-25.5 62q0 35 25.5 61t64.5 26t64 -26t25 -61q0 -36 -25 -62t-64 -26z" />
    <glyph glyph-name="comma.tf" 
d="M241 -139l-27 67l28 10q31 11 47 23t23 32q-12 -3 -23 -3q-30 0 -54 23.5t-24 56.5q0 32 24.5 55.5t57.5 23.5q45 0 72.5 -31t27.5 -85q0 -58 -34 -100t-90 -62z" />
    <glyph glyph-name="colon.tf" 
d="M300 373q-39 0 -64.5 26t-25.5 62q0 35 25.5 61t64.5 26t64 -26t25 -61q0 -36 -25 -62t-64 -26zM300 -13q-39 0 -64.5 26t-25.5 62q0 35 25.5 61t64.5 26t64 -26t25 -61q0 -36 -25 -62t-64 -26z" />
    <glyph glyph-name="semicolon.tf" 
d="M249 -139l-27 67l28 10q31 11 47 23t23 32q-12 -3 -23 -3q-30 0 -54 23.5t-24 56.5q0 32 24.5 55.5t57.5 23.5q45 0 72.5 -31t27.5 -85q0 -58 -34 -100t-90 -62zM301 373q-39 0 -64.5 26t-25.5 62q0 35 25.5 61t64.5 26t64 -26t25 -61q0 -36 -25 -62t-64 -26z" />
    <glyph glyph-name="numbersign.tf" 
d="M19 0l47 191h-80v107h109l37 150h-131v107h156l44 175h120l-44 -175h131l43 175h120l-44 -175h86v-107h-115l-38 -150h138v-107h-163l-48 -191h-118l48 191h-132l-48 -191h-118zM207 298h141l38 150h-141z" />
    <glyph glyph-name="florin.tf" 
d="M38 0v116h77q35 0 58 16.5t33 63.5l27 119h-165v110h189l22 96q16 70 46 109t72.5 54.5t92.5 15.5h73v-117h-62q-40 0 -63.5 -16t-34.5 -63l-18 -79h148v-110h-172l-31 -136q-15 -70 -45.5 -108.5t-71 -54.5t-87.5 -16h-88z" />
    <glyph glyph-name="Euro.ss01" horiz-adv-x="588" 
d="M388 -13q-78 0 -144 28t-115.5 78t-76.5 115.5t-27 140.5t26 141t74.5 116t115 78.5t147.5 28.5q46 0 87.5 -10t71.5 -30v-156q-32 35 -72 50.5t-87 15.5q-70 0 -119 -33t-74 -86h285v-86h-313q-2 -27 1 -55h312v-86h-285q26 -53 76 -86t119 -33q47 0 86 12.5t72 40.5
l-11 -152q-34 -18 -71 -25t-78 -7z" />
    <glyph glyph-name="cent.tf" 
d="M266 0v104q-58 14 -100.5 48.5t-66 83t-23.5 104.5t23.5 104.5t66 83t100.5 48.5v124h110v-121q45 -7 81.5 -29t65.5 -54l-92 -75q-18 20 -42 33.5t-58 13.5q-61 0 -94.5 -35.5t-33.5 -92.5t33.5 -92.5t94.5 -35.5q37 0 63 15t45 38l88 -76q-29 -34 -66.5 -57.5
t-84.5 -30.5v-101h-110z" />
    <glyph glyph-name="currency.tf" 
d="M135 54l-88 81l65 70q-34 52 -34 117t34 118l-65 70l88 81l67 -74q45 21 98 21t98 -21l67 74l88 -81l-65 -70q34 -53 34 -118t-34 -117l65 -70l-88 -81l-67 73q-45 -20 -98 -20t-98 20zM300 221q45 0 72.5 29t27.5 72t-27.5 72.5t-72.5 29.5t-72.5 -29.5t-27.5 -72.5
t27.5 -72t72.5 -29z" />
    <glyph glyph-name="dollar.tf" 
d="M273 -84v72q-73 6 -133.5 42t-101.5 108l121 77q27 -54 68 -78.5t87 -24.5q49 0 77 22t28 58q0 35 -22 56t-58.5 34t-79.5 24q-81 21 -129 69.5t-48 127.5q0 82 52 136.5t139 68.5v102h110v-102q59 -11 102 -43t75 -83l-120 -74q-25 41 -52 60t-66 19q-42 0 -69.5 -21
t-27.5 -56q0 -39 32.5 -56.5t78.5 -31.5q31 -10 69.5 -23.5t74.5 -37t59 -62.5t23 -99q0 -79 -47 -133.5t-132 -71.5v-79h-110z" />
    <glyph glyph-name="Euro.tf" 
d="M-52 237l58 85h40q-1 13 -1 27q0 15 1 29h-102l59 85h58q21 73 68 129t115.5 88.5t155.5 32.5q86 0 144 -25.5t98 -74.5l-80 -96q-31 33 -73 49.5t-89 16.5q-65 0 -112.5 -33.5t-72.5 -86.5h322l-58 -85h-290q-3 -27 1 -56h254l-57 -85h-173q25 -53 74 -86.5t115 -33.5
q51 0 82.5 17t62.5 51l112 -87q-40 -48 -104 -79.5t-156 -31.5q-84 0 -152.5 32.5t-116.5 88.5t-70 129h-113z" />
    <glyph glyph-name="sterling.tf" 
d="M110 -10l-84 75l40 44q35 39 59 72.5t24 65.5q0 15 -3 28h-111v100h61q-21 27 -31 58.5t-10 65.5q0 52 27 101t80.5 81t130.5 32q125 0 192 -66.5t67 -176.5h-145q0 47 -28 80t-78 33q-46 0 -73.5 -29t-27.5 -68q0 -24 8 -51.5t27 -59.5h176v-100h-135q1 -11 1 -23
q0 -50 -27 -94q24 -2 50.5 -9.5t52.5 -14.5t47 -7q29 0 50 14.5t36 35.5l92 -98q-35 -48 -81.5 -66.5t-80.5 -18.5q-36 0 -61 7t-45 15.5t-41 15.5t-49 7q-34 0 -62.5 -11.5t-47.5 -37.5z" />
    <glyph glyph-name="yen.tf" 
d="M85 84v94h144v53h-144v97h123l-215 371h153l96 -180q16 -31 34.5 -66.5t27.5 -69.5q9 34 25.5 68.5t32.5 67.5l91 180h153l-214 -371h136v-97h-159v-53h159v-94h-159v-84h-140v84h-144z" />
    <glyph glyph-name="Euro.ss01.tf" 
d="M397 -13q-78 0 -144 28t-115.5 78t-76.5 115.5t-27 140.5t26 141t74.5 116t115 78.5t147.5 28.5q46 0 87.5 -10t71.5 -30v-156q-32 35 -72 50.5t-87 15.5q-70 0 -119 -33t-74 -86h285v-86h-313q-2 -27 1 -55h312v-86h-285q26 -53 76 -86t119 -33q47 0 86 12.5t72 40.5
l-11 -152q-34 -18 -71 -25t-78 -7z" />
    <glyph glyph-name="uni00B5.ss01" horiz-adv-x="546" 
d="M35 -200v720h135v-285q0 -67 27 -98t80 -31q52 0 75.5 31t23.5 98v285h135v-318q0 -98 -60.5 -156t-175.5 -58q-25 0 -54 6t-51 20v-214h-135z" />
    <glyph glyph-name="uni030C.alt" horiz-adv-x="0" 
d="M11 496l50 204h142l-98 -204h-94z" />
    <glyph glyph-name="uni03060301" horiz-adv-x="0" 
d="M0 557q-73 0 -116.5 39t-43.5 100h107q-1 -21 12.5 -38.5t40.5 -17.5q29 0 41.5 17.5t11.5 38.5h107q0 -61 -43 -100t-117 -39zM-49 726l44 174h138l-88 -174h-94z" />
    <glyph glyph-name="uni03060300" horiz-adv-x="0" 
d="M0 557q-73 0 -116.5 39t-43.5 100h107q-1 -21 12.5 -38.5t40.5 -17.5q29 0 41.5 17.5t11.5 38.5h107q0 -61 -43 -100t-117 -39zM-43 726l-99 174h159l34 -174h-94z" />
    <glyph glyph-name="uni03060309" horiz-adv-x="0" 
d="M-1 557q-73 0 -116.5 39t-43.5 100h107q-1 -21 12.5 -38.5t40.5 -17.5q29 0 41.5 17.5t11.5 38.5h107q0 -61 -43 -100t-117 -39zM-3 717q-28 0 -56 13l23 67q5 -3 12 -4t11 -1q34 0 34 30q0 11 -8.5 19t-19.5 8q-13 0 -21 -8t-8 -22h-84q0 48 33 78t81 30
q49 0 81.5 -27.5t32.5 -74.5q0 -49 -30 -78.5t-81 -29.5z" />
    <glyph glyph-name="uni03060303" horiz-adv-x="0" 
d="M0 557q-73 0 -116.5 39t-43.5 100h107q-1 -21 12.5 -38.5t40.5 -17.5q29 0 41.5 17.5t11.5 38.5h107q0 -61 -43 -100t-117 -39zM81 717q-30 0 -50.5 9.5t-35.5 22.5t-30 22.5t-35 9.5q-27 0 -36.5 -17t-9.5 -33h-86q0 47 19.5 78t50 46.5t63.5 15.5q30 0 51.5 -9.5
t38 -21.5t30.5 -21.5t29 -9.5q23 0 29 18.5t6 32.5h87q0 -64 -30 -103.5t-91 -39.5z" />
    <glyph glyph-name="uni03020301" horiz-adv-x="0" 
d="M-155 566l101 174h109l98 -174h-117l-36 80l-36 -80h-119zM74 709l44 174h138l-88 -174h-94z" />
    <glyph glyph-name="uni03020300" horiz-adv-x="0" 
d="M-155 566l101 174h109l98 -174h-117l-36 80l-36 -80h-119zM95 709l-99 174h159l34 -174h-94z" />
    <glyph glyph-name="uni03020309" horiz-adv-x="0" 
d="M-155 566l101 174h109l98 -174h-117l-36 80l-36 -80h-119zM-2 761q-28 0 -56 13l23 67q5 -3 12 -4t11 -1q34 0 34 30q0 11 -8.5 19t-19.5 8q-13 0 -21 -8t-8 -22h-84q0 48 33 78t81 30q49 0 81.5 -27.5t32.5 -74.5q0 -49 -30 -78.5t-81 -29.5z" />
    <glyph glyph-name="uni03020303" horiz-adv-x="0" 
d="M-155 566l101 174h109l98 -174h-117l-36 80l-36 -80h-119zM81 749q-30 0 -50.5 9.5t-35.5 22.5t-30 22.5t-35 9.5q-27 0 -36.5 -17t-9.5 -33h-86q0 47 19.5 78t50 46.5t63.5 15.5q30 0 51.5 -9.5t38 -21.5t30.5 -21.5t29 -9.5q23 0 29 18.5t6 32.5h87q0 -64 -30 -103.5
t-91 -39.5z" />
    <glyph glyph-name="uni0338.case" horiz-adv-x="0" 
d="M28 -40l611 788h82l-611 -788h-82z" />
    </font>
</defs>
</svg>
